<svg width="24" height="20" viewBox="0 0 24 20" fill="none" xmlns="http://www.w3.org/2000/svg">
<path d="M14.4892 1.00322C14.5093 1.00736 14.5301 1.01567 14.5564 1.04367C14.5565 1.04374 14.5566 1.04382 14.5566 1.04389L22.9393 9.99902L14.5574 18.9565C14.5572 18.9566 14.557 18.9568 14.5569 18.9569C14.5309 18.9844 14.5103 18.9927 14.4901 18.9968C14.463 19.0024 14.4233 19.0015 14.3805 18.9869C14.3674 18.9824 14.3565 18.9776 14.3477 18.9729V15.3858V14.3858H13.3477H1.75754C1.2387 14.3858 1 14.03 1 13.7782V6.22137C1 5.96835 1.23996 5.61216 1.75754 5.61216H13.3477H14.3477V4.61216V1.02678C14.3564 1.02219 14.3672 1.01737 14.3801 1.01295C14.4227 0.998437 14.4621 0.99764 14.4892 1.00322Z" fill="url(#paint0_linear_355_7163)" stroke="white" stroke-width="2"/>
<defs>
<linearGradient id="paint0_linear_355_7163" x1="3.55453e-07" y1="10" x2="17.6756" y2="20.573" gradientUnits="userSpaceOnUse">
<stop stop-color="#F76B1C"/>
<stop offset="1" stop-color="#FAD961"/>
</linearGradient>
</defs>
</svg>
