<?xml version="1.0" encoding="UTF-8"?>
<svg width="60px" height="60px" viewBox="0 0 60 60" version="1.1" xmlns="http://www.w3.org/2000/svg" xmlns:xlink="http://www.w3.org/1999/xlink">
    <title>切片</title>
    <defs>
        <path d="M41.5,6 C48.9558441,6 55,12.0441559 55,19.5 L55,41.5 C55,48.9558441 48.9558441,55 41.5,55 L19.5,55 C12.0441559,55 6,48.9558441 6,41.5 L6,19.5 C6,12.0441559 12.0441559,6 19.5,6 L41.5,6 Z M41.5406636,20.3667438 C39.9460227,18.772103 37.360599,18.772103 35.7659582,20.3667438 L35.7659582,20.3667438 L30.9527632,25.1787632 L26.1414492,20.3667438 L25.9787559,20.2125952 C24.3755477,18.7738748 21.90823,18.8252577 20.3667438,20.3667438 L20.3667438,20.3667438 L20.2125952,20.5294371 C18.7738748,22.1326454 18.8252577,24.5999631 20.3667438,26.1414492 L20.3667438,26.1414492 L25.1787632,30.9527632 L20.3667438,35.7659582 C18.772103,37.360599 18.772103,39.9460227 20.3667438,41.5406636 C21.9613847,43.1353044 24.5468084,43.1353044 26.1414492,41.5406636 L26.1414492,41.5406636 L30.9527632,36.7277632 L35.7659582,41.5406636 L35.9286515,41.6948122 C37.5318598,43.1335326 39.9991774,43.0821497 41.5406636,41.5406636 L41.5406636,41.5406636 L41.6948122,41.3779703 C43.1335326,39.774762 43.0821497,37.3074443 41.5406636,35.7659582 L41.5406636,35.7659582 L36.7277632,30.9527632 L41.5406636,26.1414492 C43.1353044,24.5468084 43.1353044,21.9613847 41.5406636,20.3667438 Z" id="path-1"></path>
        <filter x="-13.3%" y="-15.3%" width="126.5%" height="126.5%" filterUnits="objectBoundingBox" id="filter-2">
            <feOffset dx="0" dy="-1" in="SourceAlpha" result="shadowOffsetOuter1"></feOffset>
            <feGaussianBlur stdDeviation="2" in="shadowOffsetOuter1" result="shadowBlurOuter1"></feGaussianBlur>
            <feColorMatrix values="0 0 0 0 0   0 0 0 0 0   0 0 0 0 0  0 0 0 0.5 0" type="matrix" in="shadowBlurOuter1"></feColorMatrix>
        </filter>
    </defs>
    <g id="页面-1" stroke="none" stroke-width="1" fill="none" fill-rule="evenodd">
        <g id="一键领取-地块" transform="translate(-1311.000000, -57.000000)" fill-rule="nonzero">
            <g id="编组-13" transform="translate(50.000000, 50.000000)">
                <g id="形状结合" transform="translate(1261.000000, 7.000000)">
                    <use fill="black" fill-opacity="1" filter="url(#filter-2)" xlink:href="#path-1"></use>
                    <use fill="#FFFFFF" xlink:href="#path-1"></use>
                </g>
            </g>
        </g>
    </g>
</svg>