<svg width="32" height="32" viewBox="0 0 32 32" fill="none" xmlns="http://www.w3.org/2000/svg">
<path fill-rule="evenodd" clip-rule="evenodd" d="M18.9091 2.90909C18.9091 1.30242 17.6066 0 16 0C14.3934 0 13.0909 1.30242 13.0909 2.90909V13.0909H2.90909C1.30244 13.0909 0 14.3933 0 16C0 17.6067 1.30244 18.9091 2.90909 18.9091H13.0909V29.0909C13.0909 30.6976 14.3934 32 16 32C17.6066 32 18.9091 30.6976 18.9091 29.0909V18.9091H29.0909C30.6976 18.9091 32 17.6067 32 16C32 14.3933 30.6976 13.0909 29.0909 13.0909H18.9091V2.90909Z" fill="#C4C4C4"/>
</svg>
