<svg viewBox="0 0 626 627" fill="none" xmlns="http://www.w3.org/2000/svg"><g opacity=".3"><path d="M312.253 313.582a.921.921 0 0 0 .137.477l92.769 147.593a.895.895 0 1 0 1.514-.953l-92.769-147.593a.88.88 0 0 0-.558-.396.905.905 0 0 0-.675.115.917.917 0 0 0-.418.757Z" fill="url(#a)"/><path d="M312.254 313.582c0 .193.063.382.179.536l104.672 139.428a.893.893 0 1 0 1.424-1.073L313.852 313.046a.892.892 0 0 0-.998-.312.895.895 0 0 0-.612.848h.012Z" fill="url(#b)"/><path d="M312.253 313.582a.91.91 0 0 0 .227.596l115.854 130.26a.896.896 0 0 0 1.335-1.192L313.815 312.992a.89.89 0 0 0-.986-.241.898.898 0 0 0-.576.837v-.006Z" fill="url(#c)"/><path d="M312.253 313.582a.885.885 0 0 0 .281.65L438.77 434.473a.898.898 0 0 0 1.234-1.3L313.767 312.939a.904.904 0 0 0-.966-.171.908.908 0 0 0-.548.814Z" fill="url(#d)"/><path d="M312.253 313.583a.893.893 0 0 0 .334.697l135.756 109.357a.905.905 0 0 0 .671.233.888.888 0 0 0 .63-.33.893.893 0 0 0 .067-1.027.905.905 0 0 0-.247-.265L313.708 312.879a.898.898 0 0 0-.947-.109.895.895 0 0 0-.508.807v.006Z" fill="url(#e)"/><path d="M312.253 313.582a.889.889 0 0 0 .394.739l144.345 97.752a.89.89 0 0 0 1.023.042.91.91 0 0 0 .396-.586.896.896 0 0 0-.418-.934l-144.345-97.752a.903.903 0 0 0-1.24.238.925.925 0 0 0-.155.501Z" fill="url(#f)"/><path d="M312.253 313.582a.89.89 0 0 0 .459.781l151.939 85.461a.892.892 0 0 0 1.219-.342.899.899 0 0 0-.343-1.219l-151.938-85.456a.915.915 0 0 0-.333-.11.898.898 0 0 0-.889.45.886.886 0 0 0-.114.435Z" fill="url(#g)"/><path d="M312.253 313.582a.902.902 0 0 0 .525.817l158.495 72.586a.892.892 0 0 0 1.186-.441.892.892 0 0 0-.441-1.186l-158.495-72.587a.895.895 0 0 0-1.192.441.91.91 0 0 0-.078.37Z" fill="url(#h)"/><path d="M312.253 313.582a.888.888 0 0 0 .596.84l163.961 59.217a.897.897 0 0 0 1.08-.563.893.893 0 0 0-.484-1.117l-163.955-59.218a.894.894 0 0 0-1.198.841Z" fill="url(#i)"/><path d="M312.253 313.582a.897.897 0 0 0 .662.864l168.3 45.437a.901.901 0 0 0 .709-.056.91.91 0 0 0 .28-.232.907.907 0 0 0 .185-.687.899.899 0 0 0-.709-.747l-168.3-45.443a.902.902 0 0 0-1.097.632 1.134 1.134 0 0 0-.03.232Z" fill="url(#j)"/><path d="M312.253 313.582a.9.9 0 0 0 .734.883l171.482 31.346a.903.903 0 0 0 .932-.385.895.895 0 0 0-.61-1.374l-171.483-31.346a.894.894 0 0 0-1.055.876Z" fill="url(#k)"/><path d="M312.253 313.582a.887.887 0 0 0 .811.888l173.486 17.047a.902.902 0 0 0 .881-.469.9.9 0 0 0-.703-1.319l-173.473-17.035a.892.892 0 0 0-.877.47.898.898 0 0 0-.101.335.413.413 0 0 0-.024.083Z" fill="url(#l)"/><path d="M312.253 313.583a.896.896 0 0 0 .883.894l174.302 2.622a.89.89 0 0 0 .912-.876.918.918 0 0 0-.882-.912l-174.309-2.623a.896.896 0 0 0-.906.883v.012Z" fill="url(#m)"/><path d="M312.254 313.582a.893.893 0 0 0 .948.894l173.927-11.814a.88.88 0 0 0 .614-.304.884.884 0 0 0 .22-.649.904.904 0 0 0-.304-.615.9.9 0 0 0-.65-.22l-173.926 11.82a.892.892 0 0 0-.829.888Z" fill="url(#n)"/><path d="M312.254 313.582a1.044 1.044 0 0 0 0 .137.898.898 0 0 0 1.019.751l172.359-26.178a.906.906 0 0 0 .76-1.028.894.894 0 0 0-.356-.593.894.894 0 0 0-.672-.167L313.017 312.7a.886.886 0 0 0-.763.882Z" fill="url(#o)"/><path d="M312.253 313.582a.812.812 0 0 0 0 .209.89.89 0 0 0 .73.675.873.873 0 0 0 .349-.014L482.919 274.1a.897.897 0 1 0-.387-1.752L312.939 312.7a.903.903 0 0 0-.686.882Z" fill="url(#p)"/><path d="M312.253 313.583c.002.095.018.19.048.28a.895.895 0 0 0 .437.536.88.88 0 0 0 .69.06l165.665-54.24a.9.9 0 0 0 .575-1.13.892.892 0 0 0-1.129-.575l-165.666 54.24a.886.886 0 0 0-.62.829Z" fill="url(#q)"/><path d="M312.253 313.583a.922.922 0 0 0 .27.647.882.882 0 0 0 .648.256.885.885 0 0 0 .346-.081l160.587-67.782a.901.901 0 0 0 .505-.485.893.893 0 0 0-1.202-1.16L312.802 312.76a.898.898 0 0 0-.549.823Z" fill="url(#r)"/><path d="M312.253 313.583a.93.93 0 0 0 .102.417.895.895 0 0 0 1.192.375l154.46-80.847a.898.898 0 0 0 .321-1.176.894.894 0 0 0-1.15-.404L312.736 312.79a.903.903 0 0 0-.483.793Z" fill="url(#s)"/><path d="M312.253 313.582a.907.907 0 0 0 .926.894.9.9 0 0 0 .451-.137l147.224-93.353a.895.895 0 0 0-.284-1.631.898.898 0 0 0-.676.117l-147.235 93.359a.894.894 0 0 0-.406.751Z" fill="url(#t)"/><path d="M312.253 313.583a.88.88 0 0 0 .185.542.892.892 0 0 0 1.252.173l138.986-105.226a.896.896 0 0 0 .148-1.233.895.895 0 0 0-1.227-.192L312.611 312.879a.888.888 0 0 0-.358.704Z" fill="url(#u)"/><path d="M312.253 313.582c0 .221.083.434.233.597a.9.9 0 0 0 .614.297.902.902 0 0 0 .644-.226l129.801-116.366a.893.893 0 0 0 .071-1.264.893.893 0 0 0-1.263-.071L312.551 312.921a.886.886 0 0 0-.298.661Z" fill="url(#v)"/><path d="M312.253 313.582a.9.9 0 0 0 .572.816.889.889 0 0 0 .972-.22l119.722-126.695a.897.897 0 0 0-.048-1.25.894.894 0 0 0-1.251.022L312.498 312.968a.901.901 0 0 0-.245.614Z" fill="url(#w)"/><path d="M312.253 313.582a.899.899 0 0 0 .598.845.896.896 0 0 0 .994-.284l108.82-136.191a.894.894 0 0 0-.453-1.418.892.892 0 0 0-.947.303L312.45 313.028a.88.88 0 0 0-.197.554Z" fill="url(#x)"/><path d="M312.253 313.582a.897.897 0 0 0 1.196.848.892.892 0 0 0 .444-.347l97.155-144.732a.89.89 0 0 0-.226-1.266.902.902 0 0 0-.687-.132.89.89 0 0 0-.571.402l-97.156 144.733a.846.846 0 0 0-.155.494Z" fill="url(#y)"/><path d="M312.253 313.582a.89.89 0 0 0 1.246.822.895.895 0 0 0 .429-.386l84.854-152.279a.892.892 0 0 0-.346-1.192.898.898 0 0 0-1.192.346l-84.877 152.254a.886.886 0 0 0-.114.435Z" fill="url(#z)"/><path d="M312.253 313.583a.9.9 0 0 0 .706.879.889.889 0 0 0 1.005-.51l71.955-158.781a.895.895 0 0 0-1.627-.739l-71.955 158.781a.91.91 0 0 0-.084.37Z" fill="url(#A)"/><path d="M312.253 313.582a.886.886 0 0 0 .596.841c.223.08.469.069.684-.031a.9.9 0 0 0 .461-.506l58.562-164.193a.893.893 0 1 0-1.687-.596l-58.562 164.187a.872.872 0 0 0-.054.298Z" fill="url(#B)"/><path d="M312.253 313.583a.899.899 0 0 0 .777.89.898.898 0 0 0 .982-.658l44.769-168.479a.888.888 0 0 0-.091-.678.879.879 0 0 0-.544-.415.888.888 0 0 0-.94.321.898.898 0 0 0-.154.313l-44.769 168.479c-.018.074-.028.15-.03.227Z" fill="url(#C)"/><path d="M312.254 313.582a.894.894 0 0 0 .813.975.902.902 0 0 0 .975-.814l30.666-171.608a.882.882 0 0 0-.127-.69.887.887 0 0 0-.587-.386.9.9 0 0 0-.926.422.904.904 0 0 0-.118.338l-30.679 171.608a.736.736 0 0 0-.017.155Z" fill="url(#D)"/><path d="M312.254 313.582a.894.894 0 1 0 1.788.083l16.349-173.551a.878.878 0 0 0-.201-.657.894.894 0 0 0-.955-.288.888.888 0 0 0-.531.437.898.898 0 0 0-.101.335l-16.344 173.533a.435.435 0 0 0-.005.108Z" fill="url(#E)"/><path d="M312.253 313.582a.898.898 0 0 0 .894.895.898.898 0 0 0 .895-.895l1.931-174.314a.893.893 0 1 0-1.788 0l-1.932 174.314Z" fill="url(#F)"/><path d="M299.749 139.71v.065l12.517 173.873a.888.888 0 0 0 .308.613.893.893 0 0 0 1.264-.092.897.897 0 0 0 .216-.652l-12.517-173.873a.893.893 0 0 0-.927-.861.897.897 0 0 0-.861.927Z" fill="url(#G)"/><path d="M285.395 141.342a.524.524 0 0 0 0 .137l26.858 172.258a.901.901 0 0 0 1.031.757.901.901 0 0 0 .757-1.031l-26.87-172.246a.898.898 0 0 0-1.575-.515.9.9 0 0 0-.213.652l.012-.012Z" fill="url(#H)"/><path d="M271.227 144.156a.904.904 0 0 0 0 .208l41.026 169.433a.893.893 0 0 0 1.082.658.894.894 0 0 0 .659-1.081l-41.003-169.427a.898.898 0 0 0-1.6-.454.904.904 0 0 0-.188.663h.024Z" fill="url(#I)"/><path d="M257.34 148.131a.922.922 0 0 0 .048.286l54.913 165.445a.907.907 0 0 0 .447.519.897.897 0 0 0 1.295-.733.904.904 0 0 0-.043-.346l-54.914-165.451a.89.89 0 0 0-.994-.613.895.895 0 0 0-.752.893Z" fill="url(#J)"/><path d="M243.833 153.252a.916.916 0 0 0 .072.346l68.42 160.336a.895.895 0 0 0 1.645-.703l-68.42-160.337a.89.89 0 0 0-1.516-.214.898.898 0 0 0-.201.566v.006Z" fill="url(#K)"/><path d="M230.792 159.462c0 .146.037.289.107.417l81.462 154.12a.906.906 0 0 0 .526.466.893.893 0 0 0 1.054-1.3l-81.462-154.12a.893.893 0 0 0-1.192-.37.884.884 0 0 0-.495.787Z" fill="url(#L)"/><path d="M218.316 166.734a.887.887 0 0 0 .138.483l93.943 146.854a.88.88 0 0 0 .562.392.891.891 0 0 0 1.066-.683.891.891 0 0 0-.12-.674l-93.943-146.854a.895.895 0 0 0-1.646.482Z" fill="url(#M)"/><path d="M206.479 175.02a.874.874 0 0 0 .185.542l105.774 138.563a.898.898 0 0 0 .956.361.888.888 0 0 0 .56-.429.88.88 0 0 0 .076-.701.912.912 0 0 0-.173-.316L208.082 174.477a.887.887 0 0 0-.995-.302.887.887 0 0 0-.608.845Z" fill="url(#N)"/><path d="M195.369 184.252a.871.871 0 0 0 .232.596L312.486 314.19a.895.895 0 0 0 1.329-1.192L196.93 183.656a.893.893 0 0 0-1.561.596Z" fill="url(#O)"/><path d="M185.063 194.372a.875.875 0 0 0 .287.65l127.19 119.21a.9.9 0 0 0 .643.248.885.885 0 0 0 .629-.282.892.892 0 0 0-.05-1.272L186.571 193.717a.898.898 0 0 0-1.508.655Z" fill="url(#P)"/><path d="M175.634 205.311a.871.871 0 0 0 .34.697l136.62 108.278a.893.893 0 1 0 1.108-1.401l-136.62-108.278a.903.903 0 0 0-1.257.149.87.87 0 0 0-.191.555Z" fill="url(#Q)"/><path d="M167.14 216.993a.9.9 0 0 0 .393.745l145.126 96.589a.893.893 0 1 0 .989-1.49l-145.12-96.589a.894.894 0 0 0-1.388.745Z" fill="url(#R)"/><path d="M159.642 229.337a.882.882 0 0 0 .459.781l152.618 84.251a.89.89 0 0 0 .99-.085.893.893 0 0 0-.126-1.483l-152.588-84.245a.894.894 0 0 0-1.192.352.844.844 0 0 0-.161.429Z" fill="url(#S)"/><path d="M153.187 242.259a.889.889 0 0 0 .53.817l159.067 71.323a.898.898 0 0 0 1.183-.45.89.89 0 0 0-.45-1.183L154.45 241.448a.895.895 0 0 0-1.192.448.982.982 0 0 0-.071.363Z" fill="url(#T)"/><path d="M147.828 255.659a.881.881 0 0 0 .596.84l164.425 57.93a.903.903 0 0 0 .684-.036.913.913 0 0 0 .28-.209.903.903 0 0 0 .141-.984.867.867 0 0 0-.209-.279.88.88 0 0 0-.3-.179L149.02 254.83a.894.894 0 0 0-1.139.549.858.858 0 0 0-.053.28Z" fill="url(#U)"/><path d="M143.603 269.487a.877.877 0 0 0 .667.864l168.682 44.108a.907.907 0 0 0 .695-.076.89.89 0 0 0 .428-.554.89.89 0 0 0-.345-.953.885.885 0 0 0-.325-.146l-168.652-44.107a.898.898 0 0 0-1.097.637 1.027 1.027 0 0 0-.053.227Z" fill="url(#V)"/><path d="M140.527 283.601a.9.9 0 0 0 .745.882l171.721 29.981a.917.917 0 0 0 .678-.152.92.92 0 0 0 .371-.587.897.897 0 0 0-.152-.678.897.897 0 0 0-.587-.371l-171.709-29.958a.892.892 0 0 0-1.031.728.685.685 0 0 0-.036.155Z" fill="url(#W)"/><path d="M138.613 297.924a.895.895 0 0 0 .811.888l173.623 15.665a.899.899 0 0 0 .161-1.789L139.609 297.03a.9.9 0 0 0-.972.811l-.024.083Z" fill="url(#X)"/><path d="M137.934 312.349a.897.897 0 0 0 .888.894l174.32 1.233a.878.878 0 0 0 .635-.255.88.88 0 0 0 .265-.633.897.897 0 0 0-.888-.894l-174.32-1.234a.889.889 0 0 0-.83.547.872.872 0 0 0-.07.342Z" fill="url(#Y)"/><path d="M138.428 326.785v.065a.902.902 0 0 0 .308.612.892.892 0 0 0 .652.211l173.825-13.197a.896.896 0 1 0-.137-1.788l-173.819 13.203a.891.891 0 0 0-.829.894Z" fill="url(#Z)"/><path d="M140.121 341.125a1.153 1.153 0 0 0 0 .144.895.895 0 0 0 1.025.745l172.133-27.55a.904.904 0 0 0 .388-1.627.905.905 0 0 0-.674-.161l-172.121 27.573a.885.885 0 0 0-.751.876Z" fill="url(#aa)"/><path d="M142.994 355.288a.904.904 0 0 0 0 .208.886.886 0 0 0 .406.554.903.903 0 0 0 .679.102l169.277-41.723a.906.906 0 0 0 .702-.734.896.896 0 0 0-1.131-1.001L143.65 354.417a.893.893 0 0 0-.656.871Z" fill="url(#ab)"/><path d="M147.024 369.158a.9.9 0 0 0 1.18.846l165.23-55.575a.89.89 0 0 0 .512-.459.884.884 0 0 0 .086-.339.889.889 0 0 0-.508-.858.904.904 0 0 0-.686-.037l-165.206 55.575a.9.9 0 0 0-.608.847Z" fill="url(#ac)"/><path d="M152.191 382.617c0 .121.026.241.077.351a.891.891 0 0 0 1.193.465l160.044-69.028a.897.897 0 0 0-.024-1.655.894.894 0 0 0-.685.01l-160.063 69.064a.887.887 0 0 0-.542.793Z" fill="url(#ad)"/><path d="M158.462 395.658a.904.904 0 0 0 .101.424.899.899 0 0 0 1.192.363l153.781-82.07a.892.892 0 0 0 .369-1.21.892.892 0 0 0-1.21-.369l-153.78 82.076a.892.892 0 0 0-.453.786Z" fill="url(#ae)"/><path d="M165.781 408.11a.907.907 0 0 0 .478.769c.141.074.299.11.458.104a.911.911 0 0 0 .447-.14l146.473-94.51a.889.889 0 0 0 .265-1.236.894.894 0 0 0-1.237-.266l-146.472 94.528a.884.884 0 0 0-.412.751Z" fill="url(#af)"/><path d="M174.114 419.911a.89.89 0 0 0 1.436.71l138.146-106.329a.897.897 0 0 0 .164-1.255.897.897 0 0 0-1.255-.164L174.459 419.202a.897.897 0 0 0-.345.709Z" fill="url(#ag)"/><path d="M183.388 430.98a.9.9 0 0 0 .533.818.893.893 0 0 0 .963-.156L313.75 314.22a.893.893 0 0 0-1.192-1.323L183.68 430.301a.885.885 0 0 0-.292.679Z" fill="url(#ah)"/><path d="M193.551 441.25a.886.886 0 0 0 .286.65.894.894 0 0 0 1.264-.042L313.803 314.19a.891.891 0 0 0 .026-1.345.89.89 0 0 0-1.061-.105.873.873 0 0 0-.276.258L193.789 440.636a.894.894 0 0 0-.238.614Z" fill="url(#ai)"/><path d="M204.524 450.638a.9.9 0 0 0 .601.847.898.898 0 0 0 .996-.293l107.73-137.055a.899.899 0 0 0 .202-.667.903.903 0 0 0-.337-.609.898.898 0 0 0-1.272.173L204.715 450.083a.914.914 0 0 0-.191.555Z" fill="url(#aj)"/><path d="M216.243 459.083a.895.895 0 0 0 1.639.495l96.011-145.507a.89.89 0 0 0 .163-.688.907.907 0 0 0-.133-.336.91.91 0 0 0-.59-.389.896.896 0 0 0-.93.429l-96.011 145.507a.864.864 0 0 0-.149.489Z" fill="url(#ak)"/><path d="M228.617 466.534a.894.894 0 0 0 1.681.429l83.637-152.952a.89.89 0 0 0-.368-1.187.891.891 0 0 0-1.2.329L228.73 466.105a.873.873 0 0 0-.113.429Z" fill="url(#al)"/><path d="M241.568 472.93a.892.892 0 0 0 .709.874.89.89 0 0 0 1.002-.511l70.685-159.347a.891.891 0 0 0-.46-1.163.894.894 0 0 0-1.173.436l-70.685 159.353a.871.871 0 0 0-.078.358Z" fill="url(#am)"/><path d="M255.004 478.24a.895.895 0 0 0 1.344.76.891.891 0 0 0 .39-.467l57.256-164.659a.894.894 0 0 0-1.686-.596l-57.257 164.664a.865.865 0 0 0-.047.298Z" fill="url(#an)"/><path d="M268.832 482.413a.892.892 0 0 0 .782.879.896.896 0 0 0 .976-.658l43.428-168.825a.897.897 0 0 0-1.735-.447l-43.428 168.83a.97.97 0 0 0-.023.221Z" fill="url(#ao)"/><path d="M282.958 485.429a.895.895 0 0 0 1.473.759.897.897 0 0 0 .315-.61l29.284-171.847a.917.917 0 0 0-.415-.918.913.913 0 0 0-.684-.114.898.898 0 0 0-.69.734L282.97 485.28a.62.62 0 0 0-.012.149Z" fill="url(#ap)"/><path d="M297.281 487.265a.892.892 0 0 0 .855.933.898.898 0 0 0 .933-.856l14.972-173.682a.9.9 0 0 0-1.471-.764.9.9 0 0 0-.317.609l-14.966 173.682s-.006.054-.006.078Z" fill="url(#aq)"/><path d="M311.711 487.908a.891.891 0 0 0 .894.894.891.891 0 0 0 .894-.894l.542-174.32a.896.896 0 0 0-.894-.894.893.893 0 0 0-.894.894l-.542 174.32Z" fill="url(#ar)"/><path d="M312.254 313.582a.281.281 0 0 0 0 .071l13.888 173.772a.893.893 0 0 0 .618.782.901.901 0 0 0 1.17-.925L314.042 313.51a.896.896 0 0 0-1.788.072Z" fill="url(#as)"/><path d="M312.254 313.582a1.137 1.137 0 0 0 0 .143l28.247 172.007a.903.903 0 0 0 1.627.388.904.904 0 0 0 .161-.674L314.03 313.439a.896.896 0 1 0-1.788.143h.012Z" fill="url(#at)"/><path d="M312.253 313.582c.002.075.012.149.03.221l42.373 169.092a.892.892 0 0 0 1.635.242.9.9 0 0 0 .1-.677l-42.373-169.092a.894.894 0 0 0-.338-.601.9.9 0 0 0-1.45.815h.023Z" fill="url(#au)"/><path d="M312.253 313.582c.002.099.018.198.048.292l56.231 165.004a.898.898 0 0 0 1.693-.596l-56.231-164.986a.894.894 0 0 0-1.741.286Z" fill="url(#av)"/><path d="M312.253 313.583c0 .123.026.245.078.357l69.696 159.789a.888.888 0 0 0 .493.474.895.895 0 0 0 1.146-1.19L313.97 313.225a.893.893 0 0 0-1.717.358Z" fill="url(#aw)"/><path d="M312.253 313.582a.908.908 0 0 0 .108.424l82.689 153.47a.899.899 0 0 0 .885.498.893.893 0 0 0 .689-1.345l-82.69-153.47a.896.896 0 0 0-1.005-.442.891.891 0 0 0-.676.865Z" fill="url(#ax)"/></g><g filter="url(#ay)"><path d="M399.927 226.803c47.93 47.93 47.93 125.64 0 173.57-47.93 47.93-125.64 47.93-173.57 0-47.929-47.93-47.929-125.64 0-173.57 47.93-47.929 125.64-47.929 173.57 0Z" fill="#1E1D2B"/></g><path d="M189.515 313.588c0 68.17 55.433 123.626 123.626 123.626 68.194 0 123.627-55.432 123.627-123.626s-55.433-123.626-123.627-123.626c-68.193 0-123.626 55.456-123.626 123.626Zm245.464 0c0 67.181-54.657 121.838-121.838 121.838-67.18 0-121.838-54.657-121.838-121.838 0-67.18 54.658-121.838 121.838-121.838 67.181 0 121.838 54.658 121.838 121.838Z" fill="url(#az)"/><path d="M102.308 314.983a213.263 213.263 0 0 0 170.917 208.875A213.26 213.26 0 0 0 511.96 397.971a213.258 213.258 0 0 0-113.693-278.884 213.26 213.26 0 0 0-279.204 112.902 211.91 211.91 0 0 0-16.755 82.994Zm424.618 0a211.41 211.41 0 0 1-252.65 207.341 211.418 211.418 0 0 1-108.245-57.852 211.416 211.416 0 0 1-46.757-230.939 211.397 211.397 0 0 1 45.937-68.853 211.397 211.397 0 0 1 150.064-61.924 211.4 211.4 0 0 1 149.728 62.732 210.008 210.008 0 0 1 61.923 149.495Z" fill="url(#aA)"/><path d="M355.259 271.471c23.261 23.261 23.261 60.974 0 84.235-23.26 23.26-60.974 23.26-84.234 0-23.261-23.261-23.261-60.974 0-84.235 23.26-23.261 60.974-23.261 84.234 0Z" fill="#1E1D2B"/><path d="M252.684 313.589a60.458 60.458 0 1 0 60.457-60.457 60.52 60.52 0 0 0-60.457 60.457Zm119.126 0a58.678 58.678 0 0 1-9.887 32.595 58.673 58.673 0 0 1-90.267 8.89 58.664 58.664 0 0 1-12.718-63.937 58.676 58.676 0 0 1 21.608-26.33 58.678 58.678 0 0 1 32.595-9.887 58.732 58.732 0 0 1 58.669 58.669Z" fill="url(#aB)"/><path d="M104.567 511.489c1.609-7.415 5.644-25.952 5.644-25.952l5.681 26.131 25.302 5.501-25.421 5.519-5.562 25.595-5.525-25.41-26.226-5.704 26.107-5.68Z" fill="#1E1D2B"/><path d="m74.24 517.168 29.695 6.462 6.276 28.86 6.312-29.039 28.879-6.283-28.759-6.252-6.432-29.588-6.395 29.409-29.576 6.431Zm35.971 26.906-4.774-21.982-22.781-4.924 22.65-4.923 4.893-22.501 4.93 22.65 21.851 4.769-21.971 4.768-4.798 22.143Z" fill="url(#aC)"/><path d="M102.784 516.799c-3.833-5.961-13.4-20.862-13.4-20.862l20.988 13.513 20.319-13.066-13.113 20.415 13.196 20.546-20.402-13.114-21.07 13.543 13.482-20.975Z" fill="#1E1D2B"/><path d="m86.321 540.754 24.051-15.461 23.377 15.032-15.122-23.526 15.038-23.389-23.293 14.973-23.967-15.402 15.312 23.842-15.396 23.931Zm41.479-6.383-17.428-11.2L92.276 534.8l11.569-18.001-11.486-17.881 18.013 11.593 17.345-11.152-11.212 17.44 11.295 17.572Z" fill="url(#aD)"/><path d="m511.691 101.604 4.768-22.71 4.769 22.71 11.235-7.337-7.337 11.235 22.709 4.769-22.709 4.768 7.337 11.229-11.235-7.331-4.769 22.709-4.768-22.709-11.229 7.331 7.331-11.229-22.71-4.768 22.71-4.769-7.331-11.235 11.229 7.337Z" fill="#1E1D2B"/><path d="m480.744 110.271 25.588 5.365-8.94 13.709 13.709-8.941 5.364 25.588 5.365-25.588 13.709 8.941-8.941-13.709 25.594-5.365-25.594-5.364 8.941-13.71-13.709 8.942-5.365-25.595-5.364 25.595-13.709-8.941 8.94 13.709-25.588 5.364Zm28.515 4.173-19.819-4.173 19.819-4.172-5.716-8.762 8.762 5.722 4.172-19.818 4.173 19.818 8.767-5.722-5.722 8.762 19.819 4.172-19.819 4.173 5.722 8.762-8.767-5.717-4.173 19.819-4.172-19.819-8.762 5.717 5.716-8.762Z" fill="url(#aE)"/><path d="m292.322 347.879-29.307 16.803 26.637-26.638 2.67 9.835Zm-30.268 15.837 16.797-29.308 9.835 2.67-26.632 26.638Zm74.578-25.672 26.637 26.632-29.308-16.797 2.671-9.835Zm-30.834 3.678 6.664 1.806v73.391l-18.555-68.378 11.891-6.819Zm-16.767-5.961-9.483-2.574 5.961-10.401 3.522 12.975Zm31.455 5.961 11.891 6.819-18.555 68.378v-73.391l6.664-1.806Zm-5.699-27.454h20.319l-7.403 12.922-12.916-12.922Zm-36.598 18.555-68.378-18.555h73.391l1.806 6.664-6.819 11.891Zm59.271-18.556h4.214l-1.359 4.989-2.855-4.989Zm-52.851 0h4.214l-2.861 4.989-1.353-4.989Zm6.568.001h20.32L298.58 327.19l-7.403-12.922Zm48.638 6.849-3.88 14.299-7.236-7.23 7.581-13.226 3.535 6.157Zm7.617 13.291 16.797 29.308-26.631-26.638 9.834-2.67Zm-56.463 3.291 12.976 3.522-10.401 5.961-2.575-9.483Zm22.853.208 4.989 2.861-4.989 1.353v-4.214Zm8.516 3.314 12.976-3.522-2.575 9.483-10.401-5.961Zm18.436-18.435 5.961 10.401-9.484 2.574 3.523-12.975Zm-13.035 6.359 7.23 7.236-14.299 3.88-6.157-3.534 13.226-7.582Zm13.536-8.213 1.806-6.664h73.392l-68.379 18.555-6.819-11.891Zm-14.531 7.218-12.922 7.403v-20.32l12.922 12.917Zm-28.2.995 13.226 7.582-6.157 3.534-14.3-3.88 7.231-7.236Zm-8.541-14.185 7.576 13.226-7.23 7.23-3.881-14.299 3.535-6.157Zm22.459 20.593-12.922-7.403 12.922-12.917v20.32Zm-4.989 5.215 4.989-2.861v4.214l-4.989-1.353Zm4.023-27.859h-20.325l7.409-12.922 12.916 12.922Zm-22.673 0h-4.214l1.353-4.989 2.861 4.989Zm-3.314-8.518-5.961-10.401 9.483-2.575-3.522 12.976Zm62.585-10.037 68.379 18.555h-73.392l-1.806-6.658 6.819-11.897Zm-14.133-15.057 29.308-16.796-26.637 26.631-2.671-9.835Zm1.145 33.612h-20.319l12.916-12.922 7.403 12.922Zm-51.904 0h-73.391l68.378-18.555 6.819 11.897-1.806 6.658Zm-4.351-20.141-16.797-29.307 26.632 26.637-9.835 2.67Zm41.635-7.313-6.664-1.806v-73.392l18.555 68.379-11.891 6.819Zm-30.834 3.677-26.637-26.631 29.307 16.796-2.67 9.835Zm16.146-3.677-11.891-6.819 18.555-68.379v73.392l-6.664 1.806Zm35.876 27.454h-4.214l2.855-4.989 1.359 4.989Zm-55.206-6.848 3.881-14.3 7.23 7.23-7.576 13.227-3.535-6.157Zm13.072-7.034 12.922-7.403v20.319l-12.922-12.916Zm21.13-12.112 14.299 3.88-7.23 7.236-13.226-7.582 6.157-3.534Zm-6.848 4.709 12.922 7.403-12.922 12.916v-20.319Zm22.458 20.594-7.581-13.227 7.236-7.23 3.88 14.3-3.535 6.157Zm.971-20.803 9.484 2.575-5.967 10.401-3.517-12.976Zm-18.44-5.001-4.989 2.855v-4.214l4.989 1.359Zm45.418-22.953-16.797 29.307-9.834-2.67 26.631-26.637Zm-28.915 26.017-12.976-3.516 10.401-5.967 2.575 9.483Zm-29.701-2.563 6.157 3.534-13.226 7.582-7.231-7.236 14.3-3.88Zm-1.668-.953-12.976 3.516 2.575-9.483 10.401 5.967Zm8.517 3.307-4.989-2.855 4.989-1.359v4.214Z" fill="#1E1D2B"/><path d="m313.797 204.995 19.801 72.968 33.426-19.163a.681.681 0 0 1 .93.93l-19.163 33.426 72.944 19.777a.678.678 0 0 1 0 1.311l-72.944 19.801 19.163 33.426a.681.681 0 0 1-.93.93l-33.426-19.163-19.801 72.968a.684.684 0 0 1-.243.362.685.685 0 0 1-.825 0 .678.678 0 0 1-.243-.362l-19.801-72.968-33.426 19.163a.68.68 0 0 1-.436.104.683.683 0 0 1-.405-.193.7.7 0 0 1-.113-.823l19.187-33.444-72.968-19.801a.678.678 0 0 1 0-1.311l72.968-19.801-19.163-33.426a.693.693 0 0 1 .113-.823.689.689 0 0 1 .817-.107l33.426 19.163 19.801-72.944a.678.678 0 0 1 1.311 0Zm32.937 128.215-5.96-10.401-3.523 12.976 9.483-2.575Zm-24.396 8.035 10.401 5.961 2.569-9.507-12.97 3.546Zm12.631-4.84-7.231-7.26-13.226 7.576 6.157 3.529 14.3-3.845Zm-16.159 4.381-4.959-2.873v4.214l4.959-1.341Zm-6.348-2.873-4.989 2.861 4.989 1.353v-4.214Zm-21.494-.208 2.575 9.483 10.401-5.961-12.976-3.522Zm14.645 2.563 6.157-3.547-13.226-7.588-7.23 7.236 14.299 3.899Zm-8.029-12.076-7.575-13.233-3.529 6.158 3.88 14.305 7.224-7.23Zm14.902 7.367V315.24l-12.941 12.91 12.941 7.409Zm1.359 0 12.922-7.403-12.916-12.922-.006 20.325Zm14.901-7.367 7.236 7.236 3.88-14.305-3.535-6.158-7.581 13.227Zm18.734 6.222-9.835 2.671 26.631 26.637-16.796-29.308Zm15.837 30.268-26.638-26.632-2.67 9.835 29.308 16.797Zm-30.894-16.135-11.891-6.819-6.664 1.788v73.403l18.555-68.372Zm-19.961 68.372v-73.391l-6.664-1.788-11.891 6.819 18.555 68.36Zm-20.141-69.04-2.67-9.835-26.637 26.638 29.307-16.803Zm-30.273 15.837 26.637-26.637-9.834-2.671-16.803 29.308Zm26.983-27.955-3.522-12.976-5.961 10.402 9.483 2.574Zm-79.221-21.493 68.379 18.555 6.819-11.891-1.788-6.664h-73.41Zm74.798 0 1.359 4.989 2.856-4.989h-4.215Zm6.557 0 7.415 12.916 12.916-12.922-20.331.006Zm23.609 0 12.929 12.916 7.403-12.922-20.332.006Zm22.65 0 2.855 4.989 1.359-4.989h-4.214Zm5.621 0-1.788 6.664 6.819 11.891 68.378-18.555h-73.409Zm-9.12-34.97 2.671 9.835 26.637-26.632-29.308 16.797Zm-5.263 19.669 7.582 13.227 3.535-6.157-3.881-14.306-7.236 7.236Zm6.271-8.195-14.305-3.88-6.158 3.528 13.227 7.588 7.236-7.236Zm-21.082.852v20.319l12.922-12.916-12.922-7.403Zm-1.359 0-12.947 7.403 12.923 12.916.024-20.319Zm-14.902 7.367-7.236-7.23-3.88 14.305 3.535 6.152 7.581-13.227Zm.96-.959 13.226-7.588-6.157-3.529-14.305 3.881 7.236 7.236Zm5.4-12.07-10.401-5.961-2.575 9.483 12.976-3.522Zm3.529.453 4.989 2.855v-4.214l-4.989 1.359Zm6.372 2.855 4.988-2.855-4.988-1.359v4.214Zm21.493.208-2.575-9.483-10.401 5.961 12.976 3.522Zm28.914-26.017-26.631 26.637 9.835 2.671 16.796-29.308Zm-27.007 27.96 3.517 12.976 5.961-10.401-9.478-2.575Zm79.221 21.458-68.379-18.525-6.818 11.921 1.782 6.604h73.415Zm-74.798 0-1.359-4.989-2.855 4.989h4.214Zm-6.556 0-7.403-12.922-12.929 12.922h20.332Zm-23.61 0-12.916-12.922-7.391 12.922h20.307Zm-22.65 0-2.855-4.989-1.395 4.989h4.25Zm-79.012 0h73.356l1.788-6.658-6.819-11.921-68.325 18.579Zm69.738-18.918 5.96 10.401 3.487-12.941-9.447 2.54Zm-.698-1.222 9.835-2.671-26.637-26.637 16.802 29.308Zm-15.837-30.268 26.638 26.632 2.67-9.835-29.308-16.797Zm30.894 16.135 11.855 6.855 6.664-1.788v-73.415l-18.519 68.348Zm19.908 5.067 6.663 1.788 11.892-6.819-18.555-68.384v73.415Z" fill="url(#aF)"/><defs><linearGradient id="a" x1="-308121" y1="-94077.6" x2="-295505" y2="-86559" gradientUnits="userSpaceOnUse"><stop stop-color="#A36D4F"/><stop offset="1" stop-color="#fff"/></linearGradient><linearGradient id="b" x1="-347103" y1="-88949.9" x2="-334297" y2="-79860.2" gradientUnits="userSpaceOnUse"><stop stop-color="#A36D4F"/><stop offset="1" stop-color="#fff"/></linearGradient><linearGradient id="c" x1="-383422" y1="-83122.1" x2="-370936" y2="-72649" gradientUnits="userSpaceOnUse"><stop stop-color="#A36D4F"/><stop offset="1" stop-color="#fff"/></linearGradient><linearGradient id="d" x1="-417303" y1="-76789.4" x2="-405587" y2="-65215.8" gradientUnits="userSpaceOnUse"><stop stop-color="#A36D4F"/><stop offset="1" stop-color="#fff"/></linearGradient><linearGradient id="e" x1="-448482" y1="-69945" x2="-437928" y2="-57650.1" gradientUnits="userSpaceOnUse"><stop stop-color="#A36D4F"/><stop offset="1" stop-color="#fff"/></linearGradient><linearGradient id="f" x1="-476486" y1="-62598.3" x2="-467405" y2="-50046.9" gradientUnits="userSpaceOnUse"><stop stop-color="#A36D4F"/><stop offset="1" stop-color="#fff"/></linearGradient><linearGradient id="g" x1="-501136" y1="-54816.8" x2="-493728" y2="-42527" gradientUnits="userSpaceOnUse"><stop stop-color="#A36D4F"/><stop offset="1" stop-color="#fff"/></linearGradient><linearGradient id="h" x1="-522521" y1="-46686.2" x2="-516857" y2="-35193.6" gradientUnits="userSpaceOnUse"><stop stop-color="#A36D4F"/><stop offset="1" stop-color="#fff"/></linearGradient><linearGradient id="i" x1="-540138" y1="-38220.7" x2="-536166" y2="-28061.7" gradientUnits="userSpaceOnUse"><stop stop-color="#A36D4F"/><stop offset="1" stop-color="#fff"/></linearGradient><linearGradient id="j" x1="-554678" y1="-29538.7" x2="-552216" y2="-21191.8" gradientUnits="userSpaceOnUse"><stop stop-color="#A36D4F"/><stop offset="1" stop-color="#fff"/></linearGradient><linearGradient id="k" x1="-564947" y1="-20626" x2="-563706" y2="-14514.1" gradientUnits="userSpaceOnUse"><stop stop-color="#A36D4F"/><stop offset="1" stop-color="#fff"/></linearGradient><linearGradient id="l" x1="-571440" y1="-11586.6" x2="-571033" y2="-8016.48" gradientUnits="userSpaceOnUse"><stop stop-color="#A36D4F"/><stop offset="1" stop-color="#fff"/></linearGradient><linearGradient id="m" x1="-574089" y1="-2474.49" x2="-574067" y2="-1627.97" gradientUnits="userSpaceOnUse"><stop stop-color="#A36D4F"/><stop offset="1" stop-color="#fff"/></linearGradient><linearGradient id="n" x1="-572839" y1="-8296.02" x2="-572626" y2="-5700.68" gradientUnits="userSpaceOnUse"><stop stop-color="#A36D4F"/><stop offset="1" stop-color="#fff"/></linearGradient><linearGradient id="o" x1="-567742" y1="-17397.5" x2="-566851" y2="-12174.9" gradientUnits="userSpaceOnUse"><stop stop-color="#A36D4F"/><stop offset="1" stop-color="#fff"/></linearGradient><linearGradient id="p" x1="-558694" y1="-26361.4" x2="-556714" y2="-18783.7" gradientUnits="userSpaceOnUse"><stop stop-color="#A36D4F"/><stop offset="1" stop-color="#fff"/></linearGradient><linearGradient id="q" x1="-545915" y1="-35146.6" x2="-542519" y2="-25592.5" gradientUnits="userSpaceOnUse"><stop stop-color="#A36D4F"/><stop offset="1" stop-color="#fff"/></linearGradient><linearGradient id="r" x1="-529505" y1="-43729" x2="-524466" y2="-32656.9" gradientUnits="userSpaceOnUse"><stop stop-color="#A36D4F"/><stop offset="1" stop-color="#fff"/></linearGradient><linearGradient id="s" x1="-509115" y1="-51959.6" x2="-502341" y2="-39901.8" gradientUnits="userSpaceOnUse"><stop stop-color="#A36D4F"/><stop offset="1" stop-color="#fff"/></linearGradient><linearGradient id="t" x1="-485761" y1="-59898.5" x2="-477273" y2="-47382.5" gradientUnits="userSpaceOnUse"><stop stop-color="#A36D4F"/><stop offset="1" stop-color="#fff"/></linearGradient><linearGradient id="u" x1="-458800" y1="-67398.7" x2="-448757" y2="-54959.8" gradientUnits="userSpaceOnUse"><stop stop-color="#A36D4F"/><stop offset="1" stop-color="#fff"/></linearGradient><linearGradient id="v" x1="-428917" y1="-74462.8" x2="-417584" y2="-62579.8" gradientUnits="userSpaceOnUse"><stop stop-color="#A36D4F"/><stop offset="1" stop-color="#fff"/></linearGradient><linearGradient id="w" x1="-395995" y1="-80990.3" x2="-383741" y2="-70080" gradientUnits="userSpaceOnUse"><stop stop-color="#A36D4F"/><stop offset="1" stop-color="#fff"/></linearGradient><linearGradient id="x" x1="-360471" y1="-87007.3" x2="-347729" y2="-77391.3" gradientUnits="userSpaceOnUse"><stop stop-color="#A36D4F"/><stop offset="1" stop-color="#fff"/></linearGradient><linearGradient id="y" x1="-322496" y1="-92432.3" x2="-309753" y2="-84330.7" gradientUnits="userSpaceOnUse"><stop stop-color="#A36D4F"/><stop offset="1" stop-color="#fff"/></linearGradient><linearGradient id="z" x1="-282273" y1="-97166.2" x2="-270040" y2="-90688.1" gradientUnits="userSpaceOnUse"><stop stop-color="#A36D4F"/><stop offset="1" stop-color="#fff"/></linearGradient><linearGradient id="A" x1="-240198" y1="-101292" x2="-228966" y2="-96435" gradientUnits="userSpaceOnUse"><stop stop-color="#A36D4F"/><stop offset="1" stop-color="#fff"/></linearGradient><linearGradient id="B" x1="-196552" y1="-104726" x2="-186784" y2="-101382" gradientUnits="userSpaceOnUse"><stop stop-color="#A36D4F"/><stop offset="1" stop-color="#fff"/></linearGradient><linearGradient id="C" x1="-151552" y1="-107443" x2="-143657" y2="-105410" gradientUnits="userSpaceOnUse"><stop stop-color="#A36D4F"/><stop offset="1" stop-color="#fff"/></linearGradient><linearGradient id="D" x1="-105633" y1="-109498" x2="-99937.5" y2="-108494" gradientUnits="userSpaceOnUse"><stop stop-color="#A36D4F"/><stop offset="1" stop-color="#fff"/></linearGradient><linearGradient id="E" x1="-58867.5" y1="-110684" x2="-55617.9" y2="-110367" gradientUnits="userSpaceOnUse"><stop stop-color="#A36D4F"/><stop offset="1" stop-color="#fff"/></linearGradient><linearGradient id="F" x1="-11819.7" y1="-111135" x2="-11147.4" y2="-111122" gradientUnits="userSpaceOnUse"><stop stop-color="#A36D4F"/><stop offset="1" stop-color="#fff"/></linearGradient><linearGradient id="G" x1="-46371.5" y1="-110879" x2="-43799.5" y2="-110681" gradientUnits="userSpaceOnUse"><stop stop-color="#A36D4F"/><stop offset="1" stop-color="#fff"/></linearGradient><linearGradient id="H" x1="-93235.5" y1="-109878" x2="-88173.2" y2="-109093" gradientUnits="userSpaceOnUse"><stop stop-color="#A36D4F"/><stop offset="1" stop-color="#fff"/></linearGradient><linearGradient id="I" x1="-139407" y1="-108115" x2="-132071" y2="-106388" gradientUnits="userSpaceOnUse"><stop stop-color="#A36D4F"/><stop offset="1" stop-color="#fff"/></linearGradient><linearGradient id="J" x1="-184707" y1="-105533" x2="-175403" y2="-102562" gradientUnits="userSpaceOnUse"><stop stop-color="#A36D4F"/><stop offset="1" stop-color="#fff"/></linearGradient><linearGradient id="K" x1="-228768" y1="-102290" x2="-217883" y2="-97852.5" gradientUnits="userSpaceOnUse"><stop stop-color="#A36D4F"/><stop offset="1" stop-color="#fff"/></linearGradient><linearGradient id="L" x1="-271389" y1="-98370.9" x2="-259370" y2="-92328.5" gradientUnits="userSpaceOnUse"><stop stop-color="#A36D4F"/><stop offset="1" stop-color="#fff"/></linearGradient><linearGradient id="M" x1="-312038" y1="-93755.9" x2="-299382" y2="-86082.2" gradientUnits="userSpaceOnUse"><stop stop-color="#A36D4F"/><stop offset="1" stop-color="#fff"/></linearGradient><linearGradient id="N" x1="-350738" y1="-88531" x2="-337945" y2="-79300.4" gradientUnits="userSpaceOnUse"><stop stop-color="#A36D4F"/><stop offset="1" stop-color="#fff"/></linearGradient><linearGradient id="O" x1="-386802" y1="-82651.6" x2="-374374" y2="-72061.7" gradientUnits="userSpaceOnUse"><stop stop-color="#A36D4F"/><stop offset="1" stop-color="#fff"/></linearGradient><linearGradient id="P" x1="-420562" y1="-76262.8" x2="-408943" y2="-64601.6" gradientUnits="userSpaceOnUse"><stop stop-color="#A36D4F"/><stop offset="1" stop-color="#fff"/></linearGradient><linearGradient id="Q" x1="-451395" y1="-69356.5" x2="-440973" y2="-57017.2" gradientUnits="userSpaceOnUse"><stop stop-color="#A36D4F"/><stop offset="1" stop-color="#fff"/></linearGradient><linearGradient id="R" x1="-479027" y1="-61946" x2="-470103" y2="-49400.1" gradientUnits="userSpaceOnUse"><stop stop-color="#A36D4F"/><stop offset="1" stop-color="#fff"/></linearGradient><linearGradient id="S" x1="-503485" y1="-54128.6" x2="-496244" y2="-41892.6" gradientUnits="userSpaceOnUse"><stop stop-color="#A36D4F"/><stop offset="1" stop-color="#fff"/></linearGradient><linearGradient id="T" x1="-524548" y1="-45955.5" x2="-519050" y2="-34568.4" gradientUnits="userSpaceOnUse"><stop stop-color="#A36D4F"/><stop offset="1" stop-color="#fff"/></linearGradient><linearGradient id="U" x1="-542020" y1="-37467.7" x2="-538202" y2="-27459.1" gradientUnits="userSpaceOnUse"><stop stop-color="#A36D4F"/><stop offset="1" stop-color="#fff"/></linearGradient><linearGradient id="V" x1="-556009" y1="-28736.4" x2="-553679" y2="-20587.1" gradientUnits="userSpaceOnUse"><stop stop-color="#A36D4F"/><stop offset="1" stop-color="#fff"/></linearGradient><linearGradient id="W" x1="-565886" y1="-19792.8" x2="-564743" y2="-13913.5" gradientUnits="userSpaceOnUse"><stop stop-color="#A36D4F"/><stop offset="1" stop-color="#fff"/></linearGradient><linearGradient id="X" x1="-572029" y1="-10731" x2="-571679" y2="-7416.24" gradientUnits="userSpaceOnUse"><stop stop-color="#A36D4F"/><stop offset="1" stop-color="#fff"/></linearGradient><linearGradient id="Y" x1="-574302" y1="-1594.31" x2="-574292" y2="-1015.27" gradientUnits="userSpaceOnUse"><stop stop-color="#A36D4F"/><stop offset="1" stop-color="#fff"/></linearGradient><linearGradient id="Z" x1="-572687" y1="-9159.25" x2="-572428" y2="-6303.86" gradientUnits="userSpaceOnUse"><stop stop-color="#A36D4F"/><stop offset="1" stop-color="#fff"/></linearGradient><linearGradient id="aa" x1="-567170" y1="-18239.1" x2="-566191" y2="-12776.2" gradientUnits="userSpaceOnUse"><stop stop-color="#A36D4F"/><stop offset="1" stop-color="#fff"/></linearGradient><linearGradient id="ab" x1="-557902" y1="-27185.9" x2="-555797" y2="-19396.8" gradientUnits="userSpaceOnUse"><stop stop-color="#A36D4F"/><stop offset="1" stop-color="#fff"/></linearGradient><linearGradient id="ac" x1="-544616" y1="-35933.7" x2="-541069" y2="-26211.2" gradientUnits="userSpaceOnUse"><stop stop-color="#A36D4F"/><stop offset="1" stop-color="#fff"/></linearGradient><linearGradient id="ad" x1="-527798" y1="-44441.5" x2="-522598" y2="-33255.7" gradientUnits="userSpaceOnUse"><stop stop-color="#A36D4F"/><stop offset="1" stop-color="#fff"/></linearGradient><linearGradient id="ae" x1="-507218" y1="-52671.5" x2="-500274" y2="-40543.9" gradientUnits="userSpaceOnUse"><stop stop-color="#A36D4F"/><stop offset="1" stop-color="#fff"/></linearGradient><linearGradient id="af" x1="-483451" y1="-60533.4" x2="-474807" y2="-48003.2" gradientUnits="userSpaceOnUse"><stop stop-color="#A36D4F"/><stop offset="1" stop-color="#fff"/></linearGradient><linearGradient id="ag" x1="-456264" y1="-68002.5" x2="-446082" y2="-55595.2" gradientUnits="userSpaceOnUse"><stop stop-color="#A36D4F"/><stop offset="1" stop-color="#fff"/></linearGradient><linearGradient id="ah" x1="-425817" y1="-74978.6" x2="-414381" y2="-63177.6" gradientUnits="userSpaceOnUse"><stop stop-color="#A36D4F"/><stop offset="1" stop-color="#fff"/></linearGradient><linearGradient id="ai" x1="-393093" y1="-81532.5" x2="-380763" y2="-70726.6" gradientUnits="userSpaceOnUse"><stop stop-color="#A36D4F"/><stop offset="1" stop-color="#fff"/></linearGradient><linearGradient id="aj" x1="-357080" y1="-87430.8" x2="-344316" y2="-77951.2" gradientUnits="userSpaceOnUse"><stop stop-color="#A36D4F"/><stop offset="1" stop-color="#fff"/></linearGradient><linearGradient id="ak" x1="-318881" y1="-92783.1" x2="-306163" y2="-84832.8" gradientUnits="userSpaceOnUse"><stop stop-color="#A36D4F"/><stop offset="1" stop-color="#fff"/></linearGradient><linearGradient id="al" x1="-278382" y1="-97449.3" x2="-266223" y2="-91129.6" gradientUnits="userSpaceOnUse"><stop stop-color="#A36D4F"/><stop offset="1" stop-color="#fff"/></linearGradient><linearGradient id="am" x1="-236132" y1="-101493" x2="-225021" y2="-96787.9" gradientUnits="userSpaceOnUse"><stop stop-color="#A36D4F"/><stop offset="1" stop-color="#fff"/></linearGradient><linearGradient id="an" x1="-192332" y1="-104855" x2="-182728" y2="-101648" gradientUnits="userSpaceOnUse"><stop stop-color="#A36D4F"/><stop offset="1" stop-color="#fff"/></linearGradient><linearGradient id="ao" x1="-147215" y1="-107490" x2="-139519" y2="-105569" gradientUnits="userSpaceOnUse"><stop stop-color="#A36D4F"/><stop offset="1" stop-color="#fff"/></linearGradient><linearGradient id="ap" x1="-101120" y1="-109458" x2="-95654" y2="-108538" gradientUnits="userSpaceOnUse"><stop stop-color="#A36D4F"/><stop offset="1" stop-color="#fff"/></linearGradient><linearGradient id="aq" x1="-54387.9" y1="-110589" x2="-51381" y2="-110318" gradientUnits="userSpaceOnUse"><stop stop-color="#A36D4F"/><stop offset="1" stop-color="#fff"/></linearGradient><linearGradient id="ar" x1="-7290.19" y1="-110965" x2="-6868.87" y2="-110959" gradientUnits="userSpaceOnUse"><stop stop-color="#A36D4F"/><stop offset="1" stop-color="#fff"/></linearGradient><linearGradient id="as" x1="-50837.3" y1="-110643" x2="-48021.9" y2="-110406" gradientUnits="userSpaceOnUse"><stop stop-color="#A36D4F"/><stop offset="1" stop-color="#fff"/></linearGradient><linearGradient id="at" x1="-97742.5" y1="-109557" x2="-92447.5" y2="-108696" gradientUnits="userSpaceOnUse"><stop stop-color="#A36D4F"/><stop offset="1" stop-color="#fff"/></linearGradient><linearGradient id="au" x1="-143844" y1="-107735" x2="-136300" y2="-105900" gradientUnits="userSpaceOnUse"><stop stop-color="#A36D4F"/><stop offset="1" stop-color="#fff"/></linearGradient><linearGradient id="av" x1="-188949" y1="-105075" x2="-179474" y2="-101972" gradientUnits="userSpaceOnUse"><stop stop-color="#A36D4F"/><stop offset="1" stop-color="#fff"/></linearGradient><linearGradient id="aw" x1="-232869" y1="-101787" x2="-221854" y2="-97199.3" gradientUnits="userSpaceOnUse"><stop stop-color="#A36D4F"/><stop offset="1" stop-color="#fff"/></linearGradient><linearGradient id="ax" x1="-275297" y1="-97808.9" x2="-263195" y2="-91609.6" gradientUnits="userSpaceOnUse"><stop stop-color="#A36D4F"/><stop offset="1" stop-color="#fff"/></linearGradient><linearGradient id="az" x1="313.141" y1="437.214" x2="313.141" y2="189.962" gradientUnits="userSpaceOnUse"><stop stop-color="#AB8D60"/><stop offset=".07" stop-color="#B29466"/><stop offset=".51" stop-color="#DBC087"/><stop offset="1" stop-color="#AB8D60"/></linearGradient><linearGradient id="aA" x1="500.2" y1="208.35" x2="130.829" y2="421.604" gradientUnits="userSpaceOnUse"><stop stop-color="#666"/><stop offset=".28" stop-color="#A0A0A0"/><stop offset=".51" stop-color="#CCC"/><stop offset="1" stop-color="#666"/></linearGradient><linearGradient id="aB" x1="-102355" y1="-186955" x2="-77826.5" y2="-186955" gradientUnits="userSpaceOnUse"><stop stop-color="#AB8D60"/><stop offset=".07" stop-color="#B29466"/><stop offset=".51" stop-color="#DBC087"/><stop offset="1" stop-color="#AB8D60"/></linearGradient><linearGradient id="aC" x1="-81618.4" y1="-133971" x2="-73121.7" y2="-133971" gradientUnits="userSpaceOnUse"><stop stop-color="#666"/><stop offset=".28" stop-color="#A0A0A0"/><stop offset=".51" stop-color="#CCC"/><stop offset="1" stop-color="#666"/></linearGradient><linearGradient id="aD" x1="-53425.2" y1="-89751.6" x2="-49624.3" y2="-89751.6" gradientUnits="userSpaceOnUse"><stop stop-color="#666"/><stop offset=".28" stop-color="#A0A0A0"/><stop offset=".51" stop-color="#CCC"/><stop offset="1" stop-color="#666"/></linearGradient><linearGradient id="aE" x1="-32813.4" y1="-86174.1" x2="-24248.9" y2="-86174.1" gradientUnits="userSpaceOnUse"><stop stop-color="#AB8D60"/><stop offset=".07" stop-color="#B29466"/><stop offset=".51" stop-color="#DBC087"/><stop offset="1" stop-color="#AB8D60"/></linearGradient><linearGradient id="aF" x1="204.017" y1="313.588" x2="422.266" y2="313.588" gradientUnits="userSpaceOnUse"><stop stop-color="#999"/><stop offset=".07" stop-color="#A0A0A0"/><stop offset=".51" stop-color="#CCC"/><stop offset="1" stop-color="#999"/></linearGradient><filter id="ay" x=".41" y=".856" width="625.464" height="625.464" filterUnits="userSpaceOnUse" color-interpolation-filters="sRGB"><feFlood flood-opacity="0" result="BackgroundImageFix"/><feColorMatrix in="SourceAlpha" values="0 0 0 0 0 0 0 0 0 0 0 0 0 0 0 0 0 0 127 0" result="hardAlpha"/><feOffset/><feGaussianBlur stdDeviation="95"/><feComposite in2="hardAlpha" operator="out"/><feColorMatrix values="0 0 0 0 0 0 0 0 0 0.52 0 0 0 0 1 0 0 0 0.6 0"/><feBlend in2="BackgroundImageFix" result="effect1_dropShadow_1131_7667"/><feBlend in="SourceGraphic" in2="effect1_dropShadow_1131_7667" result="shape"/><feColorMatrix in="SourceAlpha" values="0 0 0 0 0 0 0 0 0 0 0 0 0 0 0 0 0 0 127 0" result="hardAlpha"/><feOffset/><feGaussianBlur stdDeviation="15"/><feComposite in2="hardAlpha" operator="arithmetic" k2="-1" k3="1"/><feColorMatrix values="0 0 0 0 0 0 0 0 0 0.1 0 0 0 0 1 0 0 0 0.45 0"/><feBlend in2="shape" result="effect2_innerShadow_1131_7667"/></filter></defs></svg>