<svg width="626" height="627" viewBox="0 0 626 627" fill="none" xmlns="http://www.w3.org/2000/svg">
<g opacity="0.3">
<path d="M312.253 313.582C312.254 313.751 312.302 313.916 312.39 314.059L405.159 461.652C405.286 461.853 405.487 461.996 405.718 462.048C405.95 462.101 406.192 462.059 406.393 461.933C406.594 461.806 406.736 461.605 406.789 461.374C406.841 461.142 406.8 460.9 406.673 460.699L313.904 313.106C313.842 313.006 313.76 312.92 313.664 312.852C313.569 312.784 313.46 312.736 313.346 312.71C313.231 312.684 313.112 312.681 312.997 312.7C312.881 312.72 312.77 312.763 312.671 312.825C312.544 312.907 312.439 313.019 312.366 313.151C312.293 313.283 312.254 313.431 312.253 313.582Z" fill="url(#paint0_linear_1131_7667)"/>
<path d="M312.254 313.582C312.254 313.775 312.317 313.964 312.433 314.118L417.105 453.546C417.171 453.649 417.259 453.738 417.361 453.806C417.463 453.874 417.578 453.92 417.699 453.942C417.82 453.963 417.945 453.96 418.064 453.931C418.184 453.903 418.296 453.85 418.394 453.776C418.492 453.702 418.574 453.608 418.635 453.501C418.695 453.394 418.733 453.276 418.746 453.154C418.758 453.032 418.746 452.908 418.708 452.791C418.671 452.674 418.61 452.565 418.529 452.473L313.852 313.046C313.739 312.895 313.582 312.785 313.403 312.729C313.224 312.673 313.032 312.674 312.854 312.734C312.676 312.793 312.521 312.907 312.411 313.059C312.301 313.211 312.242 313.394 312.242 313.582H312.254Z" fill="url(#paint1_linear_1131_7667)"/>
<path d="M312.253 313.582C312.254 313.801 312.335 314.013 312.48 314.178L428.334 444.438C428.492 444.615 428.714 444.722 428.951 444.736C429.188 444.749 429.42 444.668 429.597 444.51C429.774 444.352 429.881 444.13 429.895 443.893C429.908 443.656 429.827 443.423 429.669 443.246L313.815 312.992C313.694 312.856 313.536 312.761 313.359 312.718C313.183 312.675 312.998 312.687 312.829 312.751C312.659 312.816 312.514 312.931 312.411 313.08C312.308 313.229 312.253 313.407 312.253 313.588V313.582Z" fill="url(#paint2_linear_1131_7667)"/>
<path d="M312.253 313.582C312.254 313.704 312.279 313.824 312.327 313.936C312.375 314.048 312.445 314.148 312.534 314.232L438.77 434.473C438.943 434.636 439.173 434.725 439.41 434.719C439.648 434.713 439.873 434.612 440.037 434.44C440.201 434.268 440.289 434.037 440.283 433.8C440.277 433.562 440.177 433.337 440.004 433.173L313.767 312.939C313.64 312.82 313.481 312.741 313.31 312.71C313.138 312.68 312.961 312.7 312.801 312.768C312.641 312.837 312.504 312.95 312.407 313.094C312.309 313.239 312.256 313.408 312.253 313.582Z" fill="url(#paint3_linear_1131_7667)"/>
<path d="M312.253 313.583C312.253 313.716 312.283 313.848 312.341 313.969C312.399 314.09 312.483 314.196 312.587 314.28L448.343 423.637C448.433 423.719 448.539 423.783 448.654 423.823C448.77 423.863 448.892 423.879 449.014 423.87C449.136 423.861 449.255 423.827 449.363 423.77C449.471 423.713 449.567 423.635 449.644 423.54C449.72 423.445 449.777 423.335 449.809 423.217C449.842 423.099 449.85 422.976 449.833 422.855C449.816 422.734 449.775 422.618 449.711 422.513C449.648 422.409 449.563 422.319 449.464 422.248L313.708 312.879C313.576 312.774 313.418 312.707 313.25 312.688C313.083 312.668 312.913 312.697 312.761 312.77C312.609 312.843 312.48 312.957 312.391 313.1C312.301 313.243 312.253 313.408 312.253 313.577V313.583Z" fill="url(#paint4_linear_1131_7667)"/>
<path d="M312.253 313.582C312.253 313.728 312.289 313.872 312.358 314.001C312.426 314.13 312.526 314.24 312.647 314.321L456.992 412.073C457.088 412.146 457.199 412.2 457.317 412.229C457.435 412.258 457.558 412.263 457.678 412.244C457.798 412.224 457.912 412.18 458.015 412.115C458.117 412.049 458.205 411.963 458.273 411.863C458.341 411.762 458.388 411.649 458.411 411.529C458.434 411.41 458.432 411.287 458.406 411.168C458.38 411.05 458.33 410.938 458.259 410.839C458.188 410.74 458.097 410.657 457.993 410.595L313.648 312.843C313.452 312.712 313.211 312.664 312.979 312.708C312.748 312.753 312.542 312.887 312.408 313.081C312.309 313.23 312.255 313.404 312.253 313.582Z" fill="url(#paint5_linear_1131_7667)"/>
<path d="M312.253 313.582C312.253 313.742 312.296 313.898 312.377 314.035C312.457 314.172 312.573 314.286 312.712 314.363L464.651 399.824C464.858 399.941 465.103 399.97 465.331 399.906C465.56 399.841 465.754 399.689 465.87 399.482C465.986 399.275 466.015 399.03 465.951 398.801C465.887 398.573 465.734 398.379 465.527 398.263L313.589 312.807C313.486 312.749 313.373 312.712 313.256 312.697C313.139 312.683 313.021 312.692 312.907 312.723C312.793 312.755 312.687 312.808 312.594 312.881C312.502 312.954 312.424 313.044 312.367 313.147C312.292 313.28 312.253 313.43 312.253 313.582Z" fill="url(#paint6_linear_1131_7667)"/>
<path d="M312.253 313.582C312.254 313.754 312.304 313.922 312.397 314.066C312.49 314.211 312.622 314.326 312.778 314.399L471.273 386.985C471.489 387.084 471.735 387.093 471.957 387.01C472.18 386.928 472.36 386.76 472.459 386.544C472.558 386.328 472.567 386.082 472.484 385.86C472.401 385.637 472.234 385.457 472.018 385.358L313.523 312.771C313.416 312.721 313.3 312.692 313.182 312.686C313.063 312.681 312.945 312.7 312.834 312.741C312.723 312.782 312.621 312.845 312.535 312.926C312.448 313.007 312.379 313.104 312.331 313.212C312.279 313.329 312.253 313.455 312.253 313.582Z" fill="url(#paint7_linear_1131_7667)"/>
<path d="M312.253 313.582C312.253 313.766 312.31 313.947 312.417 314.097C312.524 314.248 312.675 314.361 312.849 314.422L476.81 373.639C477.028 373.699 477.26 373.674 477.461 373.57C477.661 373.465 477.814 373.289 477.89 373.076C477.965 372.863 477.957 372.63 477.868 372.422C477.778 372.215 477.613 372.049 477.406 371.959L313.451 312.741C313.229 312.661 312.983 312.672 312.768 312.773C312.554 312.873 312.388 313.055 312.307 313.278C312.272 313.375 312.254 313.478 312.253 313.582Z" fill="url(#paint8_linear_1131_7667)"/>
<path d="M312.253 313.582C312.253 313.779 312.318 313.97 312.438 314.127C312.557 314.283 312.725 314.395 312.915 314.446L481.215 359.883C481.331 359.923 481.453 359.938 481.576 359.929C481.698 359.919 481.816 359.884 481.924 359.827C482.032 359.769 482.128 359.69 482.204 359.595C482.28 359.499 482.336 359.388 482.368 359.27C482.4 359.152 482.407 359.029 482.389 358.908C482.371 358.786 482.329 358.67 482.265 358.566C482.2 358.462 482.115 358.373 482.014 358.303C481.914 358.233 481.8 358.185 481.68 358.161L313.38 312.718C313.151 312.658 312.907 312.69 312.702 312.808C312.496 312.927 312.346 313.121 312.283 313.35C312.265 313.426 312.255 313.504 312.253 313.582Z" fill="url(#paint9_linear_1131_7667)"/>
<path d="M312.253 313.582C312.254 313.792 312.327 313.994 312.461 314.155C312.595 314.316 312.781 314.426 312.987 314.465L484.469 345.811C484.586 345.835 484.707 345.836 484.824 345.813C484.941 345.791 485.052 345.744 485.151 345.678C485.25 345.611 485.335 345.526 485.401 345.426C485.466 345.326 485.511 345.214 485.532 345.097C485.554 344.979 485.552 344.859 485.526 344.742C485.5 344.626 485.451 344.516 485.382 344.418C485.313 344.321 485.225 344.239 485.124 344.176C485.022 344.113 484.909 344.071 484.791 344.052L313.308 312.706C313.076 312.664 312.837 312.716 312.642 312.85C312.448 312.984 312.315 313.19 312.271 313.422C312.259 313.474 312.253 313.528 312.253 313.582Z" fill="url(#paint10_linear_1131_7667)"/>
<path d="M312.253 313.582C312.253 313.805 312.335 314.02 312.486 314.184C312.636 314.349 312.842 314.451 313.064 314.47L486.55 331.517C486.667 331.529 486.786 331.518 486.899 331.483C487.012 331.449 487.117 331.393 487.208 331.319C487.299 331.244 487.375 331.152 487.431 331.048C487.487 330.944 487.521 330.83 487.533 330.713C487.545 330.595 487.533 330.477 487.499 330.364C487.465 330.251 487.409 330.146 487.334 330.054C487.26 329.963 487.168 329.887 487.064 329.831C486.96 329.776 486.846 329.741 486.728 329.729L313.255 312.694C313.138 312.683 313.02 312.694 312.907 312.729C312.795 312.763 312.69 312.819 312.599 312.894C312.508 312.968 312.433 313.06 312.378 313.164C312.323 313.268 312.288 313.382 312.277 313.499C312.266 313.526 312.258 313.554 312.253 313.582Z" fill="url(#paint11_linear_1131_7667)"/>
<path d="M312.253 313.583C312.253 313.818 312.346 314.043 312.511 314.211C312.676 314.378 312.901 314.473 313.136 314.477L487.438 317.099C487.555 317.102 487.672 317.081 487.781 317.038C487.891 316.995 487.991 316.931 488.075 316.85C488.16 316.769 488.228 316.671 488.275 316.564C488.322 316.456 488.347 316.34 488.35 316.223C488.348 315.987 488.256 315.76 488.092 315.59C487.927 315.42 487.704 315.32 487.468 315.311L313.159 312.688C313.042 312.687 312.925 312.708 312.816 312.752C312.707 312.795 312.608 312.86 312.524 312.942C312.44 313.024 312.372 313.121 312.326 313.229C312.28 313.337 312.255 313.453 312.253 313.571V313.583Z" fill="url(#paint12_linear_1131_7667)"/>
<path d="M312.254 313.582C312.251 313.602 312.251 313.622 312.254 313.642C312.269 313.878 312.378 314.098 312.556 314.255C312.733 314.411 312.966 314.491 313.202 314.476L487.129 302.662C487.246 302.655 487.361 302.624 487.466 302.572C487.572 302.519 487.666 302.447 487.743 302.358C487.821 302.27 487.88 302.167 487.918 302.055C487.955 301.944 487.971 301.826 487.963 301.709C487.955 301.591 487.924 301.477 487.872 301.371C487.82 301.266 487.748 301.171 487.659 301.094C487.57 301.017 487.467 300.957 487.356 300.92C487.245 300.882 487.127 300.866 487.009 300.874L313.083 312.694C312.858 312.71 312.648 312.811 312.494 312.976C312.341 313.14 312.255 313.357 312.254 313.582Z" fill="url(#paint13_linear_1131_7667)"/>
<path d="M312.254 313.582C312.251 313.628 312.251 313.674 312.254 313.719C312.272 313.836 312.312 313.947 312.373 314.048C312.433 314.149 312.513 314.237 312.608 314.306C312.703 314.376 312.81 314.427 312.924 314.455C313.039 314.483 313.157 314.488 313.273 314.47L485.632 288.292C485.75 288.274 485.863 288.234 485.964 288.173C486.066 288.111 486.155 288.031 486.225 287.935C486.296 287.84 486.347 287.731 486.376 287.616C486.404 287.501 486.41 287.381 486.392 287.264C486.375 287.146 486.334 287.034 486.273 286.932C486.212 286.83 486.131 286.741 486.036 286.671C485.94 286.6 485.832 286.549 485.717 286.521C485.601 286.492 485.482 286.486 485.364 286.504L313.017 312.7C312.805 312.73 312.611 312.836 312.471 312.998C312.33 313.161 312.253 313.368 312.254 313.582Z" fill="url(#paint14_linear_1131_7667)"/>
<path d="M312.253 313.582C312.244 313.651 312.244 313.722 312.253 313.791C312.28 313.905 312.33 314.013 312.399 314.108C312.468 314.203 312.555 314.284 312.655 314.345C312.756 314.407 312.867 314.448 312.983 314.466C313.099 314.485 313.218 314.48 313.332 314.452L482.919 274.1C483.152 274.049 483.354 273.907 483.482 273.706C483.61 273.506 483.653 273.263 483.602 273.03C483.551 272.798 483.409 272.595 483.208 272.467C483.008 272.339 482.764 272.296 482.532 272.348L312.939 312.7C312.742 312.748 312.567 312.862 312.442 313.022C312.318 313.182 312.251 313.379 312.253 313.582Z" fill="url(#paint15_linear_1131_7667)"/>
<path d="M312.253 313.583C312.255 313.678 312.271 313.773 312.301 313.863C312.334 313.977 312.39 314.083 312.465 314.176C312.54 314.268 312.633 314.344 312.738 314.399C312.843 314.455 312.959 314.489 313.077 314.499C313.195 314.509 313.315 314.496 313.428 314.459L479.093 260.219C479.319 260.145 479.507 259.985 479.615 259.773C479.723 259.561 479.742 259.315 479.668 259.089C479.595 258.863 479.435 258.676 479.223 258.568C479.011 258.46 478.765 258.441 478.539 258.514L312.873 312.754C312.696 312.81 312.54 312.919 312.429 313.068C312.318 313.217 312.256 313.397 312.253 313.583Z" fill="url(#paint16_linear_1131_7667)"/>
<path d="M312.253 313.583C312.254 313.703 312.278 313.823 312.325 313.934C312.37 314.045 312.438 314.146 312.523 314.23C312.608 314.314 312.709 314.38 312.821 314.424C312.932 314.468 313.051 314.489 313.171 314.486C313.29 314.483 313.408 314.455 313.517 314.405L474.104 246.623C474.217 246.58 474.319 246.515 474.406 246.432C474.493 246.349 474.562 246.249 474.609 246.138C474.657 246.027 474.681 245.908 474.681 245.788C474.682 245.668 474.657 245.548 474.611 245.438C474.564 245.327 474.495 245.227 474.408 245.143C474.321 245.06 474.219 244.994 474.107 244.952C473.994 244.909 473.874 244.889 473.754 244.893C473.634 244.898 473.516 244.926 473.407 244.978L312.802 312.76C312.64 312.829 312.502 312.943 312.405 313.089C312.307 313.236 312.255 313.407 312.253 313.583Z" fill="url(#paint17_linear_1131_7667)"/>
<path d="M312.253 313.583C312.254 313.728 312.289 313.871 312.355 314C312.465 314.206 312.651 314.36 312.874 314.431C313.097 314.501 313.338 314.481 313.547 314.375L468.007 233.528C468.199 233.409 468.339 233.221 468.399 233.003C468.458 232.785 468.433 232.552 468.328 232.352C468.223 232.152 468.046 231.999 467.832 231.924C467.619 231.849 467.385 231.857 467.178 231.948L312.736 312.79C312.591 312.866 312.47 312.98 312.385 313.119C312.3 313.259 312.254 313.419 312.253 313.583Z" fill="url(#paint18_linear_1131_7667)"/>
<path d="M312.253 313.582C312.255 313.742 312.298 313.899 312.38 314.037C312.462 314.174 312.58 314.288 312.72 314.365C312.86 314.442 313.018 314.48 313.179 314.476C313.339 314.471 313.495 314.424 313.63 314.339L460.854 220.986C461.055 220.859 461.197 220.657 461.249 220.425C461.301 220.193 461.258 219.95 461.131 219.75C461.004 219.549 460.802 219.407 460.57 219.355C460.338 219.303 460.095 219.345 459.894 219.472L312.659 312.831C312.534 312.912 312.431 313.024 312.36 313.155C312.289 313.286 312.252 313.433 312.253 313.582Z" fill="url(#paint19_linear_1131_7667)"/>
<path d="M312.253 313.583C312.252 313.779 312.318 313.97 312.438 314.125C312.581 314.314 312.794 314.438 313.028 314.47C313.263 314.503 313.501 314.441 313.69 314.298L452.676 209.072C452.856 208.925 452.971 208.715 452.999 208.485C453.026 208.255 452.964 208.024 452.824 207.839C452.684 207.654 452.478 207.531 452.249 207.495C452.021 207.46 451.787 207.514 451.597 207.647L312.611 312.879C312.501 312.961 312.412 313.067 312.35 313.189C312.288 313.311 312.255 313.446 312.253 313.583Z" fill="url(#paint20_linear_1131_7667)"/>
<path d="M312.253 313.582C312.253 313.803 312.336 314.016 312.486 314.179C312.564 314.266 312.658 314.337 312.763 314.388C312.869 314.44 312.983 314.469 313.1 314.476C313.217 314.483 313.334 314.466 313.444 314.427C313.555 314.388 313.656 314.328 313.744 314.25L443.545 197.884C443.722 197.726 443.829 197.504 443.842 197.267C443.856 197.03 443.774 196.797 443.616 196.62C443.458 196.443 443.236 196.336 442.999 196.323C442.762 196.309 442.53 196.39 442.353 196.549L312.551 312.921C312.458 313.004 312.383 313.106 312.331 313.22C312.28 313.334 312.253 313.457 312.253 313.582Z" fill="url(#paint21_linear_1131_7667)"/>
<path d="M312.253 313.582C312.257 313.76 312.313 313.932 312.415 314.078C312.517 314.223 312.66 314.335 312.825 314.398C312.991 314.462 313.172 314.476 313.345 314.436C313.518 314.397 313.675 314.307 313.797 314.178L433.519 187.483C433.676 187.309 433.759 187.081 433.75 186.848C433.741 186.614 433.641 186.393 433.471 186.233C433.301 186.072 433.075 185.984 432.841 185.988C432.607 185.993 432.384 186.088 432.22 186.255L312.498 312.968C312.341 313.135 312.254 313.354 312.253 313.582Z" fill="url(#paint22_linear_1131_7667)"/>
<path d="M312.253 313.582C312.253 313.768 312.311 313.948 312.418 314.1C312.525 314.251 312.676 314.365 312.851 314.427C313.025 314.488 313.215 314.494 313.393 314.443C313.571 314.392 313.729 314.287 313.845 314.143L422.665 177.952C422.738 177.86 422.793 177.754 422.825 177.641C422.858 177.528 422.867 177.41 422.854 177.293C422.841 177.177 422.805 177.064 422.748 176.961C422.691 176.858 422.614 176.767 422.522 176.694C422.43 176.621 422.325 176.567 422.212 176.534C422.099 176.502 421.98 176.492 421.864 176.505C421.747 176.518 421.634 176.555 421.531 176.612C421.428 176.669 421.338 176.745 421.265 176.837L312.45 313.028C312.323 313.185 312.253 313.38 312.253 313.582Z" fill="url(#paint23_linear_1131_7667)"/>
<path d="M312.253 313.582C312.252 313.775 312.313 313.963 312.427 314.118C312.541 314.273 312.702 314.388 312.886 314.444C313.071 314.5 313.268 314.495 313.449 314.43C313.631 314.365 313.786 314.244 313.893 314.083L411.048 169.351C411.119 169.254 411.169 169.143 411.195 169.026C411.222 168.909 411.225 168.788 411.204 168.67C411.183 168.551 411.138 168.439 411.072 168.338C411.007 168.238 410.921 168.151 410.822 168.085C410.722 168.018 410.61 167.972 410.492 167.949C410.374 167.926 410.253 167.928 410.135 167.953C410.018 167.978 409.907 168.027 409.809 168.096C409.711 168.165 409.628 168.253 409.564 168.355L312.408 313.088C312.306 313.232 312.252 313.405 312.253 313.582Z" fill="url(#paint24_linear_1131_7667)"/>
<path d="M312.253 313.582C312.254 313.78 312.319 313.973 312.44 314.129C312.562 314.286 312.731 314.398 312.923 314.447C313.114 314.497 313.317 314.482 313.499 314.404C313.681 314.326 313.832 314.19 313.928 314.018L398.782 161.739C398.891 161.535 398.916 161.296 398.852 161.073C398.787 160.85 398.638 160.661 398.436 160.547C398.231 160.441 397.993 160.417 397.771 160.482C397.549 160.546 397.36 160.693 397.244 160.893L312.367 313.147C312.292 313.28 312.253 313.43 312.253 313.582Z" fill="url(#paint25_linear_1131_7667)"/>
<path d="M312.253 313.583C312.252 313.788 312.322 313.988 312.45 314.148C312.578 314.308 312.758 314.419 312.959 314.462C313.159 314.506 313.369 314.479 313.552 314.386C313.735 314.293 313.881 314.14 313.964 313.952L385.919 155.171C386.008 154.957 386.01 154.716 385.925 154.5C385.84 154.285 385.674 154.11 385.463 154.014C385.252 153.918 385.011 153.908 384.793 153.986C384.574 154.064 384.395 154.224 384.292 154.432L312.337 313.213C312.283 313.329 312.255 313.455 312.253 313.583Z" fill="url(#paint26_linear_1131_7667)"/>
<path d="M312.253 313.582C312.252 313.767 312.309 313.948 312.416 314.099C312.523 314.25 312.675 314.363 312.849 314.423C313.072 314.503 313.318 314.492 313.533 314.392C313.747 314.291 313.913 314.109 313.994 313.886L372.556 149.693C372.635 149.47 372.622 149.224 372.519 149.01C372.417 148.796 372.234 148.631 372.01 148.552C371.786 148.473 371.541 148.486 371.327 148.588C371.112 148.69 370.948 148.874 370.869 149.097L312.307 313.284C312.272 313.38 312.253 313.481 312.253 313.582Z" fill="url(#paint27_linear_1131_7667)"/>
<path d="M312.253 313.583C312.253 313.8 312.331 314.01 312.474 314.174C312.617 314.338 312.815 314.444 313.03 314.473C313.246 314.501 313.464 314.45 313.645 314.329C313.826 314.208 313.956 314.025 314.012 313.815L358.781 145.336C358.811 145.223 358.819 145.104 358.803 144.988C358.787 144.872 358.749 144.759 358.69 144.658C358.631 144.556 358.553 144.467 358.459 144.396C358.366 144.325 358.26 144.273 358.146 144.243C358.033 144.212 357.914 144.205 357.798 144.22C357.682 144.236 357.569 144.274 357.468 144.333C357.366 144.392 357.277 144.471 357.206 144.564C357.135 144.657 357.082 144.764 357.052 144.877L312.283 313.356C312.265 313.43 312.255 313.506 312.253 313.583Z" fill="url(#paint28_linear_1131_7667)"/>
<path d="M312.254 313.582C312.232 313.819 312.306 314.055 312.459 314.238C312.611 314.421 312.83 314.535 313.067 314.557C313.304 314.578 313.54 314.504 313.723 314.352C313.906 314.199 314.02 313.98 314.042 313.743L344.708 142.135C344.735 142.017 344.737 141.895 344.715 141.777C344.693 141.658 344.648 141.545 344.581 141.445C344.514 141.344 344.428 141.258 344.327 141.192C344.226 141.126 344.113 141.081 343.994 141.059C343.875 141.038 343.754 141.041 343.636 141.068C343.518 141.095 343.407 141.145 343.31 141.216C343.212 141.287 343.13 141.377 343.068 141.481C343.007 141.584 342.966 141.7 342.95 141.819L312.271 313.427C312.26 313.478 312.254 313.53 312.254 313.582Z" fill="url(#paint29_linear_1131_7667)"/>
<path d="M312.254 313.582C312.242 313.819 312.326 314.051 312.486 314.226C312.646 314.402 312.869 314.507 313.106 314.518C313.343 314.529 313.575 314.445 313.75 314.285C313.926 314.125 314.031 313.902 314.042 313.665L330.391 140.114C330.403 139.997 330.391 139.878 330.356 139.765C330.322 139.653 330.265 139.548 330.19 139.457C330.115 139.366 330.023 139.29 329.919 139.235C329.815 139.179 329.701 139.145 329.584 139.134C329.466 139.122 329.348 139.134 329.235 139.169C329.122 139.203 329.017 139.259 328.926 139.334C328.835 139.409 328.76 139.502 328.704 139.606C328.649 139.71 328.614 139.824 328.603 139.941L312.259 313.474C312.253 313.51 312.251 313.546 312.254 313.582Z" fill="url(#paint30_linear_1131_7667)"/>
<path d="M312.253 313.582C312.253 313.82 312.348 314.047 312.515 314.215C312.683 314.382 312.91 314.477 313.147 314.477C313.385 314.477 313.612 314.382 313.78 314.215C313.947 314.047 314.042 313.82 314.042 313.582L315.973 139.268C315.973 139.031 315.879 138.804 315.711 138.636C315.543 138.469 315.316 138.374 315.079 138.374C314.842 138.374 314.614 138.469 314.446 138.636C314.279 138.804 314.185 139.031 314.185 139.268L312.253 313.582Z" fill="url(#paint31_linear_1131_7667)"/>
<path d="M299.749 139.71V139.775L312.266 313.648C312.274 313.766 312.306 313.88 312.359 313.986C312.412 314.091 312.485 314.184 312.574 314.261C312.663 314.338 312.766 314.397 312.878 314.434C312.99 314.471 313.108 314.485 313.225 314.477C313.343 314.468 313.457 314.437 313.562 314.384C313.668 314.331 313.761 314.258 313.838 314.169C313.915 314.08 313.974 313.976 314.011 313.864C314.048 313.753 314.062 313.635 314.054 313.517L301.537 139.644C301.528 139.407 301.426 139.183 301.252 139.022C301.078 138.86 300.847 138.774 300.61 138.783C300.373 138.792 300.149 138.894 299.987 139.068C299.826 139.242 299.74 139.473 299.749 139.71Z" fill="url(#paint32_linear_1131_7667)"/>
<path d="M285.395 141.342C285.389 141.388 285.389 141.434 285.395 141.479L312.253 313.737C312.289 313.974 312.418 314.187 312.612 314.329C312.805 314.471 313.047 314.531 313.284 314.494C313.521 314.458 313.734 314.329 313.876 314.135C314.018 313.942 314.077 313.7 314.041 313.463L287.171 141.217C287.153 140.98 287.041 140.76 286.861 140.605C286.68 140.45 286.446 140.374 286.209 140.392C285.971 140.41 285.751 140.522 285.596 140.702C285.442 140.883 285.365 141.117 285.383 141.354L285.395 141.342Z" fill="url(#paint33_linear_1131_7667)"/>
<path d="M271.227 144.156C271.219 144.225 271.219 144.295 271.227 144.364L312.253 313.797C312.309 314.028 312.455 314.227 312.658 314.35C312.861 314.474 313.104 314.511 313.335 314.455C313.566 314.399 313.765 314.254 313.888 314.051C314.012 313.848 314.05 313.604 313.994 313.374L272.991 143.947C272.964 143.71 272.843 143.493 272.656 143.345C272.469 143.197 272.23 143.13 271.993 143.157C271.756 143.185 271.54 143.306 271.391 143.493C271.243 143.68 271.176 143.919 271.203 144.156H271.227Z" fill="url(#paint34_linear_1131_7667)"/>
<path d="M257.34 148.131C257.341 148.229 257.357 148.325 257.388 148.417L312.301 313.862C312.338 313.974 312.397 314.077 312.473 314.166C312.55 314.255 312.643 314.328 312.748 314.381C312.853 314.434 312.967 314.465 313.085 314.474C313.202 314.483 313.319 314.468 313.431 314.432C313.542 314.395 313.646 314.336 313.735 314.26C313.824 314.183 313.897 314.09 313.949 313.985C314.002 313.88 314.034 313.766 314.043 313.648C314.051 313.531 314.037 313.414 314 313.302L259.086 147.851C259.022 147.647 258.886 147.473 258.703 147.36C258.521 147.247 258.304 147.204 258.092 147.238C257.881 147.272 257.688 147.381 257.55 147.545C257.412 147.709 257.337 147.917 257.34 148.131Z" fill="url(#paint35_linear_1131_7667)"/>
<path d="M243.833 153.252C243.834 153.371 243.859 153.488 243.905 153.598L312.325 313.934C312.419 314.153 312.595 314.325 312.815 314.413C313.035 314.501 313.281 314.499 313.5 314.405C313.718 314.312 313.89 314.136 313.978 313.916C314.066 313.695 314.064 313.449 313.97 313.231L245.55 152.894C245.469 152.705 245.325 152.549 245.143 152.453C244.96 152.357 244.75 152.327 244.548 152.369C244.346 152.41 244.165 152.52 244.034 152.68C243.904 152.84 243.833 153.04 243.833 153.246V153.252Z" fill="url(#paint36_linear_1131_7667)"/>
<path d="M230.792 159.462C230.792 159.608 230.829 159.751 230.899 159.879L312.361 313.999C312.413 314.108 312.486 314.206 312.576 314.286C312.667 314.366 312.772 314.427 312.887 314.465C313.001 314.503 313.122 314.518 313.243 314.508C313.363 314.498 313.48 314.464 313.587 314.407C313.694 314.351 313.788 314.273 313.864 314.18C313.94 314.086 313.996 313.978 314.029 313.861C314.062 313.745 314.071 313.624 314.056 313.504C314.041 313.384 314.002 313.269 313.941 313.165L232.479 159.045C232.368 158.84 232.181 158.686 231.958 158.617C231.735 158.548 231.494 158.569 231.287 158.675C231.139 158.747 231.015 158.859 230.927 158.998C230.84 159.137 230.793 159.298 230.792 159.462Z" fill="url(#paint37_linear_1131_7667)"/>
<path d="M218.316 166.734C218.315 166.905 218.362 167.073 218.454 167.217L312.397 314.071C312.46 314.17 312.542 314.256 312.639 314.323C312.735 314.39 312.844 314.438 312.959 314.463C313.074 314.488 313.192 314.491 313.308 314.47C313.424 314.449 313.534 314.406 313.633 314.343C313.732 314.279 313.818 314.197 313.885 314.1C313.952 314.004 314 313.895 314.025 313.78C314.05 313.665 314.053 313.547 314.032 313.431C314.011 313.315 313.968 313.205 313.905 313.106L219.962 166.252C219.857 166.09 219.703 165.966 219.522 165.899C219.341 165.831 219.144 165.824 218.959 165.879C218.774 165.933 218.611 166.046 218.496 166.2C218.38 166.354 218.317 166.542 218.316 166.734Z" fill="url(#paint38_linear_1131_7667)"/>
<path d="M206.479 175.02C206.478 175.216 206.543 175.407 206.664 175.562L312.438 314.125C312.507 314.225 312.595 314.31 312.698 314.375C312.8 314.44 312.915 314.483 313.035 314.502C313.154 314.521 313.277 314.515 313.394 314.486C313.512 314.456 313.622 314.403 313.718 314.329C313.815 314.255 313.895 314.163 313.954 314.057C314.014 313.952 314.051 313.835 314.064 313.714C314.077 313.594 314.065 313.472 314.03 313.356C313.994 313.24 313.935 313.133 313.857 313.04L208.082 174.477C207.969 174.329 207.812 174.22 207.633 174.166C207.454 174.112 207.263 174.115 207.087 174.175C206.91 174.234 206.756 174.348 206.647 174.5C206.538 174.651 206.479 174.833 206.479 175.02Z" fill="url(#paint39_linear_1131_7667)"/>
<path d="M195.369 184.252C195.368 184.473 195.451 184.686 195.601 184.848L312.486 314.19C312.648 314.352 312.865 314.445 313.094 314.452C313.322 314.458 313.545 314.376 313.715 314.223C313.885 314.071 313.99 313.859 314.009 313.631C314.028 313.403 313.958 313.177 313.815 312.998L196.93 183.656C196.81 183.521 196.651 183.425 196.475 183.382C196.298 183.339 196.113 183.351 195.944 183.415C195.774 183.48 195.629 183.595 195.526 183.744C195.423 183.894 195.368 184.071 195.369 184.252Z" fill="url(#paint40_linear_1131_7667)"/>
<path d="M185.063 194.372C185.064 194.495 185.089 194.616 185.138 194.727C185.188 194.839 185.259 194.94 185.35 195.022L312.54 314.232C312.626 314.314 312.726 314.378 312.837 314.421C312.947 314.463 313.065 314.484 313.183 314.48C313.301 314.477 313.418 314.451 313.526 314.402C313.634 314.354 313.731 314.284 313.812 314.198C313.893 314.111 313.956 314.01 313.997 313.899C314.038 313.788 314.057 313.67 314.053 313.552C314.048 313.433 314.02 313.317 313.97 313.21C313.92 313.102 313.849 313.006 313.762 312.926L186.571 193.717C186.443 193.599 186.284 193.521 186.112 193.493C185.94 193.464 185.764 193.486 185.605 193.555C185.445 193.624 185.309 193.739 185.213 193.884C185.117 194.029 185.065 194.199 185.063 194.372Z" fill="url(#paint41_linear_1131_7667)"/>
<path d="M175.634 205.311C175.633 205.445 175.663 205.578 175.722 205.699C175.781 205.82 175.867 205.926 175.974 206.008L312.594 314.286C312.685 314.365 312.791 314.425 312.906 314.462C313.021 314.499 313.143 314.512 313.263 314.501C313.383 314.489 313.5 314.454 313.606 314.396C313.712 314.339 313.805 314.26 313.88 314.165C313.955 314.071 314.01 313.962 314.042 313.845C314.074 313.729 314.081 313.607 314.065 313.487C314.048 313.368 314.007 313.253 313.945 313.149C313.883 313.046 313.8 312.956 313.702 312.885L177.082 204.607C176.895 204.462 176.658 204.395 176.423 204.423C176.187 204.451 175.972 204.571 175.825 204.756C175.699 204.914 175.631 205.11 175.634 205.311Z" fill="url(#paint42_linear_1131_7667)"/>
<path d="M167.14 216.993C167.139 217.14 167.175 217.284 167.244 217.414C167.312 217.544 167.412 217.655 167.533 217.738L312.659 314.327C312.856 314.458 313.098 314.506 313.33 314.459C313.563 314.412 313.767 314.275 313.898 314.077C314.03 313.879 314.077 313.638 314.03 313.405C313.983 313.173 313.846 312.968 313.648 312.837L168.528 216.248C168.431 216.183 168.321 216.138 168.206 216.115C168.09 216.092 167.972 216.093 167.857 216.116C167.742 216.139 167.632 216.185 167.535 216.25C167.437 216.316 167.354 216.4 167.289 216.498C167.19 216.644 167.138 216.817 167.14 216.993Z" fill="url(#paint43_linear_1131_7667)"/>
<path d="M159.642 229.337C159.64 229.496 159.682 229.654 159.762 229.791C159.843 229.929 159.96 230.042 160.101 230.118L312.719 314.369C312.926 314.484 313.171 314.511 313.399 314.445C313.512 314.412 313.618 314.358 313.709 314.284C313.801 314.211 313.878 314.12 313.935 314.017C313.991 313.914 314.027 313.801 314.04 313.684C314.053 313.568 314.043 313.449 314.011 313.337C313.978 313.224 313.923 313.118 313.85 313.026C313.777 312.935 313.686 312.858 313.583 312.801L160.995 228.556C160.789 228.449 160.55 228.425 160.328 228.491C160.105 228.556 159.917 228.706 159.803 228.908C159.711 229.033 159.655 229.182 159.642 229.337Z" fill="url(#paint44_linear_1131_7667)"/>
<path d="M153.187 242.259C153.186 242.432 153.236 242.602 153.33 242.747C153.424 242.892 153.559 243.006 153.717 243.076L312.784 314.399C313.001 314.496 313.247 314.503 313.469 314.419C313.691 314.334 313.87 314.165 313.967 313.949C314.065 313.732 314.072 313.486 313.987 313.264C313.903 313.042 313.734 312.863 313.517 312.766L154.45 241.448C154.343 241.399 154.226 241.371 154.108 241.366C153.99 241.362 153.872 241.381 153.761 241.423C153.65 241.464 153.548 241.528 153.462 241.609C153.376 241.69 153.306 241.787 153.258 241.896C153.212 242.011 153.187 242.135 153.187 242.259Z" fill="url(#paint45_linear_1131_7667)"/>
<path d="M147.828 255.659C147.827 255.844 147.884 256.024 147.991 256.174C148.098 256.325 148.249 256.439 148.424 256.499L312.849 314.429C312.96 314.468 313.077 314.485 313.195 314.479C313.312 314.473 313.427 314.443 313.533 314.393C313.639 314.342 313.734 314.271 313.813 314.184C313.891 314.096 313.952 313.994 313.991 313.884C314.03 313.773 314.047 313.656 314.041 313.538C314.034 313.421 314.005 313.306 313.954 313.2C313.904 313.094 313.833 312.999 313.745 312.921C313.658 312.842 313.556 312.781 313.445 312.742L149.02 254.83C148.796 254.752 148.55 254.766 148.337 254.869C148.124 254.972 147.96 255.155 147.881 255.379C147.848 255.468 147.83 255.563 147.828 255.659Z" fill="url(#paint46_linear_1131_7667)"/>
<path d="M143.603 269.487C143.601 269.685 143.665 269.878 143.787 270.035C143.908 270.191 144.078 270.303 144.27 270.351L312.952 314.459C313.067 314.493 313.188 314.505 313.307 314.492C313.427 314.479 313.542 314.442 313.647 314.383C313.752 314.324 313.844 314.245 313.917 314.15C313.991 314.055 314.045 313.946 314.075 313.829C314.106 313.713 314.112 313.592 314.095 313.473C314.077 313.354 314.036 313.24 313.973 313.137C313.911 313.035 313.828 312.946 313.73 312.876C313.633 312.806 313.522 312.756 313.405 312.73L144.753 268.623C144.523 268.562 144.279 268.596 144.073 268.715C143.868 268.835 143.718 269.031 143.656 269.26C143.63 269.333 143.612 269.409 143.603 269.487Z" fill="url(#paint47_linear_1131_7667)"/>
<path d="M140.527 283.601C140.528 283.812 140.603 284.016 140.739 284.177C140.875 284.338 141.064 284.446 141.272 284.483L312.993 314.464C313.111 314.484 313.231 314.481 313.347 314.455C313.463 314.429 313.573 314.38 313.671 314.312C313.768 314.243 313.851 314.156 313.915 314.055C313.979 313.955 314.022 313.842 314.042 313.725C314.063 313.607 314.06 313.487 314.034 313.371C314.007 313.255 313.959 313.145 313.89 313.047C313.821 312.95 313.734 312.867 313.634 312.803C313.533 312.739 313.421 312.696 313.303 312.676L141.594 282.718C141.361 282.679 141.121 282.733 140.928 282.869C140.735 283.005 140.603 283.213 140.563 283.446C140.545 283.496 140.533 283.548 140.527 283.601Z" fill="url(#paint48_linear_1131_7667)"/>
<path d="M138.613 297.924C138.614 298.147 138.697 298.361 138.847 298.525C138.997 298.689 139.203 298.792 139.424 298.812L313.047 314.477C313.284 314.498 313.52 314.424 313.702 314.272C313.885 314.119 314 313.9 314.021 313.663C314.042 313.426 313.969 313.19 313.816 313.007C313.664 312.824 313.445 312.71 313.208 312.688L139.609 297.03C139.373 297.01 139.138 297.084 138.956 297.236C138.775 297.388 138.66 297.605 138.637 297.841L138.613 297.924Z" fill="url(#paint49_linear_1131_7667)"/>
<path d="M137.934 312.349C137.935 312.584 138.029 312.81 138.195 312.977C138.361 313.144 138.586 313.24 138.822 313.243L313.142 314.476C313.259 314.478 313.376 314.456 313.485 314.412C313.594 314.368 313.694 314.303 313.777 314.221C313.861 314.138 313.928 314.04 313.973 313.931C314.018 313.822 314.042 313.706 314.042 313.588C314.042 313.352 313.948 313.126 313.782 312.958C313.616 312.791 313.39 312.696 313.154 312.694L138.834 311.46C138.716 311.46 138.6 311.482 138.491 311.526C138.382 311.57 138.283 311.636 138.2 311.718C138.116 311.801 138.05 311.899 138.004 312.007C137.958 312.115 137.934 312.231 137.934 312.349Z" fill="url(#paint50_linear_1131_7667)"/>
<path d="M138.428 326.785C138.428 326.785 138.428 326.826 138.428 326.85C138.437 326.967 138.468 327.082 138.521 327.187C138.574 327.292 138.647 327.385 138.736 327.462C138.825 327.538 138.929 327.597 139.041 327.633C139.153 327.669 139.271 327.682 139.388 327.673L313.213 314.476C313.45 314.458 313.671 314.346 313.825 314.166C313.98 313.985 314.057 313.751 314.039 313.514C314.021 313.276 313.909 313.056 313.728 312.901C313.548 312.747 313.313 312.67 313.076 312.688L139.257 325.891C139.031 325.907 138.82 326.009 138.667 326.174C138.513 326.34 138.428 326.558 138.428 326.785Z" fill="url(#paint51_linear_1131_7667)"/>
<path d="M140.121 341.125C140.118 341.173 140.118 341.221 140.121 341.269C140.139 341.385 140.18 341.497 140.241 341.597C140.303 341.697 140.383 341.785 140.479 341.854C140.574 341.923 140.682 341.973 140.796 342C140.911 342.028 141.03 342.032 141.146 342.014L313.279 314.464C313.516 314.426 313.728 314.296 313.869 314.101C314.01 313.907 314.068 313.664 314.03 313.427C313.992 313.19 313.861 312.978 313.667 312.837C313.472 312.696 313.23 312.638 312.993 312.676L140.872 340.249C140.662 340.281 140.471 340.387 140.333 340.548C140.195 340.708 140.12 340.914 140.121 341.125Z" fill="url(#paint52_linear_1131_7667)"/>
<path d="M142.994 355.288C142.986 355.357 142.986 355.427 142.994 355.496C143.022 355.611 143.072 355.718 143.142 355.813C143.212 355.908 143.299 355.989 143.4 356.05C143.501 356.11 143.613 356.151 143.729 356.168C143.846 356.186 143.965 356.18 144.079 356.152L313.356 314.429C313.474 314.404 313.586 314.356 313.685 314.288C313.784 314.219 313.868 314.131 313.932 314.03C313.996 313.928 314.039 313.814 314.058 313.695C314.077 313.577 314.072 313.455 314.043 313.338C314.014 313.222 313.962 313.112 313.89 313.016C313.818 312.919 313.727 312.839 313.622 312.779C313.518 312.719 313.403 312.68 313.283 312.666C313.164 312.651 313.043 312.661 312.927 312.694L143.65 354.417C143.459 354.469 143.292 354.583 143.173 354.74C143.054 354.898 142.991 355.09 142.994 355.288Z" fill="url(#paint53_linear_1131_7667)"/>
<path d="M147.024 369.158C147.025 369.253 147.041 369.348 147.072 369.438C147.148 369.662 147.309 369.848 147.521 369.954C147.733 370.06 147.979 370.078 148.204 370.004L313.434 314.429C313.546 314.39 313.648 314.329 313.736 314.25C313.823 314.171 313.895 314.076 313.946 313.97C313.997 313.864 314.026 313.749 314.032 313.631C314.039 313.513 314.022 313.395 313.983 313.284C313.944 313.173 313.883 313.071 313.804 312.983C313.726 312.895 313.63 312.824 313.524 312.773C313.418 312.722 313.303 312.693 313.185 312.686C313.067 312.68 312.95 312.697 312.838 312.736L147.632 368.311C147.455 368.372 147.302 368.486 147.193 368.638C147.084 368.789 147.025 368.971 147.024 369.158Z" fill="url(#paint54_linear_1131_7667)"/>
<path d="M152.191 382.617C152.191 382.738 152.217 382.858 152.268 382.968C152.314 383.078 152.382 383.178 152.467 383.262C152.553 383.345 152.654 383.411 152.766 383.454C152.877 383.498 152.996 383.518 153.115 383.514C153.235 383.511 153.352 383.483 153.461 383.433L313.505 314.405C313.723 314.311 313.895 314.134 313.983 313.913C314.071 313.692 314.067 313.446 313.973 313.228C313.879 313.01 313.702 312.838 313.481 312.75C313.261 312.662 313.014 312.666 312.796 312.76L152.733 381.824C152.576 381.89 152.442 382 152.346 382.141C152.25 382.281 152.196 382.446 152.191 382.617Z" fill="url(#paint55_linear_1131_7667)"/>
<path d="M158.462 395.658C158.461 395.806 158.495 395.951 158.563 396.082C158.676 396.285 158.863 396.437 159.086 396.505C159.308 396.573 159.548 396.552 159.755 396.445L313.536 314.375C313.745 314.264 313.902 314.074 313.971 313.847C314.04 313.62 314.017 313.375 313.905 313.165C313.794 312.956 313.604 312.799 313.377 312.73C313.15 312.661 312.905 312.684 312.695 312.796L158.915 394.872C158.776 394.95 158.661 395.065 158.581 395.203C158.501 395.342 158.46 395.499 158.462 395.658Z" fill="url(#paint56_linear_1131_7667)"/>
<path d="M165.781 408.11C165.786 408.269 165.833 408.423 165.917 408.559C166.001 408.694 166.119 408.804 166.259 408.879C166.4 408.953 166.558 408.989 166.717 408.983C166.875 408.976 167.03 408.928 167.164 408.843L313.637 314.333C313.735 314.27 313.821 314.187 313.887 314.09C313.954 313.994 314.001 313.885 314.026 313.77C314.05 313.655 314.052 313.536 314.031 313.421C314.01 313.305 313.966 313.195 313.902 313.097C313.838 312.998 313.756 312.913 313.659 312.846C313.562 312.779 313.453 312.732 313.339 312.708C313.224 312.683 313.105 312.681 312.99 312.703C312.874 312.724 312.764 312.768 312.665 312.831L166.193 407.359C166.067 407.439 165.963 407.55 165.891 407.682C165.819 407.813 165.781 407.96 165.781 408.11Z" fill="url(#paint57_linear_1131_7667)"/>
<path d="M174.114 419.911C174.113 420.108 174.178 420.299 174.299 420.454C174.443 420.642 174.655 420.765 174.89 420.796C175.125 420.827 175.362 420.764 175.55 420.621L313.696 314.292C313.884 314.147 314.007 313.934 314.038 313.698C314.069 313.463 314.005 313.225 313.86 313.037C313.715 312.849 313.502 312.726 313.267 312.695C313.031 312.665 312.794 312.729 312.605 312.873L174.459 419.202C174.351 419.286 174.264 419.394 174.204 419.517C174.144 419.64 174.113 419.775 174.114 419.911Z" fill="url(#paint58_linear_1131_7667)"/>
<path d="M183.388 430.98C183.388 431.153 183.439 431.323 183.533 431.468C183.628 431.614 183.762 431.728 183.921 431.798C184.079 431.868 184.255 431.891 184.426 431.863C184.597 431.835 184.756 431.758 184.884 431.642L313.75 314.22C313.902 314.057 313.987 313.842 313.989 313.619C313.99 313.395 313.908 313.18 313.759 313.014C313.609 312.848 313.403 312.744 313.181 312.722C312.959 312.701 312.736 312.763 312.558 312.897L183.68 430.301C183.586 430.386 183.511 430.492 183.461 430.609C183.41 430.726 183.386 430.853 183.388 430.98Z" fill="url(#paint59_linear_1131_7667)"/>
<path d="M193.551 441.25C193.551 441.372 193.576 441.493 193.625 441.605C193.674 441.717 193.747 441.817 193.837 441.9C194.01 442.062 194.24 442.148 194.477 442.14C194.714 442.133 194.938 442.031 195.101 441.858L313.803 314.19C313.901 314.108 313.98 314.006 314.035 313.891C314.09 313.776 314.119 313.651 314.122 313.523C314.124 313.396 314.099 313.269 314.049 313.152C313.999 313.035 313.924 312.93 313.829 312.845C313.735 312.759 313.623 312.694 313.502 312.655C313.381 312.616 313.252 312.603 313.126 312.618C312.999 312.633 312.877 312.674 312.768 312.74C312.658 312.805 312.564 312.893 312.492 312.998L193.789 440.636C193.635 440.803 193.549 441.022 193.551 441.25Z" fill="url(#paint60_linear_1131_7667)"/>
<path d="M204.524 450.638C204.523 450.824 204.581 451.005 204.689 451.157C204.797 451.309 204.949 451.423 205.125 451.485C205.301 451.546 205.491 451.55 205.67 451.498C205.849 451.445 206.006 451.338 206.121 451.192L313.851 314.137C313.928 314.045 313.985 313.938 314.02 313.824C314.054 313.709 314.066 313.589 314.053 313.47C314.04 313.351 314.004 313.236 313.946 313.131C313.888 313.027 313.81 312.935 313.716 312.861C313.621 312.787 313.513 312.733 313.398 312.702C313.282 312.67 313.162 312.662 313.043 312.679C312.925 312.695 312.811 312.735 312.708 312.796C312.605 312.857 312.515 312.938 312.444 313.034L204.715 450.083C204.592 450.242 204.525 450.437 204.524 450.638Z" fill="url(#paint61_linear_1131_7667)"/>
<path d="M216.243 459.083C216.243 459.275 216.304 459.462 216.419 459.617C216.533 459.771 216.694 459.884 216.878 459.94C217.062 459.995 217.259 459.99 217.44 459.925C217.621 459.86 217.776 459.738 217.882 459.578L313.893 314.071C313.966 313.973 314.017 313.862 314.045 313.744C314.073 313.625 314.077 313.502 314.056 313.383C314.035 313.263 313.989 313.149 313.923 313.047C313.856 312.946 313.769 312.859 313.668 312.792C313.566 312.725 313.452 312.679 313.333 312.658C313.213 312.636 313.09 312.64 312.972 312.667C312.853 312.695 312.742 312.746 312.644 312.819C312.546 312.891 312.464 312.982 312.403 313.087L216.392 458.594C216.294 458.739 216.242 458.909 216.243 459.083Z" fill="url(#paint62_linear_1131_7667)"/>
<path d="M228.617 466.534C228.616 466.733 228.681 466.927 228.803 467.085C228.925 467.243 229.096 467.355 229.29 467.405C229.483 467.454 229.687 467.437 229.87 467.357C230.052 467.277 230.203 467.139 230.298 466.963L313.935 314.011C314.04 313.804 314.06 313.565 313.991 313.343C313.922 313.121 313.77 312.935 313.567 312.824C313.363 312.712 313.124 312.684 312.9 312.746C312.676 312.807 312.485 312.953 312.367 313.153L228.73 466.105C228.656 466.236 228.617 466.384 228.617 466.534Z" fill="url(#paint63_linear_1131_7667)"/>
<path d="M241.568 472.93C241.568 473.135 241.639 473.333 241.768 473.492C241.897 473.651 242.076 473.761 242.277 473.804C242.477 473.847 242.686 473.819 242.868 473.726C243.051 473.633 243.196 473.481 243.279 473.293L313.964 313.946C314.055 313.731 314.057 313.488 313.971 313.271C313.885 313.053 313.717 312.878 313.504 312.783C313.29 312.688 313.048 312.68 312.828 312.762C312.609 312.843 312.431 313.007 312.331 313.219L241.646 472.572C241.595 472.685 241.568 472.807 241.568 472.93Z" fill="url(#paint64_linear_1131_7667)"/>
<path d="M255.004 478.24C255.007 478.45 255.083 478.651 255.219 478.81C255.355 478.969 255.543 479.075 255.749 479.109C255.955 479.144 256.167 479.105 256.348 479C256.529 478.895 256.667 478.729 256.738 478.533L313.994 313.874C314.073 313.651 314.06 313.405 313.958 313.191C313.856 312.977 313.673 312.812 313.449 312.733C313.225 312.654 312.979 312.667 312.765 312.769C312.551 312.872 312.387 313.055 312.308 313.278L255.051 477.942C255.018 478.038 255.002 478.139 255.004 478.24Z" fill="url(#paint65_linear_1131_7667)"/>
<path d="M268.832 482.413C268.834 482.629 268.914 482.838 269.058 482.999C269.202 483.161 269.4 483.265 269.614 483.292C269.829 483.319 270.046 483.267 270.226 483.146C270.405 483.025 270.535 482.843 270.59 482.634L314.018 313.809C314.077 313.579 314.043 313.335 313.922 313.13C313.801 312.926 313.604 312.778 313.374 312.718C313.144 312.659 312.9 312.693 312.696 312.814C312.491 312.935 312.343 313.132 312.283 313.362L268.855 482.192C268.839 482.265 268.831 482.339 268.832 482.413Z" fill="url(#paint66_linear_1131_7667)"/>
<path d="M282.958 485.429C282.938 485.666 283.013 485.901 283.167 486.083C283.321 486.264 283.54 486.378 283.777 486.397C284.014 486.417 284.25 486.342 284.431 486.188C284.613 486.034 284.726 485.815 284.746 485.578L314.03 313.731C314.049 313.614 314.045 313.494 314.019 313.378C313.992 313.262 313.942 313.152 313.873 313.055C313.804 312.959 313.716 312.876 313.615 312.813C313.514 312.75 313.402 312.708 313.285 312.688C313.167 312.669 313.047 312.672 312.931 312.699C312.815 312.726 312.706 312.775 312.609 312.845C312.512 312.914 312.43 313.001 312.367 313.102C312.304 313.203 312.261 313.316 312.241 313.433L282.97 485.28C282.96 485.329 282.956 485.379 282.958 485.429Z" fill="url(#paint67_linear_1131_7667)"/>
<path d="M297.281 487.265C297.27 487.502 297.355 487.733 297.515 487.908C297.675 488.083 297.899 488.187 298.136 488.198C298.373 488.208 298.605 488.124 298.779 487.963C298.954 487.803 299.058 487.579 299.069 487.342L314.041 313.66C314.062 313.423 313.988 313.187 313.834 313.005C313.681 312.823 313.462 312.709 313.225 312.688C312.988 312.668 312.752 312.742 312.57 312.896C312.388 313.049 312.274 313.268 312.253 313.505L297.287 487.187C297.287 487.187 297.281 487.241 297.281 487.265Z" fill="url(#paint68_linear_1131_7667)"/>
<path d="M311.711 487.908C311.711 488.145 311.805 488.373 311.973 488.54C312.14 488.708 312.368 488.802 312.605 488.802C312.842 488.802 313.07 488.708 313.237 488.54C313.405 488.373 313.499 488.145 313.499 487.908L314.041 313.588C314.041 313.351 313.947 313.124 313.78 312.956C313.612 312.788 313.385 312.694 313.147 312.694C312.91 312.694 312.683 312.788 312.515 312.956C312.348 313.124 312.253 313.351 312.253 313.588L311.711 487.908Z" fill="url(#paint69_linear_1131_7667)"/>
<path d="M312.254 313.582C312.251 313.606 312.251 313.63 312.254 313.653L326.142 487.425C326.151 487.542 326.184 487.657 326.237 487.762C326.291 487.867 326.365 487.96 326.455 488.036C326.544 488.113 326.648 488.171 326.76 488.207C326.872 488.243 326.99 488.257 327.108 488.248C327.225 488.238 327.339 488.206 327.444 488.152C327.549 488.099 327.643 488.025 327.719 487.935C327.795 487.846 327.853 487.742 327.89 487.63C327.926 487.518 327.94 487.399 327.93 487.282L314.042 313.51C314.033 313.273 313.93 313.05 313.755 312.889C313.581 312.728 313.35 312.643 313.112 312.652C312.875 312.662 312.652 312.765 312.491 312.939C312.33 313.114 312.245 313.345 312.254 313.582Z" fill="url(#paint70_linear_1131_7667)"/>
<path d="M312.254 313.582C312.251 313.63 312.251 313.677 312.254 313.725L340.501 485.732C340.539 485.97 340.669 486.182 340.864 486.323C341.058 486.464 341.301 486.521 341.538 486.483C341.775 486.446 341.987 486.315 342.128 486.12C342.269 485.926 342.327 485.683 342.289 485.446L314.03 313.439C314.011 313.202 313.899 312.982 313.718 312.828C313.537 312.674 313.302 312.598 313.065 312.616C312.828 312.635 312.608 312.748 312.453 312.929C312.299 313.11 312.223 313.345 312.242 313.582H312.254Z" fill="url(#paint71_linear_1131_7667)"/>
<path d="M312.253 313.582C312.255 313.657 312.265 313.731 312.283 313.803L354.656 482.895C354.714 483.125 354.861 483.323 355.064 483.445C355.268 483.567 355.511 483.603 355.741 483.545C355.971 483.487 356.169 483.341 356.291 483.137C356.412 482.934 356.448 482.69 356.391 482.46L314.018 313.368C314.004 313.25 313.967 313.137 313.909 313.034C313.851 312.931 313.773 312.84 313.68 312.767C313.587 312.694 313.481 312.64 313.367 312.608C313.253 312.576 313.134 312.567 313.016 312.581C312.899 312.595 312.785 312.632 312.682 312.69C312.579 312.748 312.489 312.826 312.416 312.919C312.343 313.012 312.288 313.118 312.257 313.232C312.225 313.346 312.215 313.465 312.23 313.582H312.253Z" fill="url(#paint72_linear_1131_7667)"/>
<path d="M312.253 313.582C312.255 313.681 312.271 313.78 312.301 313.874L368.532 478.878C368.611 479.102 368.776 479.286 368.991 479.389C369.205 479.492 369.452 479.505 369.677 479.426C369.901 479.347 370.085 479.182 370.188 478.968C370.291 478.753 370.304 478.506 370.225 478.282L313.994 313.296C313.926 313.096 313.789 312.926 313.607 312.817C313.426 312.708 313.211 312.668 313.002 312.702C312.794 312.736 312.604 312.843 312.467 313.005C312.329 313.166 312.254 313.37 312.253 313.582Z" fill="url(#paint73_linear_1131_7667)"/>
<path d="M312.253 313.583C312.253 313.706 312.279 313.828 312.331 313.94L382.027 473.729C382.074 473.836 382.141 473.934 382.226 474.015C382.311 474.096 382.41 474.16 382.52 474.203C382.629 474.246 382.746 474.267 382.863 474.265C382.981 474.263 383.096 474.237 383.204 474.191C383.312 474.144 383.409 474.076 383.49 473.991C383.572 473.907 383.636 473.807 383.679 473.698C383.722 473.588 383.743 473.472 383.74 473.354C383.738 473.237 383.713 473.121 383.666 473.013L313.97 313.225C313.889 313.035 313.745 312.878 313.561 312.783C313.378 312.687 313.167 312.658 312.965 312.7C312.763 312.742 312.581 312.853 312.451 313.014C312.322 313.175 312.252 313.376 312.253 313.583Z" fill="url(#paint74_linear_1131_7667)"/>
<path d="M312.253 313.582C312.254 313.73 312.291 313.876 312.361 314.006L395.05 467.476C395.103 467.584 395.177 467.68 395.268 467.759C395.359 467.838 395.465 467.898 395.58 467.935C395.694 467.972 395.815 467.985 395.935 467.974C396.055 467.963 396.171 467.928 396.277 467.871C396.383 467.814 396.477 467.736 396.552 467.642C396.627 467.548 396.683 467.44 396.715 467.324C396.747 467.208 396.756 467.087 396.74 466.967C396.725 466.848 396.685 466.733 396.624 466.629L313.934 313.159C313.84 312.984 313.69 312.846 313.508 312.765C313.326 312.685 313.122 312.668 312.929 312.717C312.736 312.765 312.565 312.877 312.443 313.034C312.32 313.19 312.254 313.383 312.253 313.582Z" fill="url(#paint75_linear_1131_7667)"/>
</g>
<g filter="url(#filter0_di_1131_7667)">
<path d="M399.927 226.803C447.857 274.733 447.857 352.443 399.927 400.373C351.997 448.303 274.287 448.303 226.357 400.373C178.428 352.443 178.428 274.733 226.357 226.803C274.287 178.874 351.997 178.874 399.927 226.803Z" fill="#1E1D2B"/>
</g>
<path d="M189.515 313.588C189.515 381.758 244.948 437.214 313.141 437.214C381.335 437.214 436.768 381.782 436.768 313.588C436.768 245.394 381.335 189.962 313.141 189.962C244.948 189.962 189.515 245.418 189.515 313.588ZM434.979 313.588C434.979 380.769 380.322 435.426 313.141 435.426C245.961 435.426 191.303 380.769 191.303 313.588C191.303 246.408 245.961 191.75 313.141 191.75C380.322 191.75 434.979 246.408 434.979 313.588Z" fill="url(#paint76_linear_1131_7667)"/>
<path d="M102.308 314.983C102.34 364.169 119.373 411.832 150.521 449.898C181.67 487.964 225.019 514.092 273.225 523.858C321.432 533.624 371.532 526.426 415.04 503.484C458.548 480.542 492.787 443.266 511.96 397.971C533.782 345.904 534.069 287.308 512.756 235.03C491.444 182.752 450.272 141.057 398.267 119.087C346.262 97.1174 287.667 96.6649 235.329 117.829C182.991 138.993 141.18 180.047 119.063 231.989C107.952 258.245 102.253 286.473 102.308 314.983ZM526.926 314.983C526.924 356.795 514.524 397.667 491.294 432.431C468.064 467.195 435.047 494.291 396.419 510.292C357.79 526.292 315.284 530.48 274.276 522.324C233.267 514.168 195.598 494.035 166.031 464.472C146.224 444.88 130.485 421.566 119.718 395.871C108.952 370.176 103.37 342.606 103.293 314.746C103.217 286.887 108.648 259.287 119.274 233.533C129.9 207.779 145.511 184.38 165.211 164.68C184.91 144.979 208.309 129.367 234.062 118.74C259.816 108.113 287.415 102.681 315.275 102.756C343.135 102.831 370.705 108.412 396.4 119.178C422.096 129.944 445.41 145.682 465.003 165.488C484.698 185.074 500.312 208.371 510.941 234.032C521.57 259.693 527.004 287.208 526.926 314.983Z" fill="url(#paint77_linear_1131_7667)"/>
<path d="M355.259 271.471C378.52 294.732 378.52 332.445 355.259 355.706C331.999 378.966 294.285 378.966 271.025 355.706C247.764 332.445 247.764 294.732 271.025 271.471C294.285 248.21 331.999 248.21 355.259 271.471Z" fill="#1E1D2B"/>
<path d="M252.684 313.589C252.684 325.546 256.23 337.235 262.873 347.177C269.516 357.119 278.958 364.868 290.005 369.444C301.052 374.02 313.208 375.217 324.936 372.884C336.663 370.551 347.436 364.793 355.891 356.338C364.346 347.883 370.104 337.111 372.437 325.383C374.769 313.656 373.572 301.5 368.996 290.453C364.42 279.406 356.671 269.964 346.729 263.321C336.787 256.677 325.098 253.132 313.141 253.132C297.112 253.149 281.745 259.524 270.411 270.858C259.077 282.192 252.701 297.56 252.684 313.589ZM371.81 313.589C371.81 325.192 368.369 336.535 361.923 346.184C355.476 355.832 346.313 363.351 335.593 367.792C324.872 372.232 313.076 373.394 301.695 371.13C290.315 368.867 279.861 363.279 271.656 355.074C263.451 346.869 257.863 336.415 255.6 325.035C253.336 313.654 254.498 301.857 258.938 291.137C263.379 280.417 270.898 271.254 280.546 264.807C290.195 258.361 301.538 254.92 313.141 254.92C328.696 254.937 343.608 261.124 354.607 272.123C365.606 283.122 371.793 298.034 371.81 313.589Z" fill="url(#paint78_linear_1131_7667)"/>
<path d="M104.567 511.489C106.176 504.074 110.211 485.537 110.211 485.537L115.892 511.668L141.194 517.169L115.773 522.688L110.211 548.283L104.686 522.873L78.46 517.169L104.567 511.489Z" fill="#1E1D2B"/>
<path d="M74.2397 517.168L103.935 523.63L110.211 552.49L116.523 523.451L145.402 517.168L116.643 510.916L110.211 481.328L103.816 510.737L74.2397 517.168ZM110.211 544.074L105.437 522.092L82.6559 517.168L105.306 512.245L110.199 489.744L115.129 512.394L136.98 517.163L115.009 521.931L110.211 544.074Z" fill="url(#paint79_linear_1131_7667)"/>
<path d="M102.784 516.799C98.9513 510.838 89.3847 495.937 89.3847 495.937L110.372 509.45L130.691 496.384L117.578 516.799L130.774 537.345L110.372 524.231L89.3013 537.774L102.784 516.799Z" fill="#1E1D2B"/>
<path d="M86.3213 540.754L110.372 525.293L133.749 540.325L118.627 516.799L133.665 493.41L110.372 508.383L86.4047 492.981L101.717 516.823L86.3213 540.754ZM127.8 534.371L110.372 523.171L92.2758 534.8L103.845 516.799L92.3592 498.918L110.372 510.511L127.717 499.359L116.505 516.799L127.8 534.371Z" fill="url(#paint80_linear_1131_7667)"/>
<path d="M511.691 101.604L516.459 78.8947L521.228 101.604L532.463 94.2667L525.126 105.502L547.835 110.271L525.126 115.039L532.463 126.268L521.228 118.937L516.459 141.646C516.459 141.646 513.598 128.015 511.691 118.937L500.462 126.268L507.793 115.039L485.083 110.271L507.793 105.502L500.462 94.2667L511.691 101.604Z" fill="#1E1D2B"/>
<path d="M480.744 110.271L506.332 115.636L497.392 129.345L511.101 120.404L516.465 145.992L521.83 120.404L535.539 129.345L526.598 115.636L552.192 110.271L526.598 104.907L535.539 91.1978L521.83 100.139L516.465 74.5442L511.101 100.139L497.392 91.1978L506.332 104.907L480.744 110.271ZM509.259 114.444L489.44 110.271L509.259 106.099L503.543 97.3371L512.305 103.059L516.477 83.2406L520.65 103.059L529.417 97.3371L523.695 106.099L543.514 110.271L523.695 114.444L529.417 123.206L520.65 117.489L516.477 137.308L512.305 117.489L503.543 123.206L509.259 114.444Z" fill="url(#paint81_linear_1131_7667)"/>
<path d="M292.322 347.879L263.015 364.682L289.652 338.044L292.322 347.879Z" fill="#1E1D2B"/>
<path d="M262.054 363.716L278.851 334.408L288.686 337.078L262.054 363.716Z" fill="#1E1D2B"/>
<path d="M336.632 338.044L363.269 364.676L333.961 347.879L336.632 338.044Z" fill="#1E1D2B"/>
<path d="M305.798 341.722L312.462 343.528V416.919L293.907 348.541L305.798 341.722Z" fill="#1E1D2B"/>
<path d="M289.031 335.761L279.548 333.187L285.509 322.786L289.031 335.761Z" fill="#1E1D2B"/>
<path d="M320.486 341.722L332.377 348.541L313.822 416.919V343.528L320.486 341.722Z" fill="#1E1D2B"/>
<path d="M314.787 314.268H335.106L327.703 327.19L314.787 314.268Z" fill="#1E1D2B"/>
<path d="M278.189 332.823L209.811 314.268H283.202L285.008 320.932L278.189 332.823Z" fill="#1E1D2B"/>
<path d="M337.46 314.267H341.674L340.315 319.256L337.46 314.267Z" fill="#1E1D2B"/>
<path d="M284.609 314.267H288.823L285.962 319.256L284.609 314.267Z" fill="#1E1D2B"/>
<path d="M291.177 314.268H311.497L298.58 327.19L291.177 314.268Z" fill="#1E1D2B"/>
<path d="M339.815 321.117L335.935 335.416L328.699 328.186L336.28 314.96L339.815 321.117Z" fill="#1E1D2B"/>
<path d="M347.432 334.408L364.229 363.716L337.598 337.078L347.432 334.408Z" fill="#1E1D2B"/>
<path d="M290.969 337.699L303.945 341.221L293.544 347.182L290.969 337.699Z" fill="#1E1D2B"/>
<path d="M313.822 337.907L318.811 340.768L313.822 342.121V337.907Z" fill="#1E1D2B"/>
<path d="M322.338 341.221L335.314 337.699L332.739 347.182L322.338 341.221Z" fill="#1E1D2B"/>
<path d="M340.774 322.786L346.735 333.187L337.251 335.761L340.774 322.786Z" fill="#1E1D2B"/>
<path d="M327.739 329.145L334.969 336.381L320.67 340.261L314.513 336.727L327.739 329.145Z" fill="#1E1D2B"/>
<path d="M341.275 320.932L343.081 314.268H416.473L348.094 332.823L341.275 320.932Z" fill="#1E1D2B"/>
<path d="M326.744 328.15L313.822 335.553V315.233L326.744 328.15Z" fill="#1E1D2B"/>
<path d="M298.544 329.145L311.77 336.727L305.613 340.261L291.313 336.381L298.544 329.145Z" fill="#1E1D2B"/>
<path d="M290.003 314.96L297.579 328.186L290.349 335.416L286.468 321.117L290.003 314.96Z" fill="#1E1D2B"/>
<path d="M312.462 335.553L299.54 328.15L312.462 315.233V335.553Z" fill="#1E1D2B"/>
<path d="M307.473 340.768L312.462 337.907V342.121L307.473 340.768Z" fill="#1E1D2B"/>
<path d="M311.496 312.909H291.171L298.58 299.987L311.496 312.909Z" fill="#1E1D2B"/>
<path d="M288.823 312.909H284.609L285.962 307.92L288.823 312.909Z" fill="#1E1D2B"/>
<path d="M285.509 304.391L279.548 293.99L289.031 291.415L285.509 304.391Z" fill="#1E1D2B"/>
<path d="M348.094 294.354L416.473 312.909H343.081L341.275 306.251L348.094 294.354Z" fill="#1E1D2B"/>
<path d="M333.961 279.297L363.269 262.501L336.632 289.132L333.961 279.297Z" fill="#1E1D2B"/>
<path d="M335.106 312.909H314.787L327.703 299.987L335.106 312.909Z" fill="#1E1D2B"/>
<path d="M283.202 312.909H209.811L278.189 294.354L285.008 306.251L283.202 312.909Z" fill="#1E1D2B"/>
<path d="M278.851 292.768L262.054 263.461L288.686 290.098L278.851 292.768Z" fill="#1E1D2B"/>
<path d="M320.486 285.455L313.822 283.649V210.257L332.377 278.636L320.486 285.455Z" fill="#1E1D2B"/>
<path d="M289.652 289.132L263.015 262.501L292.322 279.297L289.652 289.132Z" fill="#1E1D2B"/>
<path d="M305.798 285.455L293.907 278.636L312.462 210.257V283.649L305.798 285.455Z" fill="#1E1D2B"/>
<path d="M341.674 312.909H337.46L340.315 307.92L341.674 312.909Z" fill="#1E1D2B"/>
<path d="M286.468 306.061L290.349 291.761L297.579 298.991L290.003 312.218L286.468 306.061Z" fill="#1E1D2B"/>
<path d="M299.54 299.027L312.462 291.624V311.943L299.54 299.027Z" fill="#1E1D2B"/>
<path d="M320.67 286.915L334.969 290.795L327.739 298.031L314.513 290.449L320.67 286.915Z" fill="#1E1D2B"/>
<path d="M313.822 291.624L326.744 299.027L313.822 311.943V291.624Z" fill="#1E1D2B"/>
<path d="M336.28 312.218L328.699 298.991L335.935 291.761L339.815 306.061L336.28 312.218Z" fill="#1E1D2B"/>
<path d="M337.251 291.415L346.735 293.99L340.768 304.391L337.251 291.415Z" fill="#1E1D2B"/>
<path d="M318.811 286.414L313.822 289.269V285.055L318.811 286.414Z" fill="#1E1D2B"/>
<path d="M364.229 263.461L347.432 292.768L337.598 290.098L364.229 263.461Z" fill="#1E1D2B"/>
<path d="M335.314 289.478L322.338 285.962L332.739 279.995L335.314 289.478Z" fill="#1E1D2B"/>
<path d="M305.613 286.915L311.77 290.449L298.544 298.031L291.313 290.795L305.613 286.915Z" fill="#1E1D2B"/>
<path d="M303.945 285.962L290.969 289.478L293.544 279.995L303.945 285.962Z" fill="#1E1D2B"/>
<path d="M312.462 289.269L307.473 286.414L312.462 285.055V289.269Z" fill="#1E1D2B"/>
<path d="M313.797 204.995L333.598 277.963L367.024 258.8C367.154 258.724 367.305 258.693 367.454 258.712C367.603 258.731 367.742 258.799 367.848 258.906C367.954 259.012 368.022 259.15 368.042 259.3C368.061 259.449 368.03 259.6 367.954 259.73L348.791 293.156L421.735 312.933C421.879 312.972 422.006 313.057 422.097 313.176C422.187 313.294 422.236 313.439 422.236 313.588C422.236 313.738 422.187 313.883 422.097 314.001C422.006 314.12 421.879 314.205 421.735 314.244L348.791 334.045L367.954 367.471C368.03 367.601 368.061 367.752 368.042 367.901C368.022 368.05 367.954 368.189 367.848 368.295C367.742 368.402 367.603 368.47 367.454 368.489C367.305 368.508 367.154 368.477 367.024 368.401L333.598 349.238L313.797 422.206C313.758 422.35 313.672 422.477 313.554 422.568C313.435 422.658 313.29 422.707 313.141 422.707C312.992 422.707 312.847 422.658 312.729 422.568C312.61 422.477 312.525 422.35 312.486 422.206L292.685 349.238L259.259 368.401C259.129 368.484 258.975 368.521 258.823 368.505C258.67 368.488 258.527 368.42 258.418 368.312C258.314 368.205 258.246 368.067 258.226 367.919C258.205 367.771 258.233 367.62 258.305 367.489L277.492 334.045L204.524 314.244C204.38 314.205 204.253 314.12 204.162 314.001C204.072 313.883 204.022 313.738 204.022 313.588C204.022 313.439 204.072 313.294 204.162 313.176C204.253 313.057 204.38 312.972 204.524 312.933L277.492 293.132L258.329 259.706C258.257 259.575 258.229 259.424 258.25 259.276C258.27 259.128 258.337 258.99 258.442 258.883C258.548 258.779 258.685 258.713 258.832 258.693C258.98 258.674 259.129 258.703 259.259 258.776L292.685 277.939L312.486 204.995C312.525 204.851 312.61 204.724 312.729 204.633C312.847 204.543 312.992 204.494 313.141 204.494C313.29 204.494 313.435 204.543 313.554 204.633C313.672 204.724 313.758 204.851 313.797 204.995ZM346.734 333.21L340.774 322.809L337.251 335.785L346.734 333.21ZM322.338 341.245L332.739 347.206L335.308 337.699L322.338 341.245ZM334.969 336.405L327.738 329.145L314.512 336.721L320.669 340.25L334.969 336.405ZM318.81 340.786L313.851 337.913V342.127L318.81 340.786ZM312.462 337.913L307.473 340.774L312.462 342.127V337.913ZM290.968 337.705L293.543 347.188L303.944 341.227L290.968 337.705ZM305.613 340.268L311.77 336.721L298.544 329.133L291.314 336.369L305.613 340.268ZM297.584 328.192L290.009 314.959L286.48 321.117L290.36 335.422L297.584 328.192ZM312.486 335.559V315.24L299.545 328.15L312.486 335.559ZM313.845 335.559L326.767 328.156L313.851 315.234L313.845 335.559ZM328.746 328.192L335.982 335.428L339.862 321.123L336.327 314.965L328.746 328.192ZM347.48 334.414L337.645 337.085L364.276 363.722L347.48 334.414ZM363.317 364.682L336.679 338.05L334.009 347.885L363.317 364.682ZM332.423 348.547L320.532 341.728L313.868 343.516V416.919L332.423 348.547ZM312.462 416.919V343.528L305.798 341.74L293.907 348.559L312.462 416.919ZM292.321 347.879L289.651 338.044L263.014 364.682L292.321 347.879ZM262.048 363.716L288.685 337.079L278.851 334.408L262.048 363.716ZM289.031 335.761L285.509 322.785L279.548 333.187L289.031 335.761ZM209.81 314.268L278.189 332.823L285.008 320.932L283.22 314.268H209.81ZM284.608 314.268L285.967 319.257L288.823 314.268H284.608ZM291.165 314.268L298.58 327.184L311.496 314.262L291.165 314.268ZM314.774 314.268L327.703 327.184L335.106 314.262L314.774 314.268ZM337.424 314.268L340.279 319.257L341.638 314.268H337.424ZM343.045 314.268L341.257 320.932L348.076 332.823L416.454 314.268H343.045ZM333.925 279.298L336.596 289.133L363.233 262.501L333.925 279.298ZM328.662 298.967L336.244 312.194L339.779 306.037L335.898 291.731L328.662 298.967ZM334.933 290.772L320.628 286.892L314.47 290.42L327.697 298.008L334.933 290.772ZM313.851 291.624V311.943L326.773 299.027L313.851 291.624ZM312.492 291.624L299.545 299.027L312.468 311.943L312.492 291.624ZM297.59 298.991L290.354 291.761L286.474 306.066L290.009 312.218L297.59 298.991ZM298.55 298.032L311.776 290.444L305.619 286.915L291.314 290.796L298.55 298.032ZM303.95 285.962L293.549 280.001L290.974 289.484L303.95 285.962ZM307.479 286.415L312.468 289.27V285.056L307.479 286.415ZM313.851 289.27L318.839 286.415L313.851 285.056V289.27ZM335.344 289.478L332.769 279.995L322.368 285.956L335.344 289.478ZM364.258 263.461L337.627 290.098L347.462 292.769L364.258 263.461ZM337.251 291.421L340.768 304.397L346.729 293.996L337.251 291.421ZM416.472 312.879L348.093 294.354L341.275 306.275L343.057 312.879H416.472ZM341.674 312.879L340.315 307.89L337.46 312.879H341.674ZM335.118 312.879L327.715 299.957L314.786 312.879H335.118ZM311.508 312.879L298.592 299.957L291.201 312.879H311.508ZM288.858 312.879L286.003 307.89L284.608 312.879H288.858ZM209.846 312.879H283.202L284.99 306.221L278.171 294.3L209.846 312.879ZM279.584 293.961L285.544 304.362L289.031 291.421L279.584 293.961ZM278.886 292.739L288.721 290.068L262.084 263.431L278.886 292.739ZM263.049 262.471L289.687 289.103L292.357 279.268L263.049 262.471ZM293.943 278.606L305.798 285.461L312.462 283.673V210.258L293.943 278.606ZM313.851 283.673L320.514 285.461L332.406 278.642L313.851 210.258V283.673Z" fill="url(#paint82_linear_1131_7667)"/>
<defs>
<filter id="filter0_di_1131_7667" x="0.410156" y="0.855957" width="625.464" height="625.464" filterUnits="userSpaceOnUse" color-interpolation-filters="sRGB">
<feFlood flood-opacity="0" result="BackgroundImageFix"/>
<feColorMatrix in="SourceAlpha" type="matrix" values="0 0 0 0 0 0 0 0 0 0 0 0 0 0 0 0 0 0 127 0" result="hardAlpha"/>
<feOffset/>
<feGaussianBlur stdDeviation="95"/>
<feComposite in2="hardAlpha" operator="out"/>
<feColorMatrix type="matrix" values="0 0 0 0 0 0 0 0 0 0.52 0 0 0 0 1 0 0 0 0.6 0"/>
<feBlend mode="normal" in2="BackgroundImageFix" result="effect1_dropShadow_1131_7667"/>
<feBlend mode="normal" in="SourceGraphic" in2="effect1_dropShadow_1131_7667" result="shape"/>
<feColorMatrix in="SourceAlpha" type="matrix" values="0 0 0 0 0 0 0 0 0 0 0 0 0 0 0 0 0 0 127 0" result="hardAlpha"/>
<feOffset/>
<feGaussianBlur stdDeviation="15"/>
<feComposite in2="hardAlpha" operator="arithmetic" k2="-1" k3="1"/>
<feColorMatrix type="matrix" values="0 0 0 0 0 0 0 0 0 0.1 0 0 0 0 1 0 0 0 0.45 0"/>
<feBlend mode="normal" in2="shape" result="effect2_innerShadow_1131_7667"/>
</filter>
<linearGradient id="paint0_linear_1131_7667" x1="-308121" y1="-94077.6" x2="-295505" y2="-86559" gradientUnits="userSpaceOnUse">
<stop stop-color="#A36D4F"/>
<stop offset="1" stop-color="white"/>
</linearGradient>
<linearGradient id="paint1_linear_1131_7667" x1="-347103" y1="-88949.9" x2="-334297" y2="-79860.2" gradientUnits="userSpaceOnUse">
<stop stop-color="#A36D4F"/>
<stop offset="1" stop-color="white"/>
</linearGradient>
<linearGradient id="paint2_linear_1131_7667" x1="-383422" y1="-83122.1" x2="-370936" y2="-72649" gradientUnits="userSpaceOnUse">
<stop stop-color="#A36D4F"/>
<stop offset="1" stop-color="white"/>
</linearGradient>
<linearGradient id="paint3_linear_1131_7667" x1="-417303" y1="-76789.4" x2="-405587" y2="-65215.8" gradientUnits="userSpaceOnUse">
<stop stop-color="#A36D4F"/>
<stop offset="1" stop-color="white"/>
</linearGradient>
<linearGradient id="paint4_linear_1131_7667" x1="-448482" y1="-69945" x2="-437928" y2="-57650.1" gradientUnits="userSpaceOnUse">
<stop stop-color="#A36D4F"/>
<stop offset="1" stop-color="white"/>
</linearGradient>
<linearGradient id="paint5_linear_1131_7667" x1="-476486" y1="-62598.3" x2="-467405" y2="-50046.9" gradientUnits="userSpaceOnUse">
<stop stop-color="#A36D4F"/>
<stop offset="1" stop-color="white"/>
</linearGradient>
<linearGradient id="paint6_linear_1131_7667" x1="-501136" y1="-54816.8" x2="-493728" y2="-42527" gradientUnits="userSpaceOnUse">
<stop stop-color="#A36D4F"/>
<stop offset="1" stop-color="white"/>
</linearGradient>
<linearGradient id="paint7_linear_1131_7667" x1="-522521" y1="-46686.2" x2="-516857" y2="-35193.6" gradientUnits="userSpaceOnUse">
<stop stop-color="#A36D4F"/>
<stop offset="1" stop-color="white"/>
</linearGradient>
<linearGradient id="paint8_linear_1131_7667" x1="-540138" y1="-38220.7" x2="-536166" y2="-28061.7" gradientUnits="userSpaceOnUse">
<stop stop-color="#A36D4F"/>
<stop offset="1" stop-color="white"/>
</linearGradient>
<linearGradient id="paint9_linear_1131_7667" x1="-554678" y1="-29538.7" x2="-552216" y2="-21191.8" gradientUnits="userSpaceOnUse">
<stop stop-color="#A36D4F"/>
<stop offset="1" stop-color="white"/>
</linearGradient>
<linearGradient id="paint10_linear_1131_7667" x1="-564947" y1="-20626" x2="-563706" y2="-14514.1" gradientUnits="userSpaceOnUse">
<stop stop-color="#A36D4F"/>
<stop offset="1" stop-color="white"/>
</linearGradient>
<linearGradient id="paint11_linear_1131_7667" x1="-571440" y1="-11586.6" x2="-571033" y2="-8016.48" gradientUnits="userSpaceOnUse">
<stop stop-color="#A36D4F"/>
<stop offset="1" stop-color="white"/>
</linearGradient>
<linearGradient id="paint12_linear_1131_7667" x1="-574089" y1="-2474.49" x2="-574067" y2="-1627.97" gradientUnits="userSpaceOnUse">
<stop stop-color="#A36D4F"/>
<stop offset="1" stop-color="white"/>
</linearGradient>
<linearGradient id="paint13_linear_1131_7667" x1="-572839" y1="-8296.02" x2="-572626" y2="-5700.68" gradientUnits="userSpaceOnUse">
<stop stop-color="#A36D4F"/>
<stop offset="1" stop-color="white"/>
</linearGradient>
<linearGradient id="paint14_linear_1131_7667" x1="-567742" y1="-17397.5" x2="-566851" y2="-12174.9" gradientUnits="userSpaceOnUse">
<stop stop-color="#A36D4F"/>
<stop offset="1" stop-color="white"/>
</linearGradient>
<linearGradient id="paint15_linear_1131_7667" x1="-558694" y1="-26361.4" x2="-556714" y2="-18783.7" gradientUnits="userSpaceOnUse">
<stop stop-color="#A36D4F"/>
<stop offset="1" stop-color="white"/>
</linearGradient>
<linearGradient id="paint16_linear_1131_7667" x1="-545915" y1="-35146.6" x2="-542519" y2="-25592.5" gradientUnits="userSpaceOnUse">
<stop stop-color="#A36D4F"/>
<stop offset="1" stop-color="white"/>
</linearGradient>
<linearGradient id="paint17_linear_1131_7667" x1="-529505" y1="-43729" x2="-524466" y2="-32656.9" gradientUnits="userSpaceOnUse">
<stop stop-color="#A36D4F"/>
<stop offset="1" stop-color="white"/>
</linearGradient>
<linearGradient id="paint18_linear_1131_7667" x1="-509115" y1="-51959.6" x2="-502341" y2="-39901.8" gradientUnits="userSpaceOnUse">
<stop stop-color="#A36D4F"/>
<stop offset="1" stop-color="white"/>
</linearGradient>
<linearGradient id="paint19_linear_1131_7667" x1="-485761" y1="-59898.5" x2="-477273" y2="-47382.5" gradientUnits="userSpaceOnUse">
<stop stop-color="#A36D4F"/>
<stop offset="1" stop-color="white"/>
</linearGradient>
<linearGradient id="paint20_linear_1131_7667" x1="-458800" y1="-67398.7" x2="-448757" y2="-54959.8" gradientUnits="userSpaceOnUse">
<stop stop-color="#A36D4F"/>
<stop offset="1" stop-color="white"/>
</linearGradient>
<linearGradient id="paint21_linear_1131_7667" x1="-428917" y1="-74462.8" x2="-417584" y2="-62579.8" gradientUnits="userSpaceOnUse">
<stop stop-color="#A36D4F"/>
<stop offset="1" stop-color="white"/>
</linearGradient>
<linearGradient id="paint22_linear_1131_7667" x1="-395995" y1="-80990.3" x2="-383741" y2="-70080" gradientUnits="userSpaceOnUse">
<stop stop-color="#A36D4F"/>
<stop offset="1" stop-color="white"/>
</linearGradient>
<linearGradient id="paint23_linear_1131_7667" x1="-360471" y1="-87007.3" x2="-347729" y2="-77391.3" gradientUnits="userSpaceOnUse">
<stop stop-color="#A36D4F"/>
<stop offset="1" stop-color="white"/>
</linearGradient>
<linearGradient id="paint24_linear_1131_7667" x1="-322496" y1="-92432.3" x2="-309753" y2="-84330.7" gradientUnits="userSpaceOnUse">
<stop stop-color="#A36D4F"/>
<stop offset="1" stop-color="white"/>
</linearGradient>
<linearGradient id="paint25_linear_1131_7667" x1="-282273" y1="-97166.2" x2="-270040" y2="-90688.1" gradientUnits="userSpaceOnUse">
<stop stop-color="#A36D4F"/>
<stop offset="1" stop-color="white"/>
</linearGradient>
<linearGradient id="paint26_linear_1131_7667" x1="-240198" y1="-101292" x2="-228966" y2="-96435" gradientUnits="userSpaceOnUse">
<stop stop-color="#A36D4F"/>
<stop offset="1" stop-color="white"/>
</linearGradient>
<linearGradient id="paint27_linear_1131_7667" x1="-196552" y1="-104726" x2="-186784" y2="-101382" gradientUnits="userSpaceOnUse">
<stop stop-color="#A36D4F"/>
<stop offset="1" stop-color="white"/>
</linearGradient>
<linearGradient id="paint28_linear_1131_7667" x1="-151552" y1="-107443" x2="-143657" y2="-105410" gradientUnits="userSpaceOnUse">
<stop stop-color="#A36D4F"/>
<stop offset="1" stop-color="white"/>
</linearGradient>
<linearGradient id="paint29_linear_1131_7667" x1="-105633" y1="-109498" x2="-99937.5" y2="-108494" gradientUnits="userSpaceOnUse">
<stop stop-color="#A36D4F"/>
<stop offset="1" stop-color="white"/>
</linearGradient>
<linearGradient id="paint30_linear_1131_7667" x1="-58867.5" y1="-110684" x2="-55617.9" y2="-110367" gradientUnits="userSpaceOnUse">
<stop stop-color="#A36D4F"/>
<stop offset="1" stop-color="white"/>
</linearGradient>
<linearGradient id="paint31_linear_1131_7667" x1="-11819.7" y1="-111135" x2="-11147.4" y2="-111122" gradientUnits="userSpaceOnUse">
<stop stop-color="#A36D4F"/>
<stop offset="1" stop-color="white"/>
</linearGradient>
<linearGradient id="paint32_linear_1131_7667" x1="-46371.5" y1="-110879" x2="-43799.5" y2="-110681" gradientUnits="userSpaceOnUse">
<stop stop-color="#A36D4F"/>
<stop offset="1" stop-color="white"/>
</linearGradient>
<linearGradient id="paint33_linear_1131_7667" x1="-93235.5" y1="-109878" x2="-88173.2" y2="-109093" gradientUnits="userSpaceOnUse">
<stop stop-color="#A36D4F"/>
<stop offset="1" stop-color="white"/>
</linearGradient>
<linearGradient id="paint34_linear_1131_7667" x1="-139407" y1="-108115" x2="-132071" y2="-106388" gradientUnits="userSpaceOnUse">
<stop stop-color="#A36D4F"/>
<stop offset="1" stop-color="white"/>
</linearGradient>
<linearGradient id="paint35_linear_1131_7667" x1="-184707" y1="-105533" x2="-175403" y2="-102562" gradientUnits="userSpaceOnUse">
<stop stop-color="#A36D4F"/>
<stop offset="1" stop-color="white"/>
</linearGradient>
<linearGradient id="paint36_linear_1131_7667" x1="-228768" y1="-102290" x2="-217883" y2="-97852.5" gradientUnits="userSpaceOnUse">
<stop stop-color="#A36D4F"/>
<stop offset="1" stop-color="white"/>
</linearGradient>
<linearGradient id="paint37_linear_1131_7667" x1="-271389" y1="-98370.9" x2="-259370" y2="-92328.5" gradientUnits="userSpaceOnUse">
<stop stop-color="#A36D4F"/>
<stop offset="1" stop-color="white"/>
</linearGradient>
<linearGradient id="paint38_linear_1131_7667" x1="-312038" y1="-93755.9" x2="-299382" y2="-86082.2" gradientUnits="userSpaceOnUse">
<stop stop-color="#A36D4F"/>
<stop offset="1" stop-color="white"/>
</linearGradient>
<linearGradient id="paint39_linear_1131_7667" x1="-350738" y1="-88531" x2="-337945" y2="-79300.4" gradientUnits="userSpaceOnUse">
<stop stop-color="#A36D4F"/>
<stop offset="1" stop-color="white"/>
</linearGradient>
<linearGradient id="paint40_linear_1131_7667" x1="-386802" y1="-82651.6" x2="-374374" y2="-72061.7" gradientUnits="userSpaceOnUse">
<stop stop-color="#A36D4F"/>
<stop offset="1" stop-color="white"/>
</linearGradient>
<linearGradient id="paint41_linear_1131_7667" x1="-420562" y1="-76262.8" x2="-408943" y2="-64601.6" gradientUnits="userSpaceOnUse">
<stop stop-color="#A36D4F"/>
<stop offset="1" stop-color="white"/>
</linearGradient>
<linearGradient id="paint42_linear_1131_7667" x1="-451395" y1="-69356.5" x2="-440973" y2="-57017.2" gradientUnits="userSpaceOnUse">
<stop stop-color="#A36D4F"/>
<stop offset="1" stop-color="white"/>
</linearGradient>
<linearGradient id="paint43_linear_1131_7667" x1="-479027" y1="-61946" x2="-470103" y2="-49400.1" gradientUnits="userSpaceOnUse">
<stop stop-color="#A36D4F"/>
<stop offset="1" stop-color="white"/>
</linearGradient>
<linearGradient id="paint44_linear_1131_7667" x1="-503485" y1="-54128.6" x2="-496244" y2="-41892.6" gradientUnits="userSpaceOnUse">
<stop stop-color="#A36D4F"/>
<stop offset="1" stop-color="white"/>
</linearGradient>
<linearGradient id="paint45_linear_1131_7667" x1="-524548" y1="-45955.5" x2="-519050" y2="-34568.4" gradientUnits="userSpaceOnUse">
<stop stop-color="#A36D4F"/>
<stop offset="1" stop-color="white"/>
</linearGradient>
<linearGradient id="paint46_linear_1131_7667" x1="-542020" y1="-37467.7" x2="-538202" y2="-27459.1" gradientUnits="userSpaceOnUse">
<stop stop-color="#A36D4F"/>
<stop offset="1" stop-color="white"/>
</linearGradient>
<linearGradient id="paint47_linear_1131_7667" x1="-556009" y1="-28736.4" x2="-553679" y2="-20587.1" gradientUnits="userSpaceOnUse">
<stop stop-color="#A36D4F"/>
<stop offset="1" stop-color="white"/>
</linearGradient>
<linearGradient id="paint48_linear_1131_7667" x1="-565886" y1="-19792.8" x2="-564743" y2="-13913.5" gradientUnits="userSpaceOnUse">
<stop stop-color="#A36D4F"/>
<stop offset="1" stop-color="white"/>
</linearGradient>
<linearGradient id="paint49_linear_1131_7667" x1="-572029" y1="-10731" x2="-571679" y2="-7416.24" gradientUnits="userSpaceOnUse">
<stop stop-color="#A36D4F"/>
<stop offset="1" stop-color="white"/>
</linearGradient>
<linearGradient id="paint50_linear_1131_7667" x1="-574302" y1="-1594.31" x2="-574292" y2="-1015.27" gradientUnits="userSpaceOnUse">
<stop stop-color="#A36D4F"/>
<stop offset="1" stop-color="white"/>
</linearGradient>
<linearGradient id="paint51_linear_1131_7667" x1="-572687" y1="-9159.25" x2="-572428" y2="-6303.86" gradientUnits="userSpaceOnUse">
<stop stop-color="#A36D4F"/>
<stop offset="1" stop-color="white"/>
</linearGradient>
<linearGradient id="paint52_linear_1131_7667" x1="-567170" y1="-18239.1" x2="-566191" y2="-12776.2" gradientUnits="userSpaceOnUse">
<stop stop-color="#A36D4F"/>
<stop offset="1" stop-color="white"/>
</linearGradient>
<linearGradient id="paint53_linear_1131_7667" x1="-557902" y1="-27185.9" x2="-555797" y2="-19396.8" gradientUnits="userSpaceOnUse">
<stop stop-color="#A36D4F"/>
<stop offset="1" stop-color="white"/>
</linearGradient>
<linearGradient id="paint54_linear_1131_7667" x1="-544616" y1="-35933.7" x2="-541069" y2="-26211.2" gradientUnits="userSpaceOnUse">
<stop stop-color="#A36D4F"/>
<stop offset="1" stop-color="white"/>
</linearGradient>
<linearGradient id="paint55_linear_1131_7667" x1="-527798" y1="-44441.5" x2="-522598" y2="-33255.7" gradientUnits="userSpaceOnUse">
<stop stop-color="#A36D4F"/>
<stop offset="1" stop-color="white"/>
</linearGradient>
<linearGradient id="paint56_linear_1131_7667" x1="-507218" y1="-52671.5" x2="-500274" y2="-40543.9" gradientUnits="userSpaceOnUse">
<stop stop-color="#A36D4F"/>
<stop offset="1" stop-color="white"/>
</linearGradient>
<linearGradient id="paint57_linear_1131_7667" x1="-483451" y1="-60533.4" x2="-474807" y2="-48003.2" gradientUnits="userSpaceOnUse">
<stop stop-color="#A36D4F"/>
<stop offset="1" stop-color="white"/>
</linearGradient>
<linearGradient id="paint58_linear_1131_7667" x1="-456264" y1="-68002.5" x2="-446082" y2="-55595.2" gradientUnits="userSpaceOnUse">
<stop stop-color="#A36D4F"/>
<stop offset="1" stop-color="white"/>
</linearGradient>
<linearGradient id="paint59_linear_1131_7667" x1="-425817" y1="-74978.6" x2="-414381" y2="-63177.6" gradientUnits="userSpaceOnUse">
<stop stop-color="#A36D4F"/>
<stop offset="1" stop-color="white"/>
</linearGradient>
<linearGradient id="paint60_linear_1131_7667" x1="-393093" y1="-81532.5" x2="-380763" y2="-70726.6" gradientUnits="userSpaceOnUse">
<stop stop-color="#A36D4F"/>
<stop offset="1" stop-color="white"/>
</linearGradient>
<linearGradient id="paint61_linear_1131_7667" x1="-357080" y1="-87430.8" x2="-344316" y2="-77951.2" gradientUnits="userSpaceOnUse">
<stop stop-color="#A36D4F"/>
<stop offset="1" stop-color="white"/>
</linearGradient>
<linearGradient id="paint62_linear_1131_7667" x1="-318881" y1="-92783.1" x2="-306163" y2="-84832.8" gradientUnits="userSpaceOnUse">
<stop stop-color="#A36D4F"/>
<stop offset="1" stop-color="white"/>
</linearGradient>
<linearGradient id="paint63_linear_1131_7667" x1="-278382" y1="-97449.3" x2="-266223" y2="-91129.6" gradientUnits="userSpaceOnUse">
<stop stop-color="#A36D4F"/>
<stop offset="1" stop-color="white"/>
</linearGradient>
<linearGradient id="paint64_linear_1131_7667" x1="-236132" y1="-101493" x2="-225021" y2="-96787.9" gradientUnits="userSpaceOnUse">
<stop stop-color="#A36D4F"/>
<stop offset="1" stop-color="white"/>
</linearGradient>
<linearGradient id="paint65_linear_1131_7667" x1="-192332" y1="-104855" x2="-182728" y2="-101648" gradientUnits="userSpaceOnUse">
<stop stop-color="#A36D4F"/>
<stop offset="1" stop-color="white"/>
</linearGradient>
<linearGradient id="paint66_linear_1131_7667" x1="-147215" y1="-107490" x2="-139519" y2="-105569" gradientUnits="userSpaceOnUse">
<stop stop-color="#A36D4F"/>
<stop offset="1" stop-color="white"/>
</linearGradient>
<linearGradient id="paint67_linear_1131_7667" x1="-101120" y1="-109458" x2="-95654" y2="-108538" gradientUnits="userSpaceOnUse">
<stop stop-color="#A36D4F"/>
<stop offset="1" stop-color="white"/>
</linearGradient>
<linearGradient id="paint68_linear_1131_7667" x1="-54387.9" y1="-110589" x2="-51381" y2="-110318" gradientUnits="userSpaceOnUse">
<stop stop-color="#A36D4F"/>
<stop offset="1" stop-color="white"/>
</linearGradient>
<linearGradient id="paint69_linear_1131_7667" x1="-7290.19" y1="-110965" x2="-6868.87" y2="-110959" gradientUnits="userSpaceOnUse">
<stop stop-color="#A36D4F"/>
<stop offset="1" stop-color="white"/>
</linearGradient>
<linearGradient id="paint70_linear_1131_7667" x1="-50837.3" y1="-110643" x2="-48021.9" y2="-110406" gradientUnits="userSpaceOnUse">
<stop stop-color="#A36D4F"/>
<stop offset="1" stop-color="white"/>
</linearGradient>
<linearGradient id="paint71_linear_1131_7667" x1="-97742.5" y1="-109557" x2="-92447.5" y2="-108696" gradientUnits="userSpaceOnUse">
<stop stop-color="#A36D4F"/>
<stop offset="1" stop-color="white"/>
</linearGradient>
<linearGradient id="paint72_linear_1131_7667" x1="-143844" y1="-107735" x2="-136300" y2="-105900" gradientUnits="userSpaceOnUse">
<stop stop-color="#A36D4F"/>
<stop offset="1" stop-color="white"/>
</linearGradient>
<linearGradient id="paint73_linear_1131_7667" x1="-188949" y1="-105075" x2="-179474" y2="-101972" gradientUnits="userSpaceOnUse">
<stop stop-color="#A36D4F"/>
<stop offset="1" stop-color="white"/>
</linearGradient>
<linearGradient id="paint74_linear_1131_7667" x1="-232869" y1="-101787" x2="-221854" y2="-97199.3" gradientUnits="userSpaceOnUse">
<stop stop-color="#A36D4F"/>
<stop offset="1" stop-color="white"/>
</linearGradient>
<linearGradient id="paint75_linear_1131_7667" x1="-275297" y1="-97808.9" x2="-263195" y2="-91609.6" gradientUnits="userSpaceOnUse">
<stop stop-color="#A36D4F"/>
<stop offset="1" stop-color="white"/>
</linearGradient>
<linearGradient id="paint76_linear_1131_7667" x1="313.141" y1="437.214" x2="313.141" y2="189.962" gradientUnits="userSpaceOnUse">
<stop stop-color="#AB8D60"/>
<stop offset="0.07" stop-color="#B29466"/>
<stop offset="0.51" stop-color="#DBC087"/>
<stop offset="1" stop-color="#AB8D60"/>
</linearGradient>
<linearGradient id="paint77_linear_1131_7667" x1="500.2" y1="208.35" x2="130.829" y2="421.604" gradientUnits="userSpaceOnUse">
<stop stop-color="#666666"/>
<stop offset="0.28" stop-color="#A0A0A0"/>
<stop offset="0.51" stop-color="#CCCCCC"/>
<stop offset="1" stop-color="#666666"/>
</linearGradient>
<linearGradient id="paint78_linear_1131_7667" x1="-102355" y1="-186955" x2="-77826.5" y2="-186955" gradientUnits="userSpaceOnUse">
<stop stop-color="#AB8D60"/>
<stop offset="0.07" stop-color="#B29466"/>
<stop offset="0.51" stop-color="#DBC087"/>
<stop offset="1" stop-color="#AB8D60"/>
</linearGradient>
<linearGradient id="paint79_linear_1131_7667" x1="-81618.4" y1="-133971" x2="-73121.7" y2="-133971" gradientUnits="userSpaceOnUse">
<stop stop-color="#666666"/>
<stop offset="0.28" stop-color="#A0A0A0"/>
<stop offset="0.51" stop-color="#CCCCCC"/>
<stop offset="1" stop-color="#666666"/>
</linearGradient>
<linearGradient id="paint80_linear_1131_7667" x1="-53425.2" y1="-89751.6" x2="-49624.3" y2="-89751.6" gradientUnits="userSpaceOnUse">
<stop stop-color="#666666"/>
<stop offset="0.28" stop-color="#A0A0A0"/>
<stop offset="0.51" stop-color="#CCCCCC"/>
<stop offset="1" stop-color="#666666"/>
</linearGradient>
<linearGradient id="paint81_linear_1131_7667" x1="-32813.4" y1="-86174.1" x2="-24248.9" y2="-86174.1" gradientUnits="userSpaceOnUse">
<stop stop-color="#AB8D60"/>
<stop offset="0.07" stop-color="#B29466"/>
<stop offset="0.51" stop-color="#DBC087"/>
<stop offset="1" stop-color="#AB8D60"/>
</linearGradient>
<linearGradient id="paint82_linear_1131_7667" x1="204.017" y1="313.588" x2="422.266" y2="313.588" gradientUnits="userSpaceOnUse">
<stop stop-color="#999999"/>
<stop offset="0.07" stop-color="#A0A0A0"/>
<stop offset="0.51" stop-color="#CCCCCC"/>
<stop offset="1" stop-color="#999999"/>
</linearGradient>
</defs>
</svg>
