<svg width="627" height="627" viewBox="0 0 627 627" fill="none" xmlns="http://www.w3.org/2000/svg">
<g opacity="0.3">
<path d="M314.179 313.582C314.178 313.751 314.13 313.916 314.042 314.059L221.273 461.652C221.146 461.853 220.945 461.996 220.714 462.048C220.483 462.101 220.24 462.059 220.039 461.933C219.838 461.806 219.696 461.605 219.643 461.374C219.591 461.142 219.632 460.9 219.759 460.699L312.528 313.106C312.59 313.006 312.672 312.92 312.768 312.852C312.864 312.784 312.972 312.736 313.086 312.71C313.201 312.684 313.32 312.681 313.436 312.7C313.551 312.72 313.662 312.763 313.761 312.825C313.889 312.907 313.993 313.019 314.066 313.151C314.139 313.283 314.178 313.431 314.179 313.582Z" fill="url(#paint0_linear_1131_7510)"/>
<path d="M314.178 313.582C314.178 313.775 314.115 313.964 313.999 314.118L209.327 453.546C209.261 453.649 209.174 453.738 209.071 453.806C208.969 453.874 208.854 453.92 208.733 453.942C208.612 453.963 208.488 453.96 208.368 453.931C208.248 453.903 208.136 453.85 208.038 453.776C207.94 453.702 207.858 453.608 207.797 453.501C207.737 453.394 207.699 453.276 207.687 453.154C207.674 453.032 207.686 452.908 207.724 452.791C207.761 452.674 207.822 452.565 207.903 452.473L312.581 313.046C312.693 312.895 312.85 312.785 313.029 312.729C313.208 312.673 313.401 312.674 313.579 312.734C313.757 312.793 313.911 312.907 314.021 313.059C314.131 313.211 314.19 313.394 314.19 313.582H314.178Z" fill="url(#paint1_linear_1131_7510)"/>
<path d="M314.179 313.582C314.178 313.801 314.097 314.013 313.952 314.178L198.098 444.438C197.94 444.615 197.718 444.722 197.481 444.736C197.244 444.749 197.012 444.668 196.835 444.51C196.658 444.352 196.551 444.13 196.537 443.893C196.524 443.656 196.605 443.423 196.763 443.246L312.617 312.992C312.738 312.856 312.897 312.761 313.073 312.718C313.249 312.675 313.434 312.687 313.603 312.751C313.773 312.816 313.919 312.931 314.021 313.08C314.124 313.229 314.179 313.407 314.179 313.588V313.582Z" fill="url(#paint2_linear_1131_7510)"/>
<path d="M314.179 313.582C314.178 313.704 314.153 313.824 314.105 313.936C314.057 314.048 313.987 314.148 313.899 314.232L187.662 434.473C187.489 434.636 187.259 434.725 187.022 434.719C186.784 434.713 186.559 434.612 186.395 434.44C186.231 434.268 186.143 434.037 186.149 433.8C186.155 433.562 186.256 433.337 186.428 433.173L312.665 312.939C312.792 312.82 312.951 312.741 313.123 312.71C313.294 312.68 313.471 312.7 313.631 312.768C313.791 312.837 313.928 312.95 314.025 313.094C314.123 313.239 314.176 313.408 314.179 313.582Z" fill="url(#paint3_linear_1131_7510)"/>
<path d="M314.179 313.583C314.179 313.716 314.149 313.848 314.091 313.969C314.033 314.09 313.949 314.196 313.845 314.28L178.089 423.637C177.999 423.719 177.893 423.783 177.778 423.823C177.662 423.863 177.54 423.879 177.418 423.87C177.296 423.861 177.177 423.827 177.069 423.77C176.961 423.713 176.865 423.635 176.789 423.54C176.712 423.445 176.655 423.335 176.623 423.217C176.59 423.099 176.582 422.976 176.599 422.855C176.616 422.734 176.657 422.618 176.721 422.513C176.784 422.409 176.869 422.319 176.969 422.248L312.724 312.879C312.856 312.774 313.014 312.707 313.182 312.688C313.35 312.668 313.519 312.697 313.671 312.77C313.823 312.843 313.952 312.957 314.041 313.1C314.131 313.243 314.179 313.408 314.179 313.577V313.583Z" fill="url(#paint4_linear_1131_7510)"/>
<path d="M314.179 313.582C314.179 313.728 314.143 313.872 314.075 314.001C314.006 314.13 313.907 314.24 313.785 314.321L169.441 412.073C169.344 412.146 169.233 412.2 169.115 412.229C168.997 412.258 168.874 412.263 168.755 412.244C168.635 412.224 168.52 412.18 168.417 412.115C168.315 412.049 168.227 411.963 168.159 411.863C168.091 411.762 168.044 411.649 168.021 411.529C167.998 411.41 168 411.287 168.026 411.168C168.052 411.05 168.103 410.938 168.174 410.839C168.245 410.74 168.335 410.657 168.439 410.595L312.784 312.843C312.981 312.712 313.221 312.664 313.453 312.708C313.685 312.753 313.89 312.887 314.024 313.081C314.123 313.23 314.177 313.404 314.179 313.582Z" fill="url(#paint5_linear_1131_7510)"/>
<path d="M314.179 313.582C314.179 313.742 314.136 313.898 314.055 314.035C313.975 314.172 313.859 314.286 313.72 314.363L161.781 399.824C161.574 399.941 161.329 399.97 161.101 399.906C160.872 399.841 160.679 399.689 160.562 399.482C160.446 399.275 160.417 399.03 160.481 398.801C160.546 398.573 160.698 398.379 160.905 398.263L312.844 312.807C312.946 312.749 313.059 312.712 313.176 312.697C313.293 312.683 313.412 312.692 313.525 312.723C313.639 312.755 313.745 312.808 313.838 312.881C313.93 312.954 314.008 313.044 314.065 313.147C314.14 313.28 314.179 313.43 314.179 313.582Z" fill="url(#paint6_linear_1131_7510)"/>
<path d="M314.179 313.582C314.178 313.754 314.128 313.922 314.035 314.066C313.942 314.211 313.81 314.326 313.654 314.399L155.159 386.985C154.943 387.084 154.697 387.093 154.475 387.01C154.252 386.928 154.072 386.76 153.973 386.544C153.874 386.328 153.865 386.082 153.948 385.86C154.031 385.637 154.198 385.457 154.414 385.358L312.909 312.771C313.016 312.721 313.132 312.692 313.251 312.686C313.369 312.681 313.487 312.7 313.598 312.741C313.709 312.782 313.811 312.845 313.897 312.926C313.984 313.007 314.053 313.104 314.101 313.212C314.153 313.329 314.179 313.455 314.179 313.582Z" fill="url(#paint7_linear_1131_7510)"/>
<path d="M314.179 313.582C314.179 313.766 314.122 313.947 314.015 314.097C313.908 314.248 313.757 314.361 313.583 314.422L149.622 373.639C149.404 373.699 149.172 373.674 148.972 373.57C148.771 373.465 148.618 373.289 148.543 373.076C148.467 372.863 148.475 372.63 148.565 372.422C148.654 372.215 148.819 372.049 149.026 371.959L312.981 312.741C313.204 312.661 313.449 312.672 313.664 312.773C313.878 312.873 314.044 313.055 314.125 313.278C314.16 313.375 314.178 313.478 314.179 313.582Z" fill="url(#paint8_linear_1131_7510)"/>
<path d="M314.179 313.582C314.179 313.779 314.114 313.97 313.995 314.127C313.875 314.283 313.707 314.395 313.517 314.446L145.217 359.883C145.101 359.923 144.979 359.938 144.857 359.929C144.735 359.919 144.616 359.884 144.508 359.827C144.4 359.769 144.305 359.69 144.228 359.595C144.152 359.499 144.096 359.388 144.064 359.27C144.032 359.152 144.025 359.029 144.043 358.908C144.061 358.786 144.103 358.67 144.168 358.566C144.232 358.462 144.317 358.373 144.418 358.303C144.518 358.233 144.632 358.185 144.752 358.161L313.052 312.718C313.281 312.658 313.525 312.69 313.73 312.808C313.936 312.927 314.086 313.121 314.149 313.35C314.168 313.426 314.178 313.504 314.179 313.582Z" fill="url(#paint9_linear_1131_7510)"/>
<path d="M314.179 313.582C314.178 313.792 314.105 313.994 313.971 314.155C313.837 314.316 313.651 314.426 313.446 314.465L141.963 345.811C141.846 345.835 141.725 345.836 141.608 345.813C141.491 345.791 141.38 345.744 141.281 345.678C141.182 345.611 141.097 345.526 141.031 345.426C140.966 345.326 140.921 345.214 140.9 345.097C140.878 344.979 140.881 344.859 140.906 344.742C140.932 344.626 140.981 344.516 141.05 344.418C141.119 344.321 141.207 344.239 141.309 344.176C141.41 344.113 141.523 344.071 141.641 344.052L313.124 312.706C313.356 312.664 313.595 312.716 313.79 312.85C313.984 312.984 314.117 313.19 314.161 313.422C314.173 313.474 314.179 313.528 314.179 313.582Z" fill="url(#paint10_linear_1131_7510)"/>
<path d="M314.179 313.582C314.18 313.805 314.097 314.02 313.947 314.184C313.796 314.349 313.59 314.451 313.368 314.47L139.882 331.517C139.765 331.529 139.646 331.518 139.534 331.483C139.421 331.449 139.315 331.393 139.224 331.319C139.133 331.244 139.057 331.152 139.001 331.048C138.945 330.944 138.911 330.83 138.899 330.713C138.887 330.595 138.899 330.477 138.933 330.364C138.967 330.251 139.023 330.146 139.098 330.054C139.172 329.963 139.264 329.887 139.368 329.831C139.472 329.776 139.586 329.741 139.704 329.729L313.177 312.694C313.294 312.683 313.413 312.694 313.525 312.729C313.638 312.763 313.742 312.819 313.833 312.894C313.924 312.968 313.999 313.06 314.054 313.164C314.109 313.268 314.144 313.382 314.155 313.499C314.166 313.526 314.174 313.554 314.179 313.582Z" fill="url(#paint11_linear_1131_7510)"/>
<path d="M314.179 313.583C314.179 313.818 314.086 314.043 313.921 314.211C313.756 314.378 313.532 314.473 313.297 314.477L138.994 317.099C138.877 317.102 138.76 317.081 138.651 317.038C138.542 316.995 138.442 316.931 138.357 316.85C138.272 316.769 138.204 316.671 138.157 316.564C138.11 316.456 138.085 316.34 138.082 316.223C138.084 315.987 138.176 315.76 138.341 315.59C138.505 315.42 138.728 315.32 138.965 315.311L313.273 312.688C313.39 312.687 313.507 312.708 313.616 312.752C313.725 312.795 313.824 312.86 313.908 312.942C313.993 313.024 314.06 313.121 314.106 313.229C314.152 313.337 314.177 313.453 314.179 313.571V313.583Z" fill="url(#paint12_linear_1131_7510)"/>
<path d="M314.178 313.582C314.181 313.602 314.181 313.622 314.178 313.642C314.163 313.878 314.054 314.098 313.877 314.255C313.699 314.411 313.467 314.491 313.23 314.476L139.304 302.662C139.186 302.655 139.071 302.624 138.966 302.572C138.861 302.519 138.766 302.447 138.689 302.358C138.611 302.27 138.552 302.167 138.514 302.055C138.477 301.944 138.461 301.826 138.469 301.709C138.477 301.591 138.508 301.477 138.56 301.371C138.612 301.266 138.685 301.171 138.773 301.094C138.862 301.017 138.965 300.957 139.076 300.92C139.188 300.882 139.305 300.866 139.423 300.874L313.349 312.694C313.574 312.71 313.784 312.811 313.938 312.976C314.091 313.14 314.177 313.357 314.178 313.582Z" fill="url(#paint13_linear_1131_7510)"/>
<path d="M314.178 313.582C314.181 313.628 314.181 313.674 314.178 313.719C314.161 313.836 314.12 313.947 314.06 314.048C313.999 314.149 313.919 314.237 313.824 314.306C313.729 314.376 313.622 314.427 313.508 314.455C313.394 314.483 313.275 314.488 313.159 314.47L140.8 288.292C140.682 288.274 140.569 288.234 140.468 288.173C140.366 288.111 140.277 288.031 140.207 287.935C140.136 287.84 140.085 287.731 140.056 287.616C140.028 287.501 140.022 287.381 140.04 287.264C140.057 287.146 140.098 287.034 140.159 286.932C140.22 286.83 140.301 286.741 140.396 286.671C140.492 286.6 140.6 286.549 140.716 286.521C140.831 286.492 140.95 286.486 141.068 286.504L313.415 312.7C313.627 312.73 313.821 312.836 313.962 312.998C314.102 313.161 314.179 313.368 314.178 313.582Z" fill="url(#paint14_linear_1131_7510)"/>
<path d="M314.179 313.582C314.188 313.651 314.188 313.722 314.179 313.791C314.152 313.905 314.102 314.013 314.033 314.108C313.964 314.203 313.877 314.284 313.777 314.345C313.677 314.407 313.565 314.448 313.449 314.466C313.333 314.485 313.214 314.48 313.1 314.452L143.513 274.1C143.28 274.049 143.078 273.907 142.95 273.706C142.822 273.506 142.779 273.263 142.83 273.03C142.882 272.798 143.023 272.595 143.224 272.467C143.424 272.339 143.668 272.296 143.9 272.348L313.494 312.7C313.69 312.748 313.865 312.862 313.99 313.022C314.114 313.182 314.181 313.379 314.179 313.582Z" fill="url(#paint15_linear_1131_7510)"/>
<path d="M314.179 313.583C314.177 313.678 314.161 313.773 314.131 313.863C314.098 313.977 314.042 314.083 313.967 314.176C313.892 314.268 313.799 314.344 313.694 314.399C313.589 314.455 313.474 314.489 313.355 314.499C313.237 314.509 313.118 314.496 313.004 314.459L147.339 260.219C147.113 260.145 146.925 259.985 146.817 259.773C146.71 259.561 146.69 259.315 146.764 259.089C146.837 258.863 146.998 258.676 147.209 258.568C147.421 258.46 147.667 258.441 147.893 258.514L313.559 312.754C313.736 312.81 313.892 312.919 314.003 313.068C314.114 313.217 314.176 313.397 314.179 313.583Z" fill="url(#paint16_linear_1131_7510)"/>
<path d="M314.179 313.583C314.178 313.703 314.154 313.823 314.107 313.934C314.062 314.045 313.995 314.146 313.909 314.23C313.824 314.314 313.723 314.38 313.612 314.424C313.5 314.468 313.381 314.489 313.261 314.486C313.142 314.483 313.024 314.455 312.915 314.405L152.328 246.623C152.215 246.58 152.113 246.515 152.026 246.432C151.939 246.349 151.87 246.249 151.823 246.138C151.775 246.027 151.751 245.908 151.751 245.788C151.751 245.668 151.775 245.548 151.822 245.438C151.869 245.327 151.937 245.227 152.024 245.143C152.111 245.06 152.213 244.994 152.326 244.952C152.438 244.909 152.558 244.889 152.678 244.893C152.798 244.898 152.916 244.926 153.025 244.978L313.63 312.76C313.792 312.829 313.93 312.943 314.028 313.089C314.125 313.236 314.178 313.407 314.179 313.583Z" fill="url(#paint17_linear_1131_7510)"/>
<path d="M314.179 313.583C314.178 313.728 314.143 313.871 314.077 314C313.967 314.206 313.781 314.36 313.558 314.431C313.335 314.501 313.094 314.481 312.885 314.375L158.426 233.528C158.233 233.409 158.093 233.221 158.034 233.003C157.974 232.785 157.999 232.552 158.104 232.352C158.209 232.152 158.386 231.999 158.6 231.924C158.813 231.849 159.047 231.857 159.254 231.948L313.696 312.79C313.841 312.866 313.962 312.98 314.047 313.119C314.132 313.259 314.178 313.419 314.179 313.583Z" fill="url(#paint18_linear_1131_7510)"/>
<path d="M314.179 313.582C314.178 313.742 314.134 313.899 314.052 314.037C313.97 314.174 313.853 314.288 313.712 314.365C313.572 314.442 313.414 314.48 313.254 314.476C313.094 314.471 312.938 314.424 312.802 314.339L165.578 220.986C165.377 220.859 165.235 220.657 165.183 220.425C165.131 220.193 165.174 219.95 165.301 219.75C165.428 219.549 165.63 219.407 165.862 219.355C166.094 219.303 166.337 219.345 166.538 219.472L313.773 312.831C313.899 312.912 314.001 313.024 314.072 313.155C314.143 313.286 314.18 313.433 314.179 313.582Z" fill="url(#paint19_linear_1131_7510)"/>
<path d="M314.179 313.583C314.18 313.779 314.115 313.97 313.994 314.125C313.851 314.314 313.639 314.438 313.404 314.47C313.169 314.503 312.931 314.441 312.742 314.298L173.756 209.072C173.577 208.925 173.461 208.715 173.433 208.485C173.406 208.255 173.469 208.024 173.608 207.839C173.748 207.654 173.954 207.531 174.183 207.495C174.412 207.46 174.645 207.514 174.835 207.647L313.821 312.879C313.931 312.961 314.02 313.067 314.082 313.189C314.144 313.311 314.177 313.446 314.179 313.583Z" fill="url(#paint20_linear_1131_7510)"/>
<path d="M314.179 313.582C314.179 313.803 314.096 314.016 313.946 314.179C313.869 314.266 313.774 314.337 313.669 314.388C313.564 314.44 313.449 314.469 313.332 314.476C313.215 314.483 313.098 314.466 312.988 314.427C312.877 314.388 312.776 314.328 312.689 314.25L182.887 197.884C182.71 197.726 182.603 197.504 182.59 197.267C182.576 197.03 182.658 196.797 182.816 196.62C182.974 196.443 183.196 196.336 183.433 196.323C183.67 196.309 183.902 196.39 184.079 196.549L313.881 312.921C313.974 313.004 314.049 313.106 314.101 313.22C314.152 313.334 314.179 313.457 314.179 313.582Z" fill="url(#paint21_linear_1131_7510)"/>
<path d="M314.179 313.582C314.175 313.76 314.119 313.932 314.017 314.078C313.915 314.223 313.772 314.335 313.607 314.398C313.441 314.462 313.26 314.476 313.087 314.436C312.914 314.397 312.757 314.307 312.635 314.178L192.913 187.483C192.756 187.309 192.673 187.081 192.682 186.848C192.691 186.614 192.791 186.393 192.961 186.233C193.131 186.072 193.358 185.984 193.591 185.988C193.825 185.993 194.048 186.088 194.212 186.255L313.934 312.968C314.091 313.135 314.178 313.354 314.179 313.582Z" fill="url(#paint22_linear_1131_7510)"/>
<path d="M314.179 313.582C314.179 313.768 314.122 313.948 314.015 314.1C313.908 314.251 313.756 314.365 313.582 314.427C313.407 314.488 313.217 314.494 313.039 314.443C312.861 314.392 312.703 314.287 312.587 314.143L203.767 177.952C203.694 177.86 203.639 177.754 203.607 177.641C203.575 177.528 203.565 177.41 203.578 177.293C203.591 177.177 203.627 177.064 203.684 176.961C203.741 176.858 203.818 176.767 203.91 176.694C204.002 176.621 204.107 176.567 204.22 176.534C204.333 176.502 204.452 176.492 204.568 176.505C204.685 176.518 204.798 176.555 204.901 176.612C205.004 176.669 205.094 176.745 205.168 176.837L313.982 313.028C314.11 313.185 314.179 313.38 314.179 313.582Z" fill="url(#paint23_linear_1131_7510)"/>
<path d="M314.179 313.582C314.18 313.775 314.119 313.963 314.005 314.118C313.891 314.273 313.73 314.388 313.546 314.444C313.362 314.5 313.164 314.495 312.983 314.43C312.801 314.365 312.646 314.244 312.54 314.083L215.384 169.351C215.313 169.254 215.263 169.143 215.237 169.026C215.21 168.909 215.207 168.788 215.228 168.67C215.25 168.551 215.294 168.439 215.36 168.338C215.426 168.238 215.511 168.151 215.61 168.085C215.71 168.018 215.822 167.972 215.94 167.949C216.058 167.926 216.179 167.928 216.297 167.953C216.414 167.978 216.525 168.027 216.623 168.096C216.721 168.165 216.805 168.253 216.868 168.355L314.024 313.088C314.126 313.232 314.18 313.405 314.179 313.582Z" fill="url(#paint24_linear_1131_7510)"/>
<path d="M314.179 313.582C314.179 313.78 314.113 313.973 313.992 314.129C313.871 314.286 313.701 314.398 313.509 314.447C313.318 314.497 313.115 314.482 312.933 314.404C312.751 314.326 312.6 314.19 312.504 314.018L227.651 161.739C227.541 161.535 227.516 161.296 227.581 161.073C227.645 160.85 227.794 160.661 227.996 160.547C228.201 160.441 228.44 160.417 228.661 160.482C228.883 160.546 229.072 160.693 229.188 160.893L314.065 313.147C314.14 313.28 314.179 313.43 314.179 313.582Z" fill="url(#paint25_linear_1131_7510)"/>
<path d="M314.179 313.583C314.18 313.788 314.111 313.988 313.982 314.148C313.854 314.308 313.674 314.419 313.473 314.462C313.273 314.506 313.063 314.479 312.88 314.386C312.697 314.293 312.552 314.14 312.468 313.952L240.513 155.171C240.424 154.957 240.422 154.716 240.507 154.5C240.592 154.285 240.758 154.11 240.969 154.014C241.18 153.918 241.421 153.908 241.639 153.986C241.858 154.064 242.038 154.224 242.14 154.432L314.095 313.213C314.149 313.329 314.177 313.455 314.179 313.583Z" fill="url(#paint26_linear_1131_7510)"/>
<path d="M314.179 313.582C314.18 313.767 314.123 313.948 314.016 314.099C313.909 314.25 313.758 314.363 313.583 314.423C313.36 314.503 313.114 314.492 312.899 314.392C312.685 314.291 312.519 314.109 312.438 313.886L253.877 149.693C253.798 149.47 253.811 149.224 253.913 149.01C254.015 148.796 254.198 148.631 254.422 148.552C254.646 148.473 254.892 148.486 255.106 148.588C255.32 148.69 255.484 148.874 255.563 149.097L314.125 313.284C314.161 313.38 314.179 313.481 314.179 313.582Z" fill="url(#paint27_linear_1131_7510)"/>
<path d="M314.179 313.583C314.18 313.8 314.101 314.01 313.958 314.174C313.815 314.338 313.617 314.444 313.402 314.473C313.186 314.501 312.968 314.45 312.787 314.329C312.606 314.208 312.476 314.025 312.42 313.815L267.651 145.336C267.621 145.223 267.614 145.104 267.629 144.988C267.645 144.872 267.683 144.759 267.742 144.658C267.801 144.556 267.879 144.467 267.973 144.396C268.066 144.325 268.173 144.273 268.286 144.243C268.4 144.212 268.518 144.205 268.634 144.22C268.751 144.236 268.863 144.274 268.964 144.333C269.066 144.392 269.155 144.471 269.226 144.564C269.297 144.657 269.35 144.764 269.38 144.877L314.149 313.356C314.167 313.43 314.177 313.506 314.179 313.583Z" fill="url(#paint28_linear_1131_7510)"/>
<path d="M314.179 313.582C314.2 313.819 314.126 314.055 313.974 314.238C313.821 314.421 313.602 314.535 313.365 314.557C313.128 314.578 312.892 314.504 312.709 314.352C312.526 314.199 312.412 313.98 312.39 313.743L281.724 142.135C281.697 142.017 281.695 141.895 281.717 141.777C281.739 141.658 281.785 141.545 281.851 141.445C281.918 141.344 282.004 141.258 282.105 141.192C282.206 141.126 282.319 141.081 282.438 141.059C282.557 141.038 282.679 141.041 282.796 141.068C282.914 141.095 283.025 141.145 283.122 141.216C283.22 141.287 283.302 141.377 283.364 141.481C283.426 141.584 283.466 141.7 283.482 141.819L314.161 313.427C314.172 313.478 314.178 313.53 314.179 313.582Z" fill="url(#paint29_linear_1131_7510)"/>
<path d="M314.179 313.582C314.19 313.819 314.106 314.051 313.946 314.226C313.786 314.402 313.563 314.507 313.326 314.518C313.089 314.529 312.857 314.445 312.682 314.285C312.506 314.125 312.402 313.902 312.39 313.665L296.041 140.114C296.03 139.997 296.041 139.878 296.076 139.765C296.11 139.653 296.167 139.548 296.242 139.457C296.317 139.366 296.409 139.29 296.513 139.235C296.617 139.179 296.731 139.145 296.849 139.134C296.966 139.122 297.084 139.134 297.197 139.169C297.31 139.203 297.415 139.259 297.506 139.334C297.597 139.409 297.672 139.502 297.728 139.606C297.783 139.71 297.818 139.824 297.829 139.941L314.173 313.474C314.179 313.51 314.181 313.546 314.179 313.582Z" fill="url(#paint30_linear_1131_7510)"/>
<path d="M314.179 313.582C314.179 313.82 314.085 314.047 313.917 314.215C313.749 314.382 313.522 314.477 313.285 314.477C313.048 314.477 312.82 314.382 312.652 314.215C312.485 314.047 312.391 313.82 312.391 313.582L310.459 139.268C310.459 139.031 310.554 138.804 310.721 138.636C310.889 138.469 311.116 138.374 311.353 138.374C311.591 138.374 311.818 138.469 311.986 138.636C312.153 138.804 312.248 139.031 312.248 139.268L314.179 313.582Z" fill="url(#paint31_linear_1131_7510)"/>
<path d="M326.683 139.71V139.775L314.166 313.648C314.158 313.766 314.126 313.88 314.073 313.986C314.02 314.091 313.947 314.184 313.858 314.261C313.769 314.338 313.666 314.397 313.554 314.434C313.442 314.471 313.324 314.485 313.207 314.477C313.089 314.468 312.975 314.437 312.87 314.384C312.764 314.331 312.671 314.258 312.594 314.169C312.517 314.08 312.458 313.976 312.421 313.864C312.384 313.753 312.37 313.635 312.378 313.517L324.895 139.644C324.904 139.407 325.007 139.183 325.18 139.022C325.354 138.86 325.585 138.774 325.822 138.783C326.059 138.792 326.283 138.894 326.445 139.068C326.606 139.242 326.692 139.473 326.683 139.71Z" fill="url(#paint32_linear_1131_7510)"/>
<path d="M341.037 141.342C341.043 141.388 341.043 141.434 341.037 141.479L314.179 313.737C314.143 313.974 314.014 314.187 313.821 314.329C313.627 314.471 313.385 314.531 313.148 314.494C312.911 314.458 312.698 314.329 312.556 314.135C312.414 313.942 312.355 313.7 312.391 313.463L339.261 141.217C339.279 140.98 339.391 140.76 339.571 140.605C339.752 140.45 339.986 140.374 340.224 140.392C340.461 140.41 340.681 140.522 340.836 140.702C340.991 140.883 341.067 141.117 341.049 141.354L341.037 141.342Z" fill="url(#paint33_linear_1131_7510)"/>
<path d="M355.205 144.156C355.213 144.225 355.213 144.295 355.205 144.364L314.179 313.797C314.123 314.028 313.977 314.227 313.774 314.35C313.572 314.474 313.328 314.511 313.097 314.455C312.866 314.399 312.667 314.254 312.544 314.051C312.42 313.848 312.382 313.604 312.439 313.374L353.441 143.947C353.468 143.71 353.589 143.493 353.776 143.345C353.964 143.197 354.202 143.13 354.439 143.157C354.676 143.185 354.893 143.306 355.041 143.493C355.189 143.68 355.256 143.919 355.229 144.156H355.205Z" fill="url(#paint34_linear_1131_7510)"/>
<path d="M369.092 148.131C369.091 148.229 369.075 148.325 369.045 148.417L314.131 313.862C314.094 313.974 314.036 314.077 313.959 314.166C313.882 314.255 313.789 314.328 313.684 314.381C313.579 314.434 313.465 314.465 313.348 314.474C313.23 314.483 313.113 314.468 313.001 314.432C312.89 314.395 312.786 314.336 312.697 314.26C312.609 314.183 312.536 314.09 312.483 313.985C312.43 313.88 312.398 313.766 312.389 313.648C312.381 313.531 312.395 313.414 312.432 313.302L367.346 147.851C367.41 147.647 367.546 147.473 367.729 147.36C367.911 147.247 368.128 147.204 368.34 147.238C368.551 147.272 368.744 147.381 368.882 147.545C369.02 147.709 369.095 147.917 369.092 148.131Z" fill="url(#paint35_linear_1131_7510)"/>
<path d="M382.599 153.252C382.598 153.371 382.574 153.488 382.527 153.598L314.107 313.934C314.014 314.153 313.837 314.325 313.617 314.413C313.397 314.501 313.151 314.499 312.933 314.405C312.714 314.312 312.542 314.136 312.454 313.916C312.366 313.695 312.368 313.449 312.462 313.231L380.882 152.894C380.963 152.705 381.107 152.549 381.289 152.453C381.472 152.357 381.682 152.327 381.884 152.369C382.086 152.41 382.267 152.52 382.398 152.68C382.528 152.84 382.599 153.04 382.599 153.246V153.252Z" fill="url(#paint36_linear_1131_7510)"/>
<path d="M395.64 159.462C395.64 159.608 395.603 159.751 395.533 159.879L314.071 313.999C314.019 314.108 313.946 314.206 313.856 314.286C313.766 314.366 313.66 314.427 313.545 314.465C313.431 314.503 313.31 314.518 313.189 314.508C313.069 314.498 312.952 314.464 312.845 314.407C312.738 314.351 312.644 314.273 312.568 314.18C312.492 314.086 312.436 313.978 312.403 313.861C312.37 313.745 312.361 313.624 312.376 313.504C312.391 313.384 312.43 313.269 312.492 313.165L393.953 159.045C394.065 158.84 394.252 158.686 394.474 158.617C394.697 158.548 394.938 158.569 395.145 158.675C395.293 158.747 395.417 158.859 395.505 158.998C395.592 159.137 395.639 159.298 395.64 159.462Z" fill="url(#paint37_linear_1131_7510)"/>
<path d="M408.116 166.734C408.117 166.905 408.07 167.073 407.979 167.217L314.036 314.071C313.972 314.17 313.89 314.256 313.793 314.323C313.697 314.39 313.588 314.438 313.473 314.463C313.358 314.488 313.24 314.491 313.124 314.47C313.008 314.449 312.898 314.406 312.799 314.343C312.7 314.279 312.614 314.197 312.547 314.1C312.48 314.004 312.432 313.895 312.407 313.78C312.382 313.665 312.379 313.547 312.4 313.431C312.421 313.315 312.464 313.205 312.528 313.106L406.471 166.252C406.575 166.09 406.729 165.966 406.91 165.899C407.091 165.831 407.288 165.824 407.473 165.879C407.658 165.933 407.821 166.046 407.937 166.2C408.052 166.354 408.115 166.542 408.116 166.734Z" fill="url(#paint38_linear_1131_7510)"/>
<path d="M419.953 175.02C419.954 175.216 419.889 175.407 419.768 175.562L313.994 314.125C313.925 314.225 313.837 314.31 313.734 314.375C313.632 314.44 313.517 314.483 313.398 314.502C313.278 314.521 313.155 314.515 313.038 314.486C312.92 314.456 312.81 314.403 312.714 314.329C312.617 314.255 312.537 314.163 312.478 314.057C312.418 313.952 312.381 313.835 312.368 313.714C312.355 313.594 312.367 313.472 312.402 313.356C312.438 313.24 312.497 313.133 312.575 313.04L418.35 174.477C418.463 174.329 418.62 174.22 418.799 174.166C418.978 174.112 419.169 174.115 419.346 174.175C419.522 174.234 419.676 174.348 419.785 174.5C419.894 174.651 419.953 174.833 419.953 175.02Z" fill="url(#paint39_linear_1131_7510)"/>
<path d="M431.063 184.252C431.064 184.473 430.981 184.686 430.831 184.848L313.946 314.19C313.784 314.352 313.567 314.445 313.338 314.452C313.11 314.458 312.888 314.376 312.717 314.223C312.547 314.071 312.442 313.859 312.423 313.631C312.405 313.403 312.474 313.177 312.617 312.998L429.502 183.656C429.622 183.521 429.781 183.425 429.958 183.382C430.134 183.339 430.319 183.351 430.488 183.415C430.658 183.48 430.803 183.595 430.906 183.744C431.009 183.894 431.064 184.071 431.063 184.252Z" fill="url(#paint40_linear_1131_7510)"/>
<path d="M441.369 194.372C441.369 194.495 441.343 194.616 441.294 194.727C441.245 194.839 441.173 194.94 441.083 195.022L313.892 314.232C313.807 314.314 313.706 314.378 313.595 314.421C313.485 314.463 313.367 314.484 313.249 314.48C313.131 314.477 313.014 314.451 312.906 314.402C312.798 314.354 312.701 314.284 312.62 314.198C312.539 314.111 312.476 314.01 312.435 313.899C312.394 313.788 312.375 313.67 312.38 313.552C312.384 313.433 312.412 313.317 312.462 313.21C312.512 313.102 312.583 313.006 312.67 312.926L439.861 193.717C439.989 193.599 440.149 193.521 440.32 193.493C440.492 193.464 440.668 193.486 440.828 193.555C440.987 193.624 441.123 193.739 441.219 193.884C441.315 194.029 441.367 194.199 441.369 194.372Z" fill="url(#paint41_linear_1131_7510)"/>
<path d="M450.798 205.311C450.799 205.445 450.769 205.578 450.71 205.699C450.651 205.82 450.565 205.926 450.459 206.008L313.838 314.286C313.747 314.365 313.641 314.425 313.526 314.462C313.411 314.499 313.29 314.512 313.169 314.501C313.049 314.489 312.932 314.454 312.826 314.396C312.72 314.339 312.627 314.26 312.552 314.165C312.477 314.071 312.422 313.962 312.39 313.845C312.358 313.729 312.351 313.607 312.367 313.487C312.384 313.368 312.425 313.253 312.487 313.149C312.549 313.046 312.632 312.956 312.73 312.885L449.35 204.607C449.537 204.462 449.774 204.395 450.009 204.423C450.245 204.451 450.46 204.571 450.608 204.756C450.733 204.914 450.801 205.11 450.798 205.311Z" fill="url(#paint42_linear_1131_7510)"/>
<path d="M459.292 216.993C459.293 217.14 459.257 217.284 459.188 217.414C459.12 217.544 459.02 217.655 458.899 217.738L313.773 314.327C313.576 314.458 313.334 314.506 313.102 314.459C312.869 314.412 312.665 314.275 312.534 314.077C312.402 313.879 312.355 313.638 312.402 313.405C312.449 313.173 312.586 312.968 312.784 312.837L457.904 216.248C458.001 216.183 458.111 216.138 458.226 216.115C458.342 216.092 458.46 216.093 458.575 216.116C458.691 216.139 458.8 216.185 458.897 216.25C458.995 216.316 459.079 216.4 459.143 216.498C459.242 216.644 459.294 216.817 459.292 216.993Z" fill="url(#paint43_linear_1131_7510)"/>
<path d="M466.79 229.337C466.792 229.496 466.751 229.654 466.67 229.791C466.589 229.929 466.472 230.042 466.332 230.118L313.714 314.369C313.506 314.484 313.261 314.511 313.033 314.445C312.92 314.412 312.814 314.358 312.723 314.284C312.631 314.211 312.554 314.12 312.498 314.017C312.441 313.914 312.405 313.801 312.392 313.684C312.379 313.568 312.389 313.449 312.422 313.337C312.454 313.224 312.509 313.118 312.582 313.026C312.656 312.935 312.746 312.858 312.849 312.801L465.437 228.556C465.643 228.449 465.882 228.425 466.105 228.491C466.327 228.556 466.515 228.706 466.63 228.908C466.721 229.033 466.777 229.182 466.79 229.337Z" fill="url(#paint44_linear_1131_7510)"/>
<path d="M473.246 242.259C473.246 242.432 473.196 242.602 473.102 242.747C473.008 242.892 472.873 243.006 472.715 243.076L313.648 314.399C313.431 314.496 313.185 314.503 312.963 314.419C312.741 314.334 312.562 314.165 312.465 313.949C312.368 313.732 312.36 313.486 312.445 313.264C312.529 313.042 312.698 312.863 312.915 312.766L471.982 241.448C472.089 241.399 472.206 241.371 472.324 241.366C472.443 241.362 472.561 241.381 472.672 241.423C472.782 241.464 472.884 241.528 472.97 241.609C473.057 241.69 473.126 241.787 473.174 241.896C473.22 242.011 473.245 242.135 473.246 242.259Z" fill="url(#paint45_linear_1131_7510)"/>
<path d="M478.604 255.659C478.605 255.844 478.548 256.024 478.441 256.174C478.334 256.325 478.183 256.439 478.008 256.499L313.583 314.429C313.472 314.468 313.355 314.485 313.237 314.479C313.12 314.473 313.005 314.443 312.899 314.393C312.793 314.342 312.698 314.271 312.62 314.184C312.541 314.096 312.48 313.994 312.441 313.884C312.402 313.773 312.385 313.656 312.391 313.538C312.398 313.421 312.427 313.306 312.478 313.2C312.528 313.094 312.599 312.999 312.687 312.921C312.774 312.842 312.876 312.781 312.987 312.742L477.412 254.83C477.636 254.752 477.882 254.766 478.095 254.869C478.309 254.972 478.472 255.155 478.551 255.379C478.584 255.468 478.602 255.563 478.604 255.659Z" fill="url(#paint46_linear_1131_7510)"/>
<path d="M482.83 269.487C482.831 269.685 482.767 269.878 482.646 270.035C482.524 270.191 482.354 270.303 482.162 270.351L313.481 314.459C313.365 314.493 313.245 314.505 313.125 314.492C313.006 314.479 312.89 314.442 312.785 314.383C312.68 314.324 312.588 314.245 312.515 314.15C312.441 314.055 312.388 313.946 312.357 313.829C312.327 313.713 312.32 313.592 312.337 313.473C312.355 313.354 312.396 313.24 312.459 313.137C312.521 313.035 312.604 312.946 312.702 312.876C312.799 312.806 312.91 312.756 313.028 312.73L481.679 268.623C481.909 268.562 482.154 268.596 482.359 268.715C482.564 268.835 482.714 269.031 482.776 269.26C482.802 269.333 482.82 269.409 482.83 269.487Z" fill="url(#paint47_linear_1131_7510)"/>
<path d="M485.905 283.601C485.904 283.812 485.829 284.016 485.693 284.177C485.557 284.338 485.368 284.446 485.16 284.483L313.439 314.464C313.321 314.484 313.201 314.481 313.085 314.455C312.969 314.429 312.859 314.38 312.761 314.312C312.664 314.243 312.581 314.156 312.517 314.055C312.453 313.955 312.41 313.842 312.39 313.725C312.369 313.607 312.372 313.487 312.399 313.371C312.425 313.255 312.473 313.145 312.542 313.047C312.611 312.95 312.698 312.867 312.799 312.803C312.899 312.739 313.012 312.696 313.129 312.676L484.838 282.718C485.071 282.679 485.311 282.733 485.504 282.869C485.697 283.005 485.829 283.213 485.87 283.446C485.887 283.496 485.899 283.548 485.905 283.601Z" fill="url(#paint48_linear_1131_7510)"/>
<path d="M487.819 297.924C487.818 298.147 487.735 298.361 487.585 298.525C487.435 298.689 487.23 298.792 487.008 298.812L313.386 314.477C313.148 314.498 312.913 314.424 312.73 314.272C312.547 314.119 312.432 313.9 312.411 313.663C312.39 313.426 312.463 313.19 312.616 313.007C312.769 312.824 312.987 312.71 313.225 312.688L486.823 297.03C487.059 297.01 487.294 297.084 487.476 297.236C487.658 297.388 487.772 297.605 487.795 297.841L487.819 297.924Z" fill="url(#paint49_linear_1131_7510)"/>
<path d="M488.499 312.349C488.497 312.584 488.403 312.81 488.237 312.977C488.071 313.144 487.846 313.24 487.61 313.243L313.29 314.476C313.173 314.478 313.056 314.456 312.947 314.412C312.838 314.368 312.738 314.303 312.655 314.221C312.571 314.138 312.504 314.04 312.459 313.931C312.414 313.822 312.39 313.706 312.39 313.588C312.39 313.352 312.484 313.126 312.65 312.958C312.816 312.791 313.042 312.696 313.279 312.694L487.599 311.46C487.716 311.46 487.832 311.482 487.941 311.526C488.05 311.57 488.149 311.636 488.232 311.718C488.316 311.801 488.383 311.899 488.428 312.007C488.474 312.115 488.498 312.231 488.499 312.349Z" fill="url(#paint50_linear_1131_7510)"/>
<path d="M488.004 326.785C488.004 326.785 488.004 326.826 488.004 326.85C487.996 326.967 487.964 327.082 487.911 327.187C487.858 327.292 487.785 327.385 487.696 327.462C487.607 327.538 487.503 327.597 487.391 327.633C487.279 327.669 487.161 327.682 487.044 327.673L313.219 314.476C312.982 314.458 312.762 314.346 312.607 314.166C312.452 313.985 312.375 313.751 312.393 313.514C312.412 313.276 312.523 313.056 312.704 312.901C312.884 312.747 313.119 312.67 313.356 312.688L487.175 325.891C487.401 325.907 487.612 326.009 487.766 326.174C487.919 326.34 488.005 326.558 488.004 326.785Z" fill="url(#paint51_linear_1131_7510)"/>
<path d="M486.311 341.125C486.314 341.173 486.314 341.221 486.311 341.269C486.293 341.385 486.252 341.497 486.191 341.597C486.129 341.697 486.049 341.785 485.953 341.854C485.858 341.923 485.75 341.973 485.636 342C485.521 342.028 485.402 342.032 485.286 342.014L313.153 314.464C312.916 314.426 312.704 314.296 312.563 314.101C312.422 313.907 312.365 313.664 312.402 313.427C312.44 313.19 312.571 312.978 312.765 312.837C312.96 312.696 313.202 312.638 313.44 312.676L485.56 340.249C485.77 340.281 485.961 340.387 486.099 340.548C486.237 340.708 486.312 340.914 486.311 341.125Z" fill="url(#paint52_linear_1131_7510)"/>
<path d="M483.438 355.288C483.446 355.357 483.446 355.427 483.438 355.496C483.41 355.611 483.36 355.718 483.29 355.813C483.22 355.908 483.133 355.989 483.032 356.05C482.931 356.11 482.819 356.151 482.703 356.168C482.586 356.186 482.468 356.18 482.353 356.152L313.076 314.429C312.958 314.404 312.846 314.356 312.747 314.288C312.648 314.219 312.564 314.131 312.5 314.03C312.436 313.928 312.393 313.814 312.374 313.695C312.355 313.577 312.36 313.455 312.389 313.338C312.418 313.222 312.47 313.112 312.542 313.016C312.615 312.919 312.706 312.839 312.81 312.779C312.914 312.719 313.029 312.68 313.149 312.666C313.268 312.651 313.389 312.661 313.505 312.694L482.782 354.417C482.973 354.469 483.141 354.583 483.259 354.74C483.378 354.898 483.441 355.09 483.438 355.288Z" fill="url(#paint53_linear_1131_7510)"/>
<path d="M479.408 369.158C479.407 369.253 479.391 369.348 479.361 369.438C479.284 369.662 479.123 369.848 478.911 369.954C478.699 370.06 478.453 370.078 478.228 370.004L312.998 314.429C312.887 314.39 312.784 314.329 312.696 314.25C312.609 314.171 312.537 314.076 312.486 313.97C312.436 313.864 312.406 313.749 312.4 313.631C312.393 313.513 312.41 313.395 312.449 313.284C312.488 313.173 312.549 313.071 312.628 312.983C312.707 312.895 312.802 312.824 312.908 312.773C313.014 312.722 313.13 312.693 313.247 312.686C313.365 312.68 313.483 312.697 313.594 312.736L478.8 368.311C478.977 368.372 479.13 368.486 479.239 368.638C479.348 368.789 479.407 368.971 479.408 369.158Z" fill="url(#paint54_linear_1131_7510)"/>
<path d="M474.241 382.617C474.241 382.738 474.215 382.858 474.164 382.968C474.118 383.078 474.05 383.178 473.965 383.262C473.879 383.345 473.778 383.411 473.667 383.454C473.555 383.498 473.436 383.518 473.317 383.514C473.198 383.511 473.08 383.483 472.972 383.433L312.927 314.405C312.709 314.311 312.537 314.134 312.449 313.913C312.361 313.692 312.365 313.446 312.459 313.228C312.553 313.01 312.73 312.838 312.951 312.75C313.171 312.662 313.418 312.666 313.636 312.76L473.699 381.824C473.856 381.89 473.99 382 474.086 382.141C474.183 382.281 474.236 382.446 474.241 382.617Z" fill="url(#paint55_linear_1131_7510)"/>
<path d="M467.97 395.658C467.972 395.806 467.937 395.951 467.869 396.082C467.757 396.285 467.569 396.437 467.347 396.505C467.124 396.573 466.884 396.552 466.677 396.445L312.896 314.375C312.687 314.264 312.53 314.074 312.461 313.847C312.392 313.62 312.415 313.375 312.527 313.165C312.638 312.956 312.828 312.799 313.055 312.73C313.282 312.661 313.527 312.684 313.737 312.796L467.517 394.872C467.656 394.95 467.771 395.065 467.851 395.203C467.931 395.342 467.972 395.499 467.97 395.658Z" fill="url(#paint56_linear_1131_7510)"/>
<path d="M460.651 408.11C460.646 408.269 460.6 408.423 460.516 408.559C460.432 408.694 460.313 408.804 460.173 408.879C460.032 408.953 459.875 408.989 459.716 408.983C459.557 408.976 459.402 408.928 459.268 408.843L312.795 314.333C312.697 314.27 312.612 314.187 312.545 314.09C312.478 313.994 312.431 313.885 312.407 313.77C312.382 313.655 312.38 313.536 312.401 313.421C312.423 313.305 312.466 313.195 312.53 313.097C312.594 312.998 312.676 312.913 312.773 312.846C312.87 312.779 312.979 312.732 313.094 312.708C313.208 312.683 313.327 312.681 313.443 312.703C313.558 312.724 313.668 312.768 313.767 312.831L460.24 407.359C460.366 407.439 460.469 407.55 460.541 407.682C460.613 407.813 460.651 407.96 460.651 408.11Z" fill="url(#paint57_linear_1131_7510)"/>
<path d="M452.318 419.911C452.319 420.108 452.254 420.299 452.134 420.454C451.99 420.642 451.777 420.765 451.542 420.796C451.308 420.827 451.07 420.764 450.882 420.621L312.736 314.292C312.548 314.147 312.425 313.934 312.394 313.698C312.363 313.463 312.427 313.225 312.572 313.037C312.717 312.849 312.93 312.726 313.165 312.695C313.401 312.665 313.639 312.729 313.827 312.873L451.973 419.202C452.081 419.286 452.168 419.394 452.228 419.517C452.288 419.64 452.319 419.775 452.318 419.911Z" fill="url(#paint58_linear_1131_7510)"/>
<path d="M443.044 430.98C443.044 431.153 442.994 431.323 442.899 431.468C442.805 431.614 442.67 431.728 442.511 431.798C442.353 431.868 442.177 431.891 442.006 431.863C441.835 431.835 441.676 431.758 441.548 431.642L312.682 314.22C312.53 314.057 312.445 313.842 312.443 313.619C312.442 313.395 312.524 313.18 312.673 313.014C312.823 312.848 313.029 312.744 313.251 312.722C313.473 312.701 313.696 312.763 313.874 312.897L442.752 430.301C442.846 430.386 442.921 430.492 442.971 430.609C443.022 430.726 443.046 430.853 443.044 430.98Z" fill="url(#paint59_linear_1131_7510)"/>
<path d="M432.881 441.25C432.882 441.372 432.856 441.493 432.807 441.605C432.758 441.717 432.686 441.817 432.595 441.9C432.422 442.062 432.192 442.148 431.955 442.14C431.718 442.133 431.494 442.031 431.332 441.858L312.629 314.19C312.531 314.108 312.452 314.006 312.397 313.891C312.342 313.776 312.313 313.651 312.31 313.523C312.308 313.396 312.333 313.269 312.383 313.152C312.434 313.035 312.508 312.93 312.603 312.845C312.697 312.759 312.809 312.694 312.93 312.655C313.051 312.616 313.18 312.603 313.306 312.618C313.433 312.633 313.555 312.674 313.664 312.74C313.774 312.805 313.868 312.893 313.94 312.998L432.643 440.636C432.798 440.803 432.883 441.022 432.881 441.25Z" fill="url(#paint60_linear_1131_7510)"/>
<path d="M421.908 450.638C421.909 450.824 421.851 451.005 421.743 451.157C421.636 451.309 421.483 451.423 421.307 451.485C421.131 451.546 420.941 451.55 420.762 451.498C420.584 451.445 420.426 451.338 420.311 451.192L312.581 314.137C312.505 314.045 312.447 313.938 312.413 313.824C312.378 313.709 312.366 313.589 312.379 313.47C312.392 313.351 312.428 313.236 312.486 313.131C312.544 313.027 312.622 312.935 312.717 312.861C312.811 312.787 312.919 312.733 313.034 312.702C313.15 312.67 313.27 312.662 313.389 312.679C313.507 312.695 313.621 312.735 313.724 312.796C313.827 312.857 313.917 312.938 313.988 313.034L421.717 450.083C421.84 450.242 421.907 450.437 421.908 450.638Z" fill="url(#paint61_linear_1131_7510)"/>
<path d="M410.189 459.083C410.19 459.275 410.128 459.462 410.013 459.617C409.899 459.771 409.738 459.884 409.554 459.94C409.37 459.995 409.173 459.99 408.992 459.925C408.811 459.86 408.657 459.738 408.55 459.578L312.539 314.071C312.467 313.973 312.415 313.862 312.387 313.744C312.359 313.625 312.355 313.502 312.376 313.383C312.397 313.263 312.443 313.149 312.509 313.047C312.576 312.946 312.663 312.859 312.764 312.792C312.866 312.725 312.98 312.679 313.1 312.658C313.219 312.636 313.342 312.64 313.46 312.667C313.579 312.695 313.69 312.746 313.788 312.819C313.886 312.891 313.968 312.982 314.029 313.087L410.04 458.594C410.138 458.739 410.19 458.909 410.189 459.083Z" fill="url(#paint62_linear_1131_7510)"/>
<path d="M397.815 466.534C397.816 466.733 397.751 466.927 397.629 467.085C397.507 467.243 397.336 467.355 397.143 467.405C396.949 467.454 396.745 467.437 396.563 467.357C396.38 467.277 396.229 467.139 396.135 466.963L312.497 314.011C312.392 313.804 312.372 313.565 312.441 313.343C312.51 313.121 312.662 312.935 312.866 312.824C313.069 312.712 313.308 312.684 313.532 312.746C313.756 312.807 313.947 312.953 314.065 313.153L397.702 466.105C397.776 466.236 397.815 466.384 397.815 466.534Z" fill="url(#paint63_linear_1131_7510)"/>
<path d="M384.864 472.93C384.864 473.135 384.793 473.333 384.664 473.492C384.535 473.651 384.356 473.761 384.156 473.804C383.955 473.847 383.746 473.819 383.564 473.726C383.382 473.633 383.236 473.481 383.153 473.293L312.468 313.946C312.377 313.731 312.375 313.488 312.461 313.271C312.547 313.053 312.715 312.878 312.928 312.783C313.142 312.688 313.384 312.68 313.604 312.762C313.823 312.843 314.001 313.007 314.101 313.219L384.786 472.572C384.838 472.685 384.864 472.807 384.864 472.93Z" fill="url(#paint64_linear_1131_7510)"/>
<path d="M371.429 478.24C371.426 478.45 371.349 478.651 371.213 478.81C371.077 478.969 370.889 479.075 370.683 479.109C370.477 479.144 370.265 479.105 370.084 479C369.903 478.895 369.765 478.729 369.694 478.533L312.438 313.874C312.359 313.651 312.372 313.405 312.474 313.191C312.576 312.977 312.759 312.812 312.983 312.733C313.207 312.654 313.453 312.667 313.667 312.769C313.881 312.872 314.046 313.055 314.125 313.278L371.381 477.942C371.414 478.038 371.43 478.139 371.429 478.24Z" fill="url(#paint65_linear_1131_7510)"/>
<path d="M357.601 482.413C357.599 482.629 357.518 482.838 357.374 482.999C357.23 483.161 357.032 483.265 356.818 483.292C356.603 483.319 356.386 483.267 356.206 483.146C356.027 483.025 355.898 482.843 355.842 482.634L312.414 313.809C312.355 313.579 312.389 313.335 312.51 313.13C312.631 312.926 312.828 312.778 313.058 312.718C313.288 312.659 313.532 312.693 313.737 312.814C313.941 312.935 314.089 313.132 314.149 313.362L357.577 482.192C357.593 482.265 357.601 482.339 357.601 482.413Z" fill="url(#paint66_linear_1131_7510)"/>
<path d="M343.474 485.429C343.494 485.666 343.419 485.901 343.265 486.083C343.112 486.264 342.892 486.378 342.655 486.397C342.418 486.417 342.182 486.342 342.001 486.188C341.819 486.034 341.706 485.815 341.686 485.578L312.403 313.731C312.383 313.614 312.387 313.494 312.414 313.378C312.44 313.262 312.49 313.152 312.559 313.055C312.628 312.959 312.716 312.876 312.817 312.813C312.918 312.75 313.03 312.708 313.148 312.688C313.265 312.669 313.385 312.672 313.501 312.699C313.617 312.726 313.727 312.775 313.823 312.845C313.92 312.914 314.003 313.001 314.066 313.102C314.129 313.203 314.171 313.316 314.191 313.433L343.463 485.28C343.472 485.329 343.476 485.379 343.474 485.429Z" fill="url(#paint67_linear_1131_7510)"/>
<path d="M329.152 487.265C329.162 487.502 329.077 487.733 328.917 487.908C328.757 488.083 328.533 488.187 328.296 488.198C328.059 488.208 327.828 488.124 327.653 487.963C327.478 487.803 327.374 487.579 327.363 487.342L312.391 313.66C312.37 313.423 312.445 313.187 312.598 313.005C312.751 312.823 312.97 312.709 313.207 312.688C313.444 312.668 313.68 312.742 313.862 312.896C314.044 313.049 314.158 313.268 314.179 313.505L329.146 487.187C329.146 487.187 329.152 487.241 329.152 487.265Z" fill="url(#paint68_linear_1131_7510)"/>
<path d="M314.721 487.908C314.721 488.145 314.627 488.373 314.459 488.54C314.292 488.708 314.064 488.802 313.827 488.802C313.59 488.802 313.363 488.708 313.195 488.54C313.027 488.373 312.933 488.145 312.933 487.908L312.391 313.588C312.391 313.351 312.485 313.124 312.653 312.956C312.82 312.788 313.048 312.694 313.285 312.694C313.522 312.694 313.749 312.788 313.917 312.956C314.085 313.124 314.179 313.351 314.179 313.588L314.721 487.908Z" fill="url(#paint69_linear_1131_7510)"/>
<path d="M314.178 313.582C314.181 313.606 314.181 313.63 314.178 313.653L300.29 487.425C300.281 487.542 300.248 487.657 300.195 487.762C300.141 487.867 300.067 487.96 299.978 488.036C299.888 488.113 299.784 488.171 299.672 488.207C299.56 488.243 299.442 488.257 299.324 488.248C299.207 488.238 299.093 488.206 298.988 488.152C298.883 488.099 298.79 488.025 298.713 487.935C298.637 487.846 298.579 487.742 298.543 487.63C298.506 487.518 298.493 487.399 298.502 487.282L312.39 313.51C312.399 313.273 312.503 313.05 312.677 312.889C312.851 312.728 313.083 312.643 313.32 312.652C313.557 312.662 313.78 312.765 313.941 312.939C314.102 313.114 314.187 313.345 314.178 313.582Z" fill="url(#paint70_linear_1131_7510)"/>
<path d="M314.178 313.582C314.181 313.63 314.181 313.677 314.178 313.725L285.931 485.732C285.893 485.97 285.763 486.182 285.568 486.323C285.374 486.464 285.131 486.521 284.894 486.483C284.657 486.446 284.445 486.315 284.304 486.12C284.163 485.926 284.105 485.683 284.143 485.446L312.402 313.439C312.421 313.202 312.533 312.982 312.714 312.828C312.895 312.674 313.13 312.598 313.367 312.616C313.605 312.635 313.824 312.748 313.979 312.929C314.133 313.11 314.209 313.345 314.19 313.582H314.178Z" fill="url(#paint71_linear_1131_7510)"/>
<path d="M314.179 313.582C314.177 313.657 314.167 313.731 314.149 313.803L271.776 482.895C271.718 483.125 271.572 483.323 271.368 483.445C271.165 483.567 270.921 483.603 270.691 483.545C270.461 483.487 270.263 483.341 270.142 483.137C270.02 482.934 269.984 482.69 270.041 482.46L312.414 313.368C312.429 313.25 312.466 313.137 312.524 313.034C312.581 312.931 312.659 312.84 312.752 312.767C312.845 312.694 312.952 312.64 313.065 312.608C313.179 312.576 313.298 312.567 313.416 312.581C313.533 312.595 313.647 312.632 313.75 312.69C313.853 312.748 313.943 312.826 314.017 312.919C314.09 313.012 314.144 313.118 314.176 313.232C314.207 313.346 314.217 313.465 314.203 313.582H314.179Z" fill="url(#paint72_linear_1131_7510)"/>
<path d="M314.179 313.582C314.177 313.681 314.161 313.78 314.131 313.874L257.9 478.878C257.821 479.102 257.656 479.286 257.441 479.389C257.227 479.492 256.98 479.505 256.755 479.426C256.531 479.347 256.347 479.182 256.244 478.968C256.141 478.753 256.128 478.506 256.207 478.282L312.438 313.296C312.506 313.096 312.644 312.926 312.825 312.817C313.007 312.708 313.221 312.668 313.43 312.702C313.639 312.736 313.828 312.843 313.966 313.005C314.103 313.166 314.178 313.37 314.179 313.582Z" fill="url(#paint73_linear_1131_7510)"/>
<path d="M314.179 313.583C314.179 313.706 314.153 313.828 314.101 313.94L244.405 473.729C244.358 473.836 244.291 473.934 244.206 474.015C244.122 474.096 244.022 474.16 243.912 474.203C243.803 474.246 243.686 474.267 243.569 474.265C243.452 474.263 243.336 474.237 243.228 474.191C243.121 474.144 243.023 474.076 242.942 473.991C242.86 473.907 242.796 473.807 242.753 473.698C242.71 473.588 242.69 473.472 242.692 473.354C242.694 473.237 242.719 473.121 242.766 473.013L312.462 313.225C312.543 313.035 312.687 312.878 312.871 312.783C313.054 312.687 313.265 312.658 313.467 312.7C313.669 312.742 313.851 312.853 313.981 313.014C314.11 313.175 314.18 313.376 314.179 313.583Z" fill="url(#paint74_linear_1131_7510)"/>
<path d="M314.179 313.582C314.178 313.73 314.142 313.876 314.071 314.006L231.382 467.476C231.329 467.584 231.255 467.68 231.164 467.759C231.073 467.838 230.967 467.898 230.852 467.935C230.738 467.972 230.617 467.985 230.497 467.974C230.377 467.963 230.261 467.928 230.155 467.871C230.049 467.814 229.955 467.736 229.88 467.642C229.805 467.548 229.749 467.44 229.717 467.324C229.685 467.208 229.676 467.087 229.692 466.967C229.707 466.848 229.747 466.733 229.808 466.629L312.498 313.159C312.592 312.984 312.742 312.846 312.924 312.765C313.107 312.685 313.31 312.668 313.503 312.717C313.696 312.765 313.867 312.877 313.989 313.034C314.112 313.19 314.178 313.383 314.179 313.582Z" fill="url(#paint75_linear_1131_7510)"/>
</g>
<g filter="url(#filter0_di_1131_7510)">
<path d="M226.505 226.803C178.575 274.733 178.575 352.443 226.505 400.373C274.435 448.303 352.145 448.303 400.075 400.373C448.005 352.443 448.005 274.733 400.075 226.803C352.145 178.874 274.435 178.874 226.505 226.803Z" fill="#1E1D2B"/>
</g>
<path d="M436.917 313.588C436.917 381.758 381.485 437.214 313.291 437.214C245.097 437.214 189.665 381.782 189.665 313.588C189.665 245.394 245.097 189.962 313.291 189.962C381.485 189.962 436.917 245.418 436.917 313.588ZM191.453 313.588C191.453 380.769 246.11 435.426 313.291 435.426C380.471 435.426 435.129 380.769 435.129 313.588C435.129 246.408 380.471 191.75 313.291 191.75C246.11 191.75 191.453 246.408 191.453 313.588Z" fill="url(#paint76_linear_1131_7510)"/>
<path d="M524.124 314.983C524.092 364.169 507.059 411.832 475.911 449.898C444.762 487.964 401.413 514.092 353.207 523.858C305 533.624 254.9 526.426 211.392 503.484C167.885 480.542 133.645 443.266 114.473 397.971C92.6501 345.904 92.3635 287.308 113.676 235.03C134.988 182.752 176.16 141.057 228.165 119.087C280.17 97.1174 338.765 96.6649 391.103 117.829C443.441 138.993 485.252 180.047 507.369 231.989C518.48 258.245 524.179 286.473 524.124 314.983ZM99.5059 314.983C99.5079 356.795 111.908 397.667 135.138 432.431C158.368 467.195 191.385 494.291 230.013 510.292C268.642 526.292 311.148 530.48 352.156 522.324C393.165 514.168 430.834 494.035 460.401 464.472C480.208 444.88 495.947 421.566 506.714 395.871C517.48 370.176 523.062 342.606 523.139 314.746C523.215 286.887 517.784 259.287 507.158 233.533C496.532 207.779 480.921 184.38 461.221 164.68C441.522 144.979 418.123 129.367 392.37 118.74C366.617 108.113 339.017 102.681 311.157 102.756C283.298 102.831 255.727 108.412 230.032 119.178C204.336 129.944 181.022 145.682 161.429 165.488C141.734 185.074 126.12 208.371 115.491 234.032C104.862 259.693 99.4285 287.208 99.5059 314.983Z" fill="url(#paint77_linear_1131_7510)"/>
<path d="M271.173 271.471C247.912 294.732 247.912 332.445 271.173 355.706C294.433 378.966 332.147 378.966 355.407 355.706C378.668 332.445 378.668 294.732 355.407 271.471C332.147 248.21 294.433 248.21 271.173 271.471Z" fill="#1E1D2B"/>
<path d="M373.748 313.589C373.748 325.546 370.202 337.235 363.559 347.177C356.916 357.119 347.474 364.868 336.427 369.444C325.38 374.02 313.224 375.217 301.496 372.884C289.769 370.551 278.996 364.793 270.541 356.338C262.086 347.883 256.328 337.111 253.996 325.383C251.663 313.656 252.86 301.5 257.436 290.453C262.012 279.406 269.761 269.964 279.703 263.321C289.645 256.677 301.334 253.132 313.291 253.132C329.32 253.149 344.687 259.524 356.021 270.858C367.356 282.192 373.731 297.56 373.748 313.589ZM254.622 313.589C254.622 325.192 258.063 336.535 264.51 346.184C270.956 355.832 280.119 363.351 290.839 367.792C301.56 372.232 313.356 373.394 324.737 371.13C336.117 368.867 346.571 363.279 354.776 355.074C362.981 346.869 368.569 336.415 370.833 325.035C373.096 313.654 371.935 301.857 367.494 291.137C363.053 280.417 355.534 271.254 345.886 264.807C336.238 258.361 324.895 254.92 313.291 254.92C297.736 254.937 282.824 261.124 271.825 272.123C260.826 283.122 254.639 298.034 254.622 313.589Z" fill="url(#paint78_linear_1131_7510)"/>
<path d="M521.865 511.489C520.256 504.074 516.221 485.537 516.221 485.537L510.54 511.668L485.238 517.169L510.66 522.688L516.221 548.283L521.746 522.873L547.972 517.169L521.865 511.489Z" fill="#1E1D2B"/>
<path d="M552.192 517.168L522.497 523.63L516.221 552.49L509.909 523.451L481.03 517.168L509.79 510.916L516.221 481.328L522.617 510.737L552.192 517.168ZM516.221 544.074L520.995 522.092L543.776 517.168L521.126 512.245L516.233 489.744L511.304 512.394L489.452 517.163L511.423 521.931L516.221 544.074Z" fill="url(#paint79_linear_1131_7510)"/>
<path d="M523.648 516.799C527.481 510.838 537.047 495.937 537.047 495.937L516.061 509.45L495.741 496.384L508.854 516.799L495.658 537.345L516.061 524.231L537.131 537.774L523.648 516.799Z" fill="#1E1D2B"/>
<path d="M540.111 540.754L516.06 525.293L492.683 540.325L507.805 516.799L492.767 493.41L516.06 508.383L540.027 492.981L524.715 516.823L540.111 540.754ZM498.632 534.371L516.06 523.171L534.156 534.8L522.587 516.799L534.073 498.918L516.06 510.511L498.715 499.359L509.927 516.799L498.632 534.371Z" fill="url(#paint80_linear_1131_7510)"/>
<path d="M114.741 101.604L109.973 78.8947L105.204 101.604L93.9688 94.2667L101.306 105.502L78.5968 110.271L101.306 115.039L93.9688 126.268L105.204 118.937L109.973 141.646C109.973 141.646 112.834 128.015 114.741 118.937L125.971 126.268L118.639 115.039L141.349 110.271L118.639 105.502L125.971 94.2667L114.741 101.604Z" fill="#1E1D2B"/>
<path d="M145.688 110.271L120.1 115.636L129.04 129.345L115.331 120.404L109.967 145.992L104.602 120.404L90.8934 129.345L99.8341 115.636L74.2398 110.271L99.8341 104.907L90.8934 91.1978L104.602 100.139L109.967 74.5442L115.331 100.139L129.04 91.1978L120.1 104.907L145.688 110.271ZM117.173 114.444L136.992 110.271L117.173 106.099L122.889 97.3371L114.127 103.059L109.955 83.2406L105.783 103.059L97.0148 97.3371L102.737 106.099L82.9182 110.271L102.737 114.444L97.0148 123.206L105.783 117.489L109.955 137.308L114.127 117.489L122.889 123.206L117.173 114.444Z" fill="url(#paint81_linear_1131_7510)"/>
<path d="M334.11 347.879L363.417 364.682L336.78 338.044L334.11 347.879Z" fill="#1E1D2B"/>
<path d="M364.378 363.716L347.581 334.408L337.747 337.078L364.378 363.716Z" fill="#1E1D2B"/>
<path d="M289.8 338.044L263.163 364.676L292.471 347.879L289.8 338.044Z" fill="#1E1D2B"/>
<path d="M320.634 341.722L313.97 343.528V416.919L332.525 348.541L320.634 341.722Z" fill="#1E1D2B"/>
<path d="M337.401 335.761L346.884 333.187L340.923 322.786L337.401 335.761Z" fill="#1E1D2B"/>
<path d="M305.947 341.722L294.055 348.541L312.61 416.919V343.528L305.947 341.722Z" fill="#1E1D2B"/>
<path d="M311.645 314.268H291.326L298.729 327.19L311.645 314.268Z" fill="#1E1D2B"/>
<path d="M348.243 332.823L416.622 314.268H343.23L341.424 320.932L348.243 332.823Z" fill="#1E1D2B"/>
<path d="M288.972 314.267H284.758L286.117 319.256L288.972 314.267Z" fill="#1E1D2B"/>
<path d="M341.823 314.267H337.609L340.47 319.256L341.823 314.267Z" fill="#1E1D2B"/>
<path d="M335.255 314.268H314.936L327.852 327.19L335.255 314.268Z" fill="#1E1D2B"/>
<path d="M286.617 321.117L290.497 335.416L297.733 328.186L290.152 314.96L286.617 321.117Z" fill="#1E1D2B"/>
<path d="M279 334.408L262.203 363.716L288.834 337.078L279 334.408Z" fill="#1E1D2B"/>
<path d="M335.463 337.699L322.487 341.221L332.888 347.182L335.463 337.699Z" fill="#1E1D2B"/>
<path d="M312.61 337.907L307.621 340.768L312.61 342.121V337.907Z" fill="#1E1D2B"/>
<path d="M304.094 341.221L291.118 337.699L293.693 347.182L304.094 341.221Z" fill="#1E1D2B"/>
<path d="M285.658 322.786L279.698 333.187L289.181 335.761L285.658 322.786Z" fill="#1E1D2B"/>
<path d="M298.693 329.145L291.463 336.381L305.762 340.261L311.919 336.727L298.693 329.145Z" fill="#1E1D2B"/>
<path d="M285.157 320.932L283.351 314.268H209.959L278.338 332.823L285.157 320.932Z" fill="#1E1D2B"/>
<path d="M299.688 328.15L312.61 335.553V315.233L299.688 328.15Z" fill="#1E1D2B"/>
<path d="M327.889 329.145L314.662 336.727L320.819 340.261L335.119 336.381L327.889 329.145Z" fill="#1E1D2B"/>
<path d="M336.429 314.96L328.854 328.186L336.084 335.416L339.964 321.117L336.429 314.96Z" fill="#1E1D2B"/>
<path d="M313.97 335.553L326.893 328.15L313.97 315.233V335.553Z" fill="#1E1D2B"/>
<path d="M318.959 340.768L313.97 337.907V342.121L318.959 340.768Z" fill="#1E1D2B"/>
<path d="M314.936 312.909H335.261L327.852 299.987L314.936 312.909Z" fill="#1E1D2B"/>
<path d="M337.609 312.909H341.823L340.47 307.92L337.609 312.909Z" fill="#1E1D2B"/>
<path d="M340.923 304.391L346.884 293.99L337.401 291.415L340.923 304.391Z" fill="#1E1D2B"/>
<path d="M278.338 294.354L209.959 312.909H283.351L285.157 306.251L278.338 294.354Z" fill="#1E1D2B"/>
<path d="M292.471 279.297L263.163 262.501L289.8 289.132L292.471 279.297Z" fill="#1E1D2B"/>
<path d="M291.326 312.909H311.645L298.729 299.987L291.326 312.909Z" fill="#1E1D2B"/>
<path d="M343.23 312.909H416.622L348.243 294.354L341.424 306.251L343.23 312.909Z" fill="#1E1D2B"/>
<path d="M347.581 292.768L364.378 263.461L337.747 290.098L347.581 292.768Z" fill="#1E1D2B"/>
<path d="M305.947 285.455L312.61 283.649V210.257L294.055 278.636L305.947 285.455Z" fill="#1E1D2B"/>
<path d="M336.78 289.132L363.417 262.501L334.11 279.297L336.78 289.132Z" fill="#1E1D2B"/>
<path d="M320.634 285.455L332.525 278.636L313.97 210.257V283.649L320.634 285.455Z" fill="#1E1D2B"/>
<path d="M284.758 312.909H288.972L286.117 307.92L284.758 312.909Z" fill="#1E1D2B"/>
<path d="M339.964 306.061L336.084 291.761L328.854 298.991L336.429 312.218L339.964 306.061Z" fill="#1E1D2B"/>
<path d="M326.893 299.027L313.97 291.624V311.943L326.893 299.027Z" fill="#1E1D2B"/>
<path d="M305.762 286.915L291.463 290.795L298.693 298.031L311.919 290.449L305.762 286.915Z" fill="#1E1D2B"/>
<path d="M312.61 291.624L299.688 299.027L312.61 311.943V291.624Z" fill="#1E1D2B"/>
<path d="M290.152 312.218L297.733 298.991L290.497 291.761L286.617 306.061L290.152 312.218Z" fill="#1E1D2B"/>
<path d="M289.181 291.415L279.698 293.99L285.664 304.391L289.181 291.415Z" fill="#1E1D2B"/>
<path d="M307.621 286.414L312.61 289.269V285.055L307.621 286.414Z" fill="#1E1D2B"/>
<path d="M262.203 263.461L279 292.768L288.834 290.098L262.203 263.461Z" fill="#1E1D2B"/>
<path d="M291.118 289.478L304.094 285.962L293.693 279.995L291.118 289.478Z" fill="#1E1D2B"/>
<path d="M320.819 286.915L314.662 290.449L327.889 298.031L335.119 290.795L320.819 286.915Z" fill="#1E1D2B"/>
<path d="M322.487 285.962L335.463 289.478L332.888 279.995L322.487 285.962Z" fill="#1E1D2B"/>
<path d="M313.97 289.269L318.959 286.414L313.97 285.055V289.269Z" fill="#1E1D2B"/>
<path d="M312.635 204.995L292.835 277.963L259.408 258.8C259.278 258.724 259.127 258.693 258.978 258.712C258.829 258.731 258.69 258.799 258.584 258.906C258.478 259.012 258.41 259.15 258.391 259.3C258.371 259.449 258.402 259.6 258.478 259.73L277.641 293.156L204.697 312.933C204.553 312.972 204.426 313.057 204.336 313.176C204.245 313.294 204.196 313.439 204.196 313.588C204.196 313.738 204.245 313.883 204.336 314.001C204.426 314.12 204.553 314.205 204.697 314.244L277.641 334.045L258.478 367.471C258.402 367.601 258.371 367.752 258.391 367.901C258.41 368.05 258.478 368.189 258.584 368.295C258.69 368.402 258.829 368.47 258.978 368.489C259.127 368.508 259.278 368.477 259.408 368.401L292.835 349.238L312.635 422.206C312.674 422.35 312.76 422.477 312.878 422.568C312.997 422.658 313.142 422.707 313.291 422.707C313.44 422.707 313.585 422.658 313.703 422.568C313.822 422.477 313.907 422.35 313.947 422.206L333.747 349.238L367.174 368.401C367.303 368.484 367.457 368.521 367.61 368.505C367.762 368.488 367.905 368.42 368.014 368.312C368.119 368.205 368.186 368.067 368.206 367.919C368.227 367.771 368.199 367.62 368.127 367.489L348.94 334.045L421.909 314.244C422.052 314.205 422.18 314.12 422.27 314.001C422.361 313.883 422.41 313.738 422.41 313.588C422.41 313.439 422.361 313.294 422.27 313.176C422.18 313.057 422.052 312.972 421.909 312.933L348.94 293.132L368.103 259.706C368.175 259.575 368.203 259.424 368.183 259.276C368.162 259.128 368.095 258.99 367.99 258.883C367.884 258.779 367.747 258.713 367.6 258.693C367.452 258.674 367.303 258.703 367.174 258.776L333.747 277.939L313.947 204.995C313.907 204.851 313.822 204.724 313.703 204.633C313.585 204.543 313.44 204.494 313.291 204.494C313.142 204.494 312.997 204.543 312.878 204.633C312.76 204.724 312.674 204.851 312.635 204.995ZM279.698 333.21L285.658 322.809L289.181 335.785L279.698 333.21ZM304.094 341.245L293.693 347.206L291.124 337.699L304.094 341.245ZM291.464 336.405L298.694 329.145L311.92 336.721L305.763 340.25L291.464 336.405ZM307.622 340.786L312.582 337.913V342.127L307.622 340.786ZM313.97 337.913L318.959 340.774L313.97 342.127V337.913ZM335.464 337.705L332.889 347.188L322.488 341.227L335.464 337.705ZM320.819 340.268L314.662 336.721L327.888 329.133L335.118 336.369L320.819 340.268ZM328.848 328.192L336.423 314.959L339.952 321.117L336.072 335.422L328.848 328.192ZM313.947 335.559V315.24L326.887 328.15L313.947 335.559ZM312.588 335.559L299.665 328.156L312.582 315.234L312.588 335.559ZM297.686 328.192L290.45 335.428L286.57 321.123L290.105 314.965L297.686 328.192ZM278.953 334.414L288.787 337.085L262.156 363.722L278.953 334.414ZM263.116 364.682L289.753 338.05L292.423 347.885L263.116 364.682ZM294.009 348.547L305.9 341.728L312.564 343.516V416.919L294.009 348.547ZM313.97 416.919V343.528L320.634 341.74L332.525 348.559L313.97 416.919ZM334.111 347.879L336.781 338.044L363.418 364.682L334.111 347.879ZM364.384 363.716L337.747 337.079L347.581 334.408L364.384 363.716ZM337.401 335.761L340.924 322.785L346.884 333.187L337.401 335.761ZM416.622 314.268L348.243 332.823L341.424 320.932L343.212 314.268H416.622ZM341.824 314.268L340.465 319.257L337.61 314.268H341.824ZM335.267 314.268L327.852 327.184L314.936 314.262L335.267 314.268ZM311.658 314.268L298.729 327.184L291.327 314.262L311.658 314.268ZM289.008 314.268L286.153 319.257L284.794 314.268H289.008ZM283.387 314.268L285.175 320.932L278.357 332.823L209.978 314.268H283.387ZM292.507 279.298L289.836 289.133L263.199 262.501L292.507 279.298ZM297.77 298.967L290.188 312.194L286.654 306.037L290.534 291.731L297.77 298.967ZM291.499 290.772L305.805 286.892L311.962 290.42L298.735 298.008L291.499 290.772ZM312.582 291.624V311.943L299.659 299.027L312.582 291.624ZM313.941 291.624L326.887 299.027L313.964 311.943L313.941 291.624ZM328.842 298.991L336.078 291.761L339.958 306.066L336.423 312.218L328.842 298.991ZM327.882 298.032L314.656 290.444L320.813 286.915L335.118 290.796L327.882 298.032ZM322.482 285.962L332.883 280.001L335.458 289.484L322.482 285.962ZM318.953 286.415L313.964 289.27V285.056L318.953 286.415ZM312.582 289.27L307.593 286.415L312.582 285.056V289.27ZM291.088 289.478L293.663 279.995L304.064 285.956L291.088 289.478ZM262.174 263.461L288.805 290.098L278.97 292.769L262.174 263.461ZM289.181 291.421L285.664 304.397L279.704 293.996L289.181 291.421ZM209.96 312.879L278.339 294.354L285.157 306.275L283.375 312.879H209.96ZM284.758 312.879L286.117 307.89L288.972 312.879H284.758ZM291.315 312.879L298.718 299.957L311.646 312.879H291.315ZM314.924 312.879L327.84 299.957L335.231 312.879H314.924ZM337.574 312.879L340.429 307.89L341.824 312.879H337.574ZM416.586 312.879H343.23L341.442 306.221L348.261 294.3L416.586 312.879ZM346.848 293.961L340.888 304.362L337.401 291.421L346.848 293.961ZM347.546 292.739L337.711 290.068L364.348 263.431L347.546 292.739ZM363.383 262.471L336.745 289.103L334.075 279.268L363.383 262.471ZM332.49 278.606L320.634 285.461L313.97 283.673V210.258L332.49 278.606ZM312.582 283.673L305.918 285.461L294.027 278.642L312.582 210.258V283.673Z" fill="url(#paint82_linear_1131_7510)"/>
<defs>
<filter id="filter0_di_1131_7510" x="0.557617" y="0.855957" width="625.464" height="625.464" filterUnits="userSpaceOnUse" color-interpolation-filters="sRGB">
<feFlood flood-opacity="0" result="BackgroundImageFix"/>
<feColorMatrix in="SourceAlpha" type="matrix" values="0 0 0 0 0 0 0 0 0 0 0 0 0 0 0 0 0 0 127 0" result="hardAlpha"/>
<feOffset/>
<feGaussianBlur stdDeviation="95"/>
<feComposite in2="hardAlpha" operator="out"/>
<feColorMatrix type="matrix" values="0 0 0 0 1 0 0 0 0 0 0 0 0 0 0 0 0 0 0.6 0"/>
<feBlend mode="normal" in2="BackgroundImageFix" result="effect1_dropShadow_1131_7510"/>
<feBlend mode="normal" in="SourceGraphic" in2="effect1_dropShadow_1131_7510" result="shape"/>
<feColorMatrix in="SourceAlpha" type="matrix" values="0 0 0 0 0 0 0 0 0 0 0 0 0 0 0 0 0 0 127 0" result="hardAlpha"/>
<feOffset/>
<feGaussianBlur stdDeviation="15"/>
<feComposite in2="hardAlpha" operator="arithmetic" k2="-1" k3="1"/>
<feColorMatrix type="matrix" values="0 0 0 0 1 0 0 0 0 0 0 0 0 0 0 0 0 0 0.45 0"/>
<feBlend mode="normal" in2="shape" result="effect2_innerShadow_1131_7510"/>
</filter>
<linearGradient id="paint0_linear_1131_7510" x1="308748" y1="-94077.6" x2="296131" y2="-86559" gradientUnits="userSpaceOnUse">
<stop stop-color="#A36D4F"/>
<stop offset="1" stop-color="white"/>
</linearGradient>
<linearGradient id="paint1_linear_1131_7510" x1="347729" y1="-88949.9" x2="334924" y2="-79860.2" gradientUnits="userSpaceOnUse">
<stop stop-color="#A36D4F"/>
<stop offset="1" stop-color="white"/>
</linearGradient>
<linearGradient id="paint2_linear_1131_7510" x1="384048" y1="-83122.1" x2="371562" y2="-72649" gradientUnits="userSpaceOnUse">
<stop stop-color="#A36D4F"/>
<stop offset="1" stop-color="white"/>
</linearGradient>
<linearGradient id="paint3_linear_1131_7510" x1="417930" y1="-76789.4" x2="406213" y2="-65215.8" gradientUnits="userSpaceOnUse">
<stop stop-color="#A36D4F"/>
<stop offset="1" stop-color="white"/>
</linearGradient>
<linearGradient id="paint4_linear_1131_7510" x1="449108" y1="-69945" x2="438555" y2="-57650.1" gradientUnits="userSpaceOnUse">
<stop stop-color="#A36D4F"/>
<stop offset="1" stop-color="white"/>
</linearGradient>
<linearGradient id="paint5_linear_1131_7510" x1="477112" y1="-62598.3" x2="468032" y2="-50046.9" gradientUnits="userSpaceOnUse">
<stop stop-color="#A36D4F"/>
<stop offset="1" stop-color="white"/>
</linearGradient>
<linearGradient id="paint6_linear_1131_7510" x1="501763" y1="-54816.8" x2="494354" y2="-42527" gradientUnits="userSpaceOnUse">
<stop stop-color="#A36D4F"/>
<stop offset="1" stop-color="white"/>
</linearGradient>
<linearGradient id="paint7_linear_1131_7510" x1="523148" y1="-46686.2" x2="517483" y2="-35193.6" gradientUnits="userSpaceOnUse">
<stop stop-color="#A36D4F"/>
<stop offset="1" stop-color="white"/>
</linearGradient>
<linearGradient id="paint8_linear_1131_7510" x1="540764" y1="-38220.7" x2="536792" y2="-28061.7" gradientUnits="userSpaceOnUse">
<stop stop-color="#A36D4F"/>
<stop offset="1" stop-color="white"/>
</linearGradient>
<linearGradient id="paint9_linear_1131_7510" x1="555304" y1="-29538.7" x2="552843" y2="-21191.8" gradientUnits="userSpaceOnUse">
<stop stop-color="#A36D4F"/>
<stop offset="1" stop-color="white"/>
</linearGradient>
<linearGradient id="paint10_linear_1131_7510" x1="565573" y1="-20626" x2="564332" y2="-14514.1" gradientUnits="userSpaceOnUse">
<stop stop-color="#A36D4F"/>
<stop offset="1" stop-color="white"/>
</linearGradient>
<linearGradient id="paint11_linear_1131_7510" x1="572067" y1="-11586.6" x2="571659" y2="-8016.48" gradientUnits="userSpaceOnUse">
<stop stop-color="#A36D4F"/>
<stop offset="1" stop-color="white"/>
</linearGradient>
<linearGradient id="paint12_linear_1131_7510" x1="574716" y1="-2474.49" x2="574693" y2="-1627.97" gradientUnits="userSpaceOnUse">
<stop stop-color="#A36D4F"/>
<stop offset="1" stop-color="white"/>
</linearGradient>
<linearGradient id="paint13_linear_1131_7510" x1="573465" y1="-8296.02" x2="573252" y2="-5700.68" gradientUnits="userSpaceOnUse">
<stop stop-color="#A36D4F"/>
<stop offset="1" stop-color="white"/>
</linearGradient>
<linearGradient id="paint14_linear_1131_7510" x1="568369" y1="-17397.5" x2="567477" y2="-12174.9" gradientUnits="userSpaceOnUse">
<stop stop-color="#A36D4F"/>
<stop offset="1" stop-color="white"/>
</linearGradient>
<linearGradient id="paint15_linear_1131_7510" x1="559320" y1="-26361.4" x2="557341" y2="-18783.7" gradientUnits="userSpaceOnUse">
<stop stop-color="#A36D4F"/>
<stop offset="1" stop-color="white"/>
</linearGradient>
<linearGradient id="paint16_linear_1131_7510" x1="546541" y1="-35146.6" x2="543146" y2="-25592.5" gradientUnits="userSpaceOnUse">
<stop stop-color="#A36D4F"/>
<stop offset="1" stop-color="white"/>
</linearGradient>
<linearGradient id="paint17_linear_1131_7510" x1="530132" y1="-43729" x2="525093" y2="-32656.9" gradientUnits="userSpaceOnUse">
<stop stop-color="#A36D4F"/>
<stop offset="1" stop-color="white"/>
</linearGradient>
<linearGradient id="paint18_linear_1131_7510" x1="509741" y1="-51959.6" x2="502968" y2="-39901.8" gradientUnits="userSpaceOnUse">
<stop stop-color="#A36D4F"/>
<stop offset="1" stop-color="white"/>
</linearGradient>
<linearGradient id="paint19_linear_1131_7510" x1="486387" y1="-59898.5" x2="477899" y2="-47382.5" gradientUnits="userSpaceOnUse">
<stop stop-color="#A36D4F"/>
<stop offset="1" stop-color="white"/>
</linearGradient>
<linearGradient id="paint20_linear_1131_7510" x1="459426" y1="-67398.7" x2="449383" y2="-54959.8" gradientUnits="userSpaceOnUse">
<stop stop-color="#A36D4F"/>
<stop offset="1" stop-color="white"/>
</linearGradient>
<linearGradient id="paint21_linear_1131_7510" x1="429543" y1="-74462.8" x2="418210" y2="-62579.8" gradientUnits="userSpaceOnUse">
<stop stop-color="#A36D4F"/>
<stop offset="1" stop-color="white"/>
</linearGradient>
<linearGradient id="paint22_linear_1131_7510" x1="396621" y1="-80990.3" x2="384368" y2="-70080" gradientUnits="userSpaceOnUse">
<stop stop-color="#A36D4F"/>
<stop offset="1" stop-color="white"/>
</linearGradient>
<linearGradient id="paint23_linear_1131_7510" x1="361097" y1="-87007.3" x2="348356" y2="-77391.3" gradientUnits="userSpaceOnUse">
<stop stop-color="#A36D4F"/>
<stop offset="1" stop-color="white"/>
</linearGradient>
<linearGradient id="paint24_linear_1131_7510" x1="323122" y1="-92432.3" x2="310379" y2="-84330.7" gradientUnits="userSpaceOnUse">
<stop stop-color="#A36D4F"/>
<stop offset="1" stop-color="white"/>
</linearGradient>
<linearGradient id="paint25_linear_1131_7510" x1="282900" y1="-97166.2" x2="270666" y2="-90688.1" gradientUnits="userSpaceOnUse">
<stop stop-color="#A36D4F"/>
<stop offset="1" stop-color="white"/>
</linearGradient>
<linearGradient id="paint26_linear_1131_7510" x1="240824" y1="-101292" x2="229592" y2="-96435" gradientUnits="userSpaceOnUse">
<stop stop-color="#A36D4F"/>
<stop offset="1" stop-color="white"/>
</linearGradient>
<linearGradient id="paint27_linear_1131_7510" x1="197178" y1="-104726" x2="187410" y2="-101382" gradientUnits="userSpaceOnUse">
<stop stop-color="#A36D4F"/>
<stop offset="1" stop-color="white"/>
</linearGradient>
<linearGradient id="paint28_linear_1131_7510" x1="152178" y1="-107443" x2="144283" y2="-105410" gradientUnits="userSpaceOnUse">
<stop stop-color="#A36D4F"/>
<stop offset="1" stop-color="white"/>
</linearGradient>
<linearGradient id="paint29_linear_1131_7510" x1="106260" y1="-109498" x2="100564" y2="-108494" gradientUnits="userSpaceOnUse">
<stop stop-color="#A36D4F"/>
<stop offset="1" stop-color="white"/>
</linearGradient>
<linearGradient id="paint30_linear_1131_7510" x1="59493.9" y1="-110684" x2="56244.4" y2="-110367" gradientUnits="userSpaceOnUse">
<stop stop-color="#A36D4F"/>
<stop offset="1" stop-color="white"/>
</linearGradient>
<linearGradient id="paint31_linear_1131_7510" x1="12446.1" y1="-111135" x2="11773.9" y2="-111122" gradientUnits="userSpaceOnUse">
<stop stop-color="#A36D4F"/>
<stop offset="1" stop-color="white"/>
</linearGradient>
<linearGradient id="paint32_linear_1131_7510" x1="46997.9" y1="-110879" x2="44426" y2="-110681" gradientUnits="userSpaceOnUse">
<stop stop-color="#A36D4F"/>
<stop offset="1" stop-color="white"/>
</linearGradient>
<linearGradient id="paint33_linear_1131_7510" x1="93862" y1="-109878" x2="88799.6" y2="-109093" gradientUnits="userSpaceOnUse">
<stop stop-color="#A36D4F"/>
<stop offset="1" stop-color="white"/>
</linearGradient>
<linearGradient id="paint34_linear_1131_7510" x1="140034" y1="-108115" x2="132697" y2="-106388" gradientUnits="userSpaceOnUse">
<stop stop-color="#A36D4F"/>
<stop offset="1" stop-color="white"/>
</linearGradient>
<linearGradient id="paint35_linear_1131_7510" x1="185334" y1="-105533" x2="176029" y2="-102562" gradientUnits="userSpaceOnUse">
<stop stop-color="#A36D4F"/>
<stop offset="1" stop-color="white"/>
</linearGradient>
<linearGradient id="paint36_linear_1131_7510" x1="229394" y1="-102290" x2="218509" y2="-97852.5" gradientUnits="userSpaceOnUse">
<stop stop-color="#A36D4F"/>
<stop offset="1" stop-color="white"/>
</linearGradient>
<linearGradient id="paint37_linear_1131_7510" x1="272015" y1="-98370.9" x2="259997" y2="-92328.5" gradientUnits="userSpaceOnUse">
<stop stop-color="#A36D4F"/>
<stop offset="1" stop-color="white"/>
</linearGradient>
<linearGradient id="paint38_linear_1131_7510" x1="312664" y1="-93755.9" x2="300009" y2="-86082.2" gradientUnits="userSpaceOnUse">
<stop stop-color="#A36D4F"/>
<stop offset="1" stop-color="white"/>
</linearGradient>
<linearGradient id="paint39_linear_1131_7510" x1="351364" y1="-88531" x2="338572" y2="-79300.4" gradientUnits="userSpaceOnUse">
<stop stop-color="#A36D4F"/>
<stop offset="1" stop-color="white"/>
</linearGradient>
<linearGradient id="paint40_linear_1131_7510" x1="387429" y1="-82651.6" x2="375000" y2="-72061.7" gradientUnits="userSpaceOnUse">
<stop stop-color="#A36D4F"/>
<stop offset="1" stop-color="white"/>
</linearGradient>
<linearGradient id="paint41_linear_1131_7510" x1="421188" y1="-76262.8" x2="409569" y2="-64601.6" gradientUnits="userSpaceOnUse">
<stop stop-color="#A36D4F"/>
<stop offset="1" stop-color="white"/>
</linearGradient>
<linearGradient id="paint42_linear_1131_7510" x1="452021" y1="-69356.5" x2="441599" y2="-57017.2" gradientUnits="userSpaceOnUse">
<stop stop-color="#A36D4F"/>
<stop offset="1" stop-color="white"/>
</linearGradient>
<linearGradient id="paint43_linear_1131_7510" x1="479653" y1="-61946" x2="470729" y2="-49400.1" gradientUnits="userSpaceOnUse">
<stop stop-color="#A36D4F"/>
<stop offset="1" stop-color="white"/>
</linearGradient>
<linearGradient id="paint44_linear_1131_7510" x1="504112" y1="-54128.6" x2="496871" y2="-41892.6" gradientUnits="userSpaceOnUse">
<stop stop-color="#A36D4F"/>
<stop offset="1" stop-color="white"/>
</linearGradient>
<linearGradient id="paint45_linear_1131_7510" x1="525174" y1="-45955.5" x2="519677" y2="-34568.4" gradientUnits="userSpaceOnUse">
<stop stop-color="#A36D4F"/>
<stop offset="1" stop-color="white"/>
</linearGradient>
<linearGradient id="paint46_linear_1131_7510" x1="542646" y1="-37467.7" x2="538828" y2="-27459.1" gradientUnits="userSpaceOnUse">
<stop stop-color="#A36D4F"/>
<stop offset="1" stop-color="white"/>
</linearGradient>
<linearGradient id="paint47_linear_1131_7510" x1="556636" y1="-28736.4" x2="554305" y2="-20587.1" gradientUnits="userSpaceOnUse">
<stop stop-color="#A36D4F"/>
<stop offset="1" stop-color="white"/>
</linearGradient>
<linearGradient id="paint48_linear_1131_7510" x1="566512" y1="-19792.8" x2="565369" y2="-13913.5" gradientUnits="userSpaceOnUse">
<stop stop-color="#A36D4F"/>
<stop offset="1" stop-color="white"/>
</linearGradient>
<linearGradient id="paint49_linear_1131_7510" x1="572655" y1="-10731" x2="572305" y2="-7416.24" gradientUnits="userSpaceOnUse">
<stop stop-color="#A36D4F"/>
<stop offset="1" stop-color="white"/>
</linearGradient>
<linearGradient id="paint50_linear_1131_7510" x1="574929" y1="-1594.31" x2="574918" y2="-1015.27" gradientUnits="userSpaceOnUse">
<stop stop-color="#A36D4F"/>
<stop offset="1" stop-color="white"/>
</linearGradient>
<linearGradient id="paint51_linear_1131_7510" x1="573314" y1="-9159.25" x2="573055" y2="-6303.86" gradientUnits="userSpaceOnUse">
<stop stop-color="#A36D4F"/>
<stop offset="1" stop-color="white"/>
</linearGradient>
<linearGradient id="paint52_linear_1131_7510" x1="567797" y1="-18239.1" x2="566817" y2="-12776.2" gradientUnits="userSpaceOnUse">
<stop stop-color="#A36D4F"/>
<stop offset="1" stop-color="white"/>
</linearGradient>
<linearGradient id="paint53_linear_1131_7510" x1="558528" y1="-27185.9" x2="556424" y2="-19396.8" gradientUnits="userSpaceOnUse">
<stop stop-color="#A36D4F"/>
<stop offset="1" stop-color="white"/>
</linearGradient>
<linearGradient id="paint54_linear_1131_7510" x1="545242" y1="-35933.7" x2="541695" y2="-26211.2" gradientUnits="userSpaceOnUse">
<stop stop-color="#A36D4F"/>
<stop offset="1" stop-color="white"/>
</linearGradient>
<linearGradient id="paint55_linear_1131_7510" x1="528424" y1="-44441.5" x2="523225" y2="-33255.7" gradientUnits="userSpaceOnUse">
<stop stop-color="#A36D4F"/>
<stop offset="1" stop-color="white"/>
</linearGradient>
<linearGradient id="paint56_linear_1131_7510" x1="507844" y1="-52671.5" x2="500900" y2="-40543.9" gradientUnits="userSpaceOnUse">
<stop stop-color="#A36D4F"/>
<stop offset="1" stop-color="white"/>
</linearGradient>
<linearGradient id="paint57_linear_1131_7510" x1="484078" y1="-60533.4" x2="475434" y2="-48003.2" gradientUnits="userSpaceOnUse">
<stop stop-color="#A36D4F"/>
<stop offset="1" stop-color="white"/>
</linearGradient>
<linearGradient id="paint58_linear_1131_7510" x1="456890" y1="-68002.5" x2="446708" y2="-55595.2" gradientUnits="userSpaceOnUse">
<stop stop-color="#A36D4F"/>
<stop offset="1" stop-color="white"/>
</linearGradient>
<linearGradient id="paint59_linear_1131_7510" x1="426444" y1="-74978.6" x2="415007" y2="-63177.6" gradientUnits="userSpaceOnUse">
<stop stop-color="#A36D4F"/>
<stop offset="1" stop-color="white"/>
</linearGradient>
<linearGradient id="paint60_linear_1131_7510" x1="393719" y1="-81532.5" x2="381389" y2="-70726.6" gradientUnits="userSpaceOnUse">
<stop stop-color="#A36D4F"/>
<stop offset="1" stop-color="white"/>
</linearGradient>
<linearGradient id="paint61_linear_1131_7510" x1="357707" y1="-87430.8" x2="344942" y2="-77951.2" gradientUnits="userSpaceOnUse">
<stop stop-color="#A36D4F"/>
<stop offset="1" stop-color="white"/>
</linearGradient>
<linearGradient id="paint62_linear_1131_7510" x1="319507" y1="-92783.1" x2="306789" y2="-84832.8" gradientUnits="userSpaceOnUse">
<stop stop-color="#A36D4F"/>
<stop offset="1" stop-color="white"/>
</linearGradient>
<linearGradient id="paint63_linear_1131_7510" x1="279008" y1="-97449.3" x2="266849" y2="-91129.6" gradientUnits="userSpaceOnUse">
<stop stop-color="#A36D4F"/>
<stop offset="1" stop-color="white"/>
</linearGradient>
<linearGradient id="paint64_linear_1131_7510" x1="236758" y1="-101493" x2="225648" y2="-96787.9" gradientUnits="userSpaceOnUse">
<stop stop-color="#A36D4F"/>
<stop offset="1" stop-color="white"/>
</linearGradient>
<linearGradient id="paint65_linear_1131_7510" x1="192958" y1="-104855" x2="183354" y2="-101648" gradientUnits="userSpaceOnUse">
<stop stop-color="#A36D4F"/>
<stop offset="1" stop-color="white"/>
</linearGradient>
<linearGradient id="paint66_linear_1131_7510" x1="147842" y1="-107490" x2="140146" y2="-105569" gradientUnits="userSpaceOnUse">
<stop stop-color="#A36D4F"/>
<stop offset="1" stop-color="white"/>
</linearGradient>
<linearGradient id="paint67_linear_1131_7510" x1="101746" y1="-109458" x2="96280.4" y2="-108538" gradientUnits="userSpaceOnUse">
<stop stop-color="#A36D4F"/>
<stop offset="1" stop-color="white"/>
</linearGradient>
<linearGradient id="paint68_linear_1131_7510" x1="55014.4" y1="-110589" x2="52007.4" y2="-110318" gradientUnits="userSpaceOnUse">
<stop stop-color="#A36D4F"/>
<stop offset="1" stop-color="white"/>
</linearGradient>
<linearGradient id="paint69_linear_1131_7510" x1="7916.62" y1="-110965" x2="7495.31" y2="-110959" gradientUnits="userSpaceOnUse">
<stop stop-color="#A36D4F"/>
<stop offset="1" stop-color="white"/>
</linearGradient>
<linearGradient id="paint70_linear_1131_7510" x1="51463.8" y1="-110643" x2="48648.4" y2="-110406" gradientUnits="userSpaceOnUse">
<stop stop-color="#A36D4F"/>
<stop offset="1" stop-color="white"/>
</linearGradient>
<linearGradient id="paint71_linear_1131_7510" x1="98368.9" y1="-109557" x2="93073.9" y2="-108696" gradientUnits="userSpaceOnUse">
<stop stop-color="#A36D4F"/>
<stop offset="1" stop-color="white"/>
</linearGradient>
<linearGradient id="paint72_linear_1131_7510" x1="144470" y1="-107735" x2="136926" y2="-105900" gradientUnits="userSpaceOnUse">
<stop stop-color="#A36D4F"/>
<stop offset="1" stop-color="white"/>
</linearGradient>
<linearGradient id="paint73_linear_1131_7510" x1="189575" y1="-105075" x2="180101" y2="-101972" gradientUnits="userSpaceOnUse">
<stop stop-color="#A36D4F"/>
<stop offset="1" stop-color="white"/>
</linearGradient>
<linearGradient id="paint74_linear_1131_7510" x1="233495" y1="-101787" x2="222481" y2="-97199.3" gradientUnits="userSpaceOnUse">
<stop stop-color="#A36D4F"/>
<stop offset="1" stop-color="white"/>
</linearGradient>
<linearGradient id="paint75_linear_1131_7510" x1="275923" y1="-97808.9" x2="263822" y2="-91609.6" gradientUnits="userSpaceOnUse">
<stop stop-color="#A36D4F"/>
<stop offset="1" stop-color="white"/>
</linearGradient>
<linearGradient id="paint76_linear_1131_7510" x1="313.291" y1="437.214" x2="313.291" y2="189.962" gradientUnits="userSpaceOnUse">
<stop stop-color="#AB8D60"/>
<stop offset="0.07" stop-color="#B29466"/>
<stop offset="0.51" stop-color="#DBC087"/>
<stop offset="1" stop-color="#AB8D60"/>
</linearGradient>
<linearGradient id="paint77_linear_1131_7510" x1="126.233" y1="208.35" x2="495.603" y2="421.604" gradientUnits="userSpaceOnUse">
<stop stop-color="#666666"/>
<stop offset="0.28" stop-color="#A0A0A0"/>
<stop offset="0.51" stop-color="#CCCCCC"/>
<stop offset="1" stop-color="#666666"/>
</linearGradient>
<linearGradient id="paint78_linear_1131_7510" x1="102982" y1="-186955" x2="78452.9" y2="-186955" gradientUnits="userSpaceOnUse">
<stop stop-color="#AB8D60"/>
<stop offset="0.07" stop-color="#B29466"/>
<stop offset="0.51" stop-color="#DBC087"/>
<stop offset="1" stop-color="#AB8D60"/>
</linearGradient>
<linearGradient id="paint79_linear_1131_7510" x1="82244.9" y1="-133971" x2="73748.1" y2="-133971" gradientUnits="userSpaceOnUse">
<stop stop-color="#666666"/>
<stop offset="0.28" stop-color="#A0A0A0"/>
<stop offset="0.51" stop-color="#CCCCCC"/>
<stop offset="1" stop-color="#666666"/>
</linearGradient>
<linearGradient id="paint80_linear_1131_7510" x1="54051.6" y1="-89751.6" x2="50250.8" y2="-89751.6" gradientUnits="userSpaceOnUse">
<stop stop-color="#666666"/>
<stop offset="0.28" stop-color="#A0A0A0"/>
<stop offset="0.51" stop-color="#CCCCCC"/>
<stop offset="1" stop-color="#666666"/>
</linearGradient>
<linearGradient id="paint81_linear_1131_7510" x1="33439.8" y1="-86174.1" x2="24875.3" y2="-86174.1" gradientUnits="userSpaceOnUse">
<stop stop-color="#AB8D60"/>
<stop offset="0.07" stop-color="#B29466"/>
<stop offset="0.51" stop-color="#DBC087"/>
<stop offset="1" stop-color="#AB8D60"/>
</linearGradient>
<linearGradient id="paint82_linear_1131_7510" x1="422.415" y1="313.588" x2="204.167" y2="313.588" gradientUnits="userSpaceOnUse">
<stop stop-color="#999999"/>
<stop offset="0.07" stop-color="#A0A0A0"/>
<stop offset="0.51" stop-color="#CCCCCC"/>
<stop offset="1" stop-color="#999999"/>
</linearGradient>
</defs>
</svg>
