<svg viewBox="0 0 627 627" fill="none" xmlns="http://www.w3.org/2000/svg"><g opacity=".3"><path d="M314.179 313.582a.921.921 0 0 1-.137.477l-92.769 147.593a.895.895 0 1 1-1.514-.953l92.769-147.593a.88.88 0 0 1 .558-.396.916.916 0 0 1 .35-.01c.115.02.226.063.325.125a.908.908 0 0 1 .418.757Z" fill="url(#a)"/><path d="M314.178 313.582a.893.893 0 0 1-.179.536L209.327 453.546a.881.881 0 0 1-.594.396.898.898 0 0 1-.936-.441.888.888 0 0 1-.073-.71.887.887 0 0 1 .179-.318l104.678-139.427a.891.891 0 0 1 1.44.013c.11.152.169.335.169.523h-.012Z" fill="url(#b)"/><path d="M314.179 313.582a.91.91 0 0 1-.227.596l-115.854 130.26a.896.896 0 0 1-1.335-1.192l115.854-130.254a.893.893 0 0 1 1.562.596v-.006Z" fill="url(#c)"/><path d="M314.179 313.582a.916.916 0 0 1-.28.65L187.662 434.473a.898.898 0 0 1-1.234-1.3l126.237-120.234a.903.903 0 0 1 .966-.171.908.908 0 0 1 .548.814Z" fill="url(#d)"/><path d="M314.179 313.583a.893.893 0 0 1-.334.697L178.089 423.637a.905.905 0 0 1-.671.233.888.888 0 0 1-.629-.33.885.885 0 0 1-.068-1.027.895.895 0 0 1 .248-.265l135.755-109.369a.898.898 0 0 1 .947-.109.895.895 0 0 1 .508.807v.006Z" fill="url(#e)"/><path d="M314.179 313.582a.883.883 0 0 1-.394.739l-144.344 97.752a.902.902 0 0 1-1.024.042.91.91 0 0 1-.396-.586.896.896 0 0 1 .418-.934l144.345-97.752a.903.903 0 0 1 1.24.238.925.925 0 0 1 .155.501Z" fill="url(#f)"/><path d="M314.179 313.582a.89.89 0 0 1-.459.781l-151.939 85.461a.892.892 0 0 1-1.219-.342.899.899 0 0 1 .343-1.219l151.939-85.456a.904.904 0 0 1 .681-.084.898.898 0 0 1 .54.424.886.886 0 0 1 .114.435Z" fill="url(#g)"/><path d="M314.179 313.582a.902.902 0 0 1-.525.817l-158.495 72.586a.892.892 0 0 1-1.186-.441.892.892 0 0 1 .441-1.186l158.495-72.587a.893.893 0 0 1 1.27.811Z" fill="url(#h)"/><path d="M314.179 313.582a.888.888 0 0 1-.596.84l-163.961 59.217a.894.894 0 0 1-.596-1.68l163.955-59.218a.894.894 0 0 1 1.198.841Z" fill="url(#i)"/><path d="M314.179 313.582a.896.896 0 0 1-.662.864l-168.3 45.437a.899.899 0 0 1-.709-.056.922.922 0 0 1-.28-.232.907.907 0 0 1-.185-.687.888.888 0 0 1 .375-.605c.1-.07.214-.118.334-.142l168.3-45.443a.902.902 0 0 1 1.097.632c.019.076.029.154.03.232Z" fill="url(#j)"/><path d="M314.179 313.582a.9.9 0 0 1-.733.883l-171.483 31.346a.903.903 0 0 1-.932-.385.895.895 0 0 1 .61-1.374l171.483-31.346a.894.894 0 0 1 1.055.876Z" fill="url(#k)"/><path d="M314.179 313.582a.886.886 0 0 1-.811.888l-173.486 17.047a.907.907 0 0 1-.881-.469.9.9 0 0 1 .703-1.319l173.473-17.035a.89.89 0 0 1 .656.2.898.898 0 0 1 .322.605.413.413 0 0 1 .024.083Z" fill="url(#l)"/><path d="M314.179 313.583a.896.896 0 0 1-.882.894l-174.303 2.622a.875.875 0 0 1-.343-.061.912.912 0 0 1-.494-.474.913.913 0 0 1-.075-.341.92.92 0 0 1 .883-.912l174.308-2.623a.896.896 0 0 1 .906.883v.012Z" fill="url(#m)"/><path d="M314.178 313.582a.896.896 0 0 1-.948.894l-173.926-11.814a.88.88 0 0 1-.615-.304.884.884 0 0 1-.22-.649.904.904 0 0 1 .304-.615.9.9 0 0 1 .65-.22l173.926 11.82a.892.892 0 0 1 .829.888Z" fill="url(#n)"/><path d="M314.178 313.582c.003.046.003.092 0 .137a.896.896 0 0 1-.67.736.892.892 0 0 1-.349.015L140.8 288.292a.906.906 0 0 1-.76-1.028.894.894 0 0 1 .356-.593.887.887 0 0 1 .32-.15.888.888 0 0 1 .352-.017L313.415 312.7a.891.891 0 0 1 .763.882Z" fill="url(#o)"/><path d="M314.179 313.582a.812.812 0 0 1 0 .209.89.89 0 0 1-.73.675.873.873 0 0 1-.349-.014L143.513 274.1a.897.897 0 1 1 .387-1.752L313.494 312.7a.904.904 0 0 1 .685.882Z" fill="url(#p)"/><path d="M314.179 313.583a.951.951 0 0 1-.048.28.895.895 0 0 1-.437.536.875.875 0 0 1-.69.06l-165.665-54.24a.9.9 0 0 1-.575-1.13.896.896 0 0 1 1.129-.575l165.666 54.24a.886.886 0 0 1 .62.829Z" fill="url(#q)"/><path d="M314.179 313.583a.922.922 0 0 1-.27.647.888.888 0 0 1-.994.175l-160.587-67.782a.901.901 0 0 1-.505-.485.88.88 0 0 1-.001-.7.892.892 0 0 1 1.203-.46L313.63 312.76c.162.069.3.183.398.329.097.147.15.318.151.494Z" fill="url(#r)"/><path d="M314.179 313.583a.93.93 0 0 1-.102.417.895.895 0 0 1-1.192.375l-154.459-80.847a.892.892 0 0 1 .828-1.58l154.442 80.842a.903.903 0 0 1 .483.793Z" fill="url(#s)"/><path d="M314.179 313.582a.902.902 0 0 1-.925.894.906.906 0 0 1-.452-.137l-147.224-93.353a.895.895 0 0 1 .284-1.631.898.898 0 0 1 .676.117l147.235 93.359a.886.886 0 0 1 .406.751Z" fill="url(#t)"/><path d="M314.179 313.583a.874.874 0 0 1-.185.542.891.891 0 0 1-1.252.173L173.756 209.072a.9.9 0 0 1-.323-.587.895.895 0 0 1 1.402-.838l138.986 105.232a.888.888 0 0 1 .358.704Z" fill="url(#u)"/><path d="M314.179 313.582a.881.881 0 0 1-.233.597.889.889 0 0 1-1.257.071L182.887 197.884a.893.893 0 0 1-.071-1.264.893.893 0 0 1 1.263-.071l129.802 116.372a.886.886 0 0 1 .298.661Z" fill="url(#v)"/><path d="M314.179 313.582a.9.9 0 0 1-.572.816.889.889 0 0 1-.972-.22L192.913 187.483a.897.897 0 0 1 .048-1.25.895.895 0 0 1 1.251.022l119.722 126.713a.901.901 0 0 1 .245.614Z" fill="url(#w)"/><path d="M314.179 313.582a.898.898 0 0 1-.597.845.899.899 0 0 1-.995-.284l-108.82-136.191a.894.894 0 0 1 .453-1.418.892.892 0 0 1 .948.303l108.814 136.191a.875.875 0 0 1 .197.554Z" fill="url(#x)"/><path d="M314.179 313.582a.897.897 0 0 1-1.196.848.885.885 0 0 1-.443-.347l-97.156-144.732a.89.89 0 0 1 .226-1.266.902.902 0 0 1 .687-.132.89.89 0 0 1 .571.402l97.156 144.733a.846.846 0 0 1 .155.494Z" fill="url(#y)"/><path d="M314.179 313.582a.894.894 0 0 1-1.675.436l-84.853-152.279a.882.882 0 0 1-.07-.666.884.884 0 0 1 .415-.526.899.899 0 0 1 1.192.346l84.877 152.254a.886.886 0 0 1 .114.435Z" fill="url(#z)"/><path d="M314.179 313.583a.893.893 0 0 1-1.711.369l-71.955-158.781a.895.895 0 0 1 1.627-.739l71.955 158.781a.91.91 0 0 1 .084.37Z" fill="url(#A)"/><path d="M314.179 313.582a.886.886 0 0 1-.596.841.901.901 0 0 1-.684-.031.9.9 0 0 1-.461-.506l-58.561-164.193a.894.894 0 0 1 1.686-.596l58.562 164.187a.849.849 0 0 1 .054.298Z" fill="url(#B)"/><path d="M314.179 313.583a.894.894 0 0 1-1.759.232l-44.769-168.479a.907.907 0 0 1 .091-.678.879.879 0 0 1 .544-.415.89.89 0 0 1 1.094.634l44.769 168.479c.018.074.028.15.03.227Z" fill="url(#C)"/><path d="M314.179 313.582a.902.902 0 0 1-1.47.77.902.902 0 0 1-.319-.609l-30.666-171.608a.882.882 0 0 1 .127-.69.887.887 0 0 1 .587-.386.899.899 0 0 1 .926.422.886.886 0 0 1 .118.338l30.679 171.608a.81.81 0 0 1 .018.155Z" fill="url(#D)"/><path d="M314.179 313.582a.894.894 0 0 1-.853.936.894.894 0 0 1-.936-.853l-16.349-173.551a.897.897 0 0 1 1.687-.508c.055.104.09.218.101.335l16.344 173.533c.006.036.008.072.006.108Z" fill="url(#E)"/><path d="M314.179 313.582a.894.894 0 1 1-1.788 0l-1.932-174.314a.897.897 0 0 1 .894-.894.898.898 0 0 1 .895.894l1.931 174.314Z" fill="url(#F)"/><path d="M326.683 139.71v.065l-12.517 173.873a.888.888 0 0 1-.308.613.893.893 0 0 1-1.264-.092.897.897 0 0 1-.216-.652l12.517-173.873a.897.897 0 0 1 .927-.861.897.897 0 0 1 .861.927Z" fill="url(#G)"/><path d="M341.037 141.342a.524.524 0 0 1 0 .137l-26.858 172.258a.904.904 0 1 1-1.788-.274l26.87-172.246a.898.898 0 0 1 1.575-.515.897.897 0 0 1 .213.652l-.012-.012Z" fill="url(#H)"/><path d="M355.205 144.156a.904.904 0 0 1 0 .208l-41.026 169.433a.893.893 0 0 1-1.082.658.891.891 0 0 1-.658-1.081l41.002-169.427a.898.898 0 0 1 1.6-.454.904.904 0 0 1 .188.663h-.024Z" fill="url(#I)"/><path d="M369.092 148.131a.952.952 0 0 1-.047.286l-54.914 165.445a.89.89 0 0 1-.783.612.906.906 0 0 1-.651-.214.911.911 0 0 1-.308-.612.904.904 0 0 1 .043-.346l54.914-165.451a.89.89 0 0 1 .994-.613.895.895 0 0 1 .752.893Z" fill="url(#J)"/><path d="M382.599 153.252a.897.897 0 0 1-.072.346l-68.42 160.336a.892.892 0 0 1-1.174.471.89.89 0 0 1-.471-1.174l68.42-160.337a.89.89 0 0 1 1.516-.214c.13.16.201.36.201.566v.006Z" fill="url(#K)"/><path d="M395.64 159.462a.868.868 0 0 1-.107.417l-81.462 154.12a.906.906 0 0 1-.526.466.893.893 0 0 1-1.053-1.3l81.461-154.12a.893.893 0 0 1 1.192-.37.884.884 0 0 1 .495.787Z" fill="url(#L)"/><path d="M408.116 166.734a.894.894 0 0 1-.137.483l-93.943 146.854a.897.897 0 0 1-1.629-.291.891.891 0 0 1 .121-.674l93.943-146.854a.888.888 0 0 1 1.002-.373.896.896 0 0 1 .643.855Z" fill="url(#M)"/><path d="M419.953 175.02a.874.874 0 0 1-.185.542L313.994 314.125a.898.898 0 0 1-.956.361.888.888 0 0 1-.56-.429.88.88 0 0 1-.076-.701.912.912 0 0 1 .173-.316L418.35 174.477a.887.887 0 0 1 .996-.302.89.89 0 0 1 .607.845Z" fill="url(#N)"/><path d="M431.063 184.252a.871.871 0 0 1-.232.596L313.946 314.19a.896.896 0 0 1-1.329-1.192l116.885-129.342a.892.892 0 0 1 1.404.088c.103.15.158.327.157.508Z" fill="url(#O)"/><path d="M441.369 194.372a.88.88 0 0 1-.286.65l-127.191 119.21a.89.89 0 0 1-.986.17.891.891 0 0 1-.444-1.192.899.899 0 0 1 .208-.284l127.191-119.209a.903.903 0 0 1 1.358.167.904.904 0 0 1 .15.488Z" fill="url(#P)"/><path d="M450.798 205.311a.871.871 0 0 1-.339.697L313.838 314.286a.893.893 0 1 1-1.108-1.401l136.62-108.278a.903.903 0 0 1 1.258.149.875.875 0 0 1 .19.555Z" fill="url(#Q)"/><path d="M459.292 216.993a.9.9 0 0 1-.393.745l-145.126 96.589a.893.893 0 1 1-.989-1.49l145.12-96.589a.894.894 0 0 1 1.388.745Z" fill="url(#R)"/><path d="M466.79 229.337a.872.872 0 0 1-.458.781l-152.618 84.251a.894.894 0 0 1-1.292-1.032.894.894 0 0 1 .427-.536l152.588-84.245a.896.896 0 0 1 1.193.352.852.852 0 0 1 .16.429Z" fill="url(#S)"/><path d="M473.246 242.259a.89.89 0 0 1-.531.817l-159.067 71.323a.898.898 0 0 1-1.183-.45.894.894 0 0 1 .45-1.183l159.067-71.318a.897.897 0 0 1 1.192.448c.046.115.071.239.072.363Z" fill="url(#T)"/><path d="M478.604 255.659a.881.881 0 0 1-.596.84l-164.425 57.93a.903.903 0 0 1-.684-.036.897.897 0 0 1-.212-1.472.88.88 0 0 1 .3-.179l164.425-57.912a.894.894 0 0 1 1.139.549.858.858 0 0 1 .053.28Z" fill="url(#U)"/><path d="M482.83 269.487a.89.89 0 0 1-.184.548.89.89 0 0 1-.484.316l-168.681 44.108a.893.893 0 0 1-.779-1.583.882.882 0 0 1 .326-.146l168.651-44.107a.898.898 0 0 1 1.097.637c.026.073.044.149.054.227Z" fill="url(#V)"/><path d="M485.905 283.601a.9.9 0 0 1-.745.882l-171.721 29.981a.917.917 0 0 1-.678-.152.92.92 0 0 1-.371-.587.906.906 0 0 1 .739-1.049l171.709-29.958a.9.9 0 0 1 1.032.728c.017.05.029.102.035.155Z" fill="url(#W)"/><path d="M487.819 297.924a.895.895 0 0 1-.811.888l-173.622 15.665a.901.901 0 0 1-.975-.814.898.898 0 0 1 .814-.975l173.598-15.658a.9.9 0 0 1 .972.811l.024.083Z" fill="url(#X)"/><path d="M488.499 312.349a.903.903 0 0 1-.889.894l-174.32 1.233a.878.878 0 0 1-.635-.255.88.88 0 0 1-.265-.633.897.897 0 0 1 .889-.894l174.32-1.234a.889.889 0 0 1 .829.547.89.89 0 0 1 .071.342Z" fill="url(#Y)"/><path d="M488.004 326.785v.065a.884.884 0 0 1-.308.612.892.892 0 0 1-.652.211l-173.825-13.197a.898.898 0 0 1-.515-1.575.9.9 0 0 1 .652-.213l173.819 13.203a.896.896 0 0 1 .829.894Z" fill="url(#Z)"/><path d="M486.311 341.125c.003.048.003.096 0 .144a.895.895 0 0 1-1.025.745l-172.133-27.55a.904.904 0 0 1-.388-1.627.906.906 0 0 1 .675-.161l172.12 27.573a.885.885 0 0 1 .751.876Z" fill="url(#aa)"/><path d="M483.438 355.288a.904.904 0 0 1 0 .208.886.886 0 0 1-.406.554.903.903 0 0 1-.679.102l-169.277-41.723a.906.906 0 0 1-.702-.734.896.896 0 0 1 1.131-1.001l169.277 41.723a.889.889 0 0 1 .656.871Z" fill="url(#ab)"/><path d="M479.408 369.158a.905.905 0 0 1-.497.796.9.9 0 0 1-.683.05l-165.23-55.575a.9.9 0 0 1-.37-1.446.9.9 0 0 1 .966-.247L478.8 368.311a.9.9 0 0 1 .608.847Z" fill="url(#ac)"/><path d="M474.241 382.617a.835.835 0 0 1-.077.351.897.897 0 0 1-.847.546.876.876 0 0 1-.345-.081l-160.045-69.028a.897.897 0 0 1 .024-1.655.894.894 0 0 1 .685.01l160.063 69.064a.881.881 0 0 1 .387.317c.097.14.15.305.155.476Z" fill="url(#ad)"/><path d="M467.97 395.658a.893.893 0 0 1-.101.424.897.897 0 0 1-1.192.363l-153.781-82.07a.892.892 0 0 1-.369-1.21.892.892 0 0 1 1.21-.369l153.78 82.076a.892.892 0 0 1 .453.786Z" fill="url(#ae)"/><path d="M460.651 408.11a.906.906 0 0 1-.478.769.908.908 0 0 1-.905-.036l-146.473-94.51a.89.89 0 0 1-.388-.563.892.892 0 0 1 1.036-1.067.909.909 0 0 1 .324.128l146.473 94.528a.888.888 0 0 1 .411.751Z" fill="url(#af)"/><path d="M452.318 419.911a.893.893 0 0 1-1.436.71L312.736 314.292a.897.897 0 0 1-.164-1.255.897.897 0 0 1 1.255-.164l138.146 106.329a.897.897 0 0 1 .345.709Z" fill="url(#ag)"/><path d="M443.044 430.98a.89.89 0 0 1-.533.818.893.893 0 0 1-.963-.156L312.682 314.22a.893.893 0 0 1 1.192-1.323l128.878 117.404a.885.885 0 0 1 .292.679Z" fill="url(#ah)"/><path d="M432.881 441.25a.87.87 0 0 1-.286.65.891.891 0 0 1-1.263-.042L312.629 314.19a.891.891 0 0 1-.026-1.345.89.89 0 0 1 1.061-.105c.11.065.204.153.276.258l118.703 127.638a.89.89 0 0 1 .238.614Z" fill="url(#ai)"/><path d="M421.908 450.638a.896.896 0 0 1-1.146.86.903.903 0 0 1-.451-.306l-107.73-137.055a.896.896 0 0 1 .808-1.458.894.894 0 0 1 .599.355l107.729 137.049c.123.159.19.354.191.555Z" fill="url(#aj)"/><path d="M410.189 459.083a.888.888 0 0 1-.635.857.9.9 0 0 1-1.004-.362l-96.011-145.507a.906.906 0 0 1-.163-.688.907.907 0 0 1 .133-.336.91.91 0 0 1 .591-.389.891.891 0 0 1 .929.429l96.011 145.507c.098.145.15.315.149.489Z" fill="url(#ak)"/><path d="M397.815 466.534a.894.894 0 0 1-1.68.429l-83.638-152.952a.89.89 0 0 1 .369-1.187.89.89 0 0 1 1.199.329l83.637 152.952a.873.873 0 0 1 .113.429Z" fill="url(#al)"/><path d="M384.864 472.93a.892.892 0 0 1-.708.874.891.891 0 0 1-1.003-.511l-70.685-159.347a.891.891 0 0 1 .46-1.163.894.894 0 0 1 1.173.436l70.685 159.353a.855.855 0 0 1 .078.358Z" fill="url(#am)"/><path d="M371.429 478.24a.896.896 0 0 1-1.345.76.891.891 0 0 1-.39-.467l-57.256-164.659a.894.894 0 1 1 1.687-.596l57.256 164.664a.89.89 0 0 1 .048.298Z" fill="url(#an)"/><path d="M357.601 482.413a.893.893 0 0 1-.783.879.896.896 0 0 1-.976-.658l-43.428-168.825a.897.897 0 0 1 1.735-.447l43.428 168.83c.016.073.024.147.024.221Z" fill="url(#ao)"/><path d="M343.474 485.429a.895.895 0 0 1-1.473.759.897.897 0 0 1-.315-.61l-29.283-171.847a.898.898 0 0 1 .745-1.043.912.912 0 0 1 .918.414.918.918 0 0 1 .125.331l29.272 171.847a.676.676 0 0 1 .011.149Z" fill="url(#ap)"/><path d="M329.152 487.265a.897.897 0 0 1-.856.933.893.893 0 0 1-.933-.856L312.391 313.66a.896.896 0 1 1 1.788-.155l14.967 173.682s.006.054.006.078Z" fill="url(#aq)"/><path d="M314.721 487.908a.891.891 0 0 1-.894.894.893.893 0 0 1-.894-.894l-.542-174.32a.893.893 0 1 1 1.788 0l.542 174.32Z" fill="url(#ar)"/><path d="M314.178 313.582a.281.281 0 0 1 0 .071L300.29 487.425a.905.905 0 0 1-.312.611.89.89 0 0 1-.654.212.901.901 0 0 1-.822-.966L312.39 313.51a.893.893 0 0 1 .93-.858.897.897 0 0 1 .858.93Z" fill="url(#as)"/><path d="M314.178 313.582c.003.048.003.095 0 .143l-28.247 172.007a.903.903 0 0 1-1.627.388.904.904 0 0 1-.161-.674l28.259-172.007a.896.896 0 1 1 1.788.143h-.012Z" fill="url(#at)"/><path d="M314.179 313.582a1.023 1.023 0 0 1-.03.221l-42.373 169.092a.895.895 0 1 1-1.735-.435l42.373-169.092a.914.914 0 0 1 .338-.601.91.91 0 0 1 .664-.186.9.9 0 0 1 .787 1.001h-.024Z" fill="url(#au)"/><path d="M314.179 313.582a1.032 1.032 0 0 1-.048.292L257.9 478.878a.898.898 0 0 1-1.693-.596l56.231-164.986a.898.898 0 0 1 .992-.594.89.89 0 0 1 .749.88Z" fill="url(#av)"/><path d="M314.179 313.583a.847.847 0 0 1-.078.357l-69.696 159.789a.888.888 0 0 1-.493.474.895.895 0 0 1-1.146-1.19l69.696-159.788a.893.893 0 0 1 1.717.358Z" fill="url(#aw)"/><path d="M314.179 313.582a.896.896 0 0 1-.108.424l-82.689 153.47a.899.899 0 0 1-.885.498.893.893 0 0 1-.689-1.345l82.69-153.47a.896.896 0 0 1 1.005-.442.891.891 0 0 1 .676.865Z" fill="url(#ax)"/></g><g filter="url(#ay)"><path d="M226.505 226.803c-47.93 47.93-47.93 125.64 0 173.57 47.93 47.93 125.64 47.93 173.57 0 47.93-47.93 47.93-125.64 0-173.57-47.93-47.929-125.64-47.929-173.57 0Z" fill="#1E1D2B"/></g><path d="M436.917 313.588c0 68.17-55.432 123.626-123.626 123.626s-123.626-55.432-123.626-123.626 55.432-123.626 123.626-123.626 123.626 55.456 123.626 123.626Zm-245.464 0c0 67.181 54.657 121.838 121.838 121.838 67.18 0 121.838-54.657 121.838-121.838 0-67.18-54.658-121.838-121.838-121.838-67.181 0-121.838 54.658-121.838 121.838Z" fill="url(#az)"/><path d="M524.124 314.983a213.263 213.263 0 0 1-170.917 208.875 213.26 213.26 0 0 1-238.734-125.887 213.257 213.257 0 0 1 113.692-278.884 213.26 213.26 0 0 1 279.204 112.902 211.91 211.91 0 0 1 16.755 82.994Zm-424.618 0a211.41 211.41 0 0 0 252.65 207.341 211.418 211.418 0 0 0 108.245-57.852 211.416 211.416 0 0 0 46.757-230.939 211.397 211.397 0 0 0-45.937-68.853 211.397 211.397 0 0 0-150.064-61.924 211.404 211.404 0 0 0-149.728 62.732 210.008 210.008 0 0 0-61.923 149.495Z" fill="url(#aA)"/><path d="M271.173 271.471c-23.261 23.261-23.261 60.974 0 84.235 23.26 23.26 60.974 23.26 84.234 0 23.261-23.261 23.261-60.974 0-84.235-23.26-23.261-60.974-23.261-84.234 0Z" fill="#1E1D2B"/><path d="M373.748 313.589a60.458 60.458 0 1 1-60.457-60.457 60.52 60.52 0 0 1 60.457 60.457Zm-119.126 0a58.671 58.671 0 0 0 70.115 57.541 58.664 58.664 0 0 0 46.096-46.095 58.673 58.673 0 0 0-24.947-60.228 58.673 58.673 0 0 0-32.595-9.887 58.732 58.732 0 0 0-58.669 58.669Z" fill="url(#aB)"/><path d="M521.865 511.489c-1.609-7.415-5.644-25.952-5.644-25.952l-5.681 26.131-25.302 5.501 25.422 5.519 5.561 25.595 5.525-25.41 26.226-5.704-26.107-5.68Z" fill="#1E1D2B"/><path d="m552.192 517.168-29.695 6.462-6.276 28.86-6.312-29.039-28.879-6.283 28.76-6.252 6.431-29.588 6.396 29.409 29.575 6.431Zm-35.971 26.906 4.774-21.982 22.781-4.924-22.65-4.923-4.893-22.501-4.929 22.65-21.852 4.769 21.971 4.768 4.798 22.143Z" fill="url(#aC)"/><path d="M523.648 516.799c3.833-5.961 13.399-20.862 13.399-20.862l-20.986 13.513-20.32-13.066 13.113 20.415-13.196 20.546 20.403-13.114 21.07 13.543-13.483-20.975Z" fill="#1E1D2B"/><path d="m540.111 540.754-24.051-15.461-23.377 15.032 15.122-23.526-15.038-23.389 23.293 14.973 23.967-15.402-15.312 23.842 15.396 23.931Zm-41.479-6.383 17.428-11.2 18.096 11.629-11.569-18.001 11.486-17.881-18.013 11.593-17.345-11.152 11.212 17.44-11.295 17.572Z" fill="url(#aD)"/><path d="m114.741 101.604-4.768-22.71-4.769 22.71-11.235-7.337 7.337 11.235-22.71 4.769 22.71 4.768-7.337 11.229 11.235-7.331 4.769 22.709 4.768-22.709 11.23 7.331-7.332-11.229 22.71-4.768-22.71-4.769 7.332-11.235-11.23 7.337Z" fill="#1E1D2B"/><path d="m145.688 110.271-25.588 5.365 8.94 13.709-13.709-8.941-5.364 25.588-5.365-25.588-13.709 8.941 8.941-13.709-25.594-5.365 25.594-5.364-8.94-13.71 13.708 8.942 5.365-25.595 5.364 25.595 13.709-8.941-8.94 13.709 25.588 5.364Zm-28.515 4.173 19.819-4.173-19.819-4.172 5.716-8.762-8.762 5.722-4.172-19.818-4.172 19.818-8.768-5.722 5.722 8.762-19.819 4.172 19.819 4.173-5.722 8.762 8.768-5.717 4.172 19.819 4.172-19.819 8.762 5.717-5.716-8.762Z" fill="url(#aE)"/><path d="m334.11 347.879 29.307 16.803-26.637-26.638-2.67 9.835ZM364.378 363.716l-16.797-29.308-9.834 2.67 26.631 26.638ZM289.8 338.044l-26.637 26.632 29.308-16.797-2.671-9.835ZM320.634 341.722l-6.664 1.806v73.391l18.555-68.378-11.891-6.819ZM337.401 335.761l9.483-2.574-5.961-10.401-3.522 12.975ZM305.947 341.722l-11.892 6.819 18.555 68.378v-73.391l-6.663-1.806ZM311.645 314.268h-20.319l7.403 12.922 12.916-12.922ZM348.243 332.823l68.379-18.555H343.23l-1.806 6.664 6.819 11.891ZM288.972 314.267h-4.214l1.359 4.989 2.855-4.989ZM341.823 314.267h-4.214l2.861 4.989 1.353-4.989ZM335.255 314.268h-20.319l12.916 12.922 7.403-12.922ZM286.617 321.117l3.88 14.299 7.236-7.23-7.581-13.226-3.535 6.157ZM279 334.408l-16.797 29.308 26.631-26.638-9.834-2.67ZM335.463 337.699l-12.976 3.522 10.401 5.961 2.575-9.483ZM312.61 337.907l-4.989 2.861 4.989 1.353v-4.214ZM304.094 341.221l-12.976-3.522 2.575 9.483 10.401-5.961ZM285.658 322.786l-5.96 10.401 9.483 2.574-3.523-12.975ZM298.693 329.145l-7.23 7.236 14.299 3.88 6.157-3.534-13.226-7.582ZM285.157 320.932l-1.806-6.664h-73.392l68.379 18.555 6.819-11.891ZM299.688 328.15l12.922 7.403v-20.32l-12.922 12.917ZM327.889 329.145l-13.227 7.582 6.157 3.534 14.3-3.88-7.23-7.236ZM336.429 314.96l-7.575 13.226 7.23 7.23 3.88-14.299-3.535-6.157ZM313.97 335.553l12.923-7.403-12.923-12.917v20.32ZM318.959 340.768l-4.989-2.861v4.214l4.989-1.353ZM314.936 312.909h20.325l-7.409-12.922-12.916 12.922ZM337.609 312.909h4.214l-1.353-4.989-2.861 4.989ZM340.923 304.391l5.961-10.401-9.483-2.575 3.522 12.976ZM278.338 294.354l-68.379 18.555h73.392l1.806-6.658-6.819-11.897ZM292.471 279.297l-29.308-16.796 26.637 26.631 2.671-9.835ZM291.326 312.909h20.319l-12.916-12.922-7.403 12.922ZM343.23 312.909h73.392l-68.379-18.555-6.819 11.897 1.806 6.658ZM347.581 292.768l16.797-29.307-26.631 26.637 9.834 2.67ZM305.947 285.455l6.663-1.806v-73.392l-18.555 68.379 11.892 6.819ZM336.78 289.132l26.637-26.631-29.307 16.796 2.67 9.835ZM320.634 285.455l11.891-6.819-18.555-68.379v73.392l6.664 1.806ZM284.758 312.909h4.214l-2.855-4.989-1.359 4.989ZM339.964 306.061l-3.88-14.3-7.23 7.23 7.575 13.227 3.535-6.157ZM326.893 299.027l-12.923-7.403v20.319l12.923-12.916ZM305.762 286.915l-14.299 3.88 7.23 7.236 13.226-7.582-6.157-3.534ZM312.61 291.624l-12.922 7.403 12.922 12.916v-20.319ZM290.152 312.218l7.581-13.227-7.236-7.23-3.88 14.3 3.535 6.157ZM289.181 291.415l-9.483 2.575 5.966 10.401 3.517-12.976ZM307.621 286.414l4.989 2.855v-4.214l-4.989 1.359ZM262.203 263.461 279 292.768l9.834-2.67-26.631-26.637ZM291.118 289.478l12.976-3.516-10.401-5.967-2.575 9.483ZM320.819 286.915l-6.157 3.534 13.227 7.582 7.23-7.236-14.3-3.88ZM322.487 285.962l12.976 3.516-2.575-9.483-10.401 5.967ZM313.97 289.269l4.989-2.855-4.989-1.359v4.214Z" fill="#1E1D2B"/><path d="m312.635 204.995-19.8 72.968-33.427-19.163a.681.681 0 0 0-.824.106.676.676 0 0 0-.106.824l19.163 33.426-72.944 19.777a.672.672 0 0 0-.361.243.675.675 0 0 0 0 .825c.09.119.217.204.361.243l72.944 19.801-19.163 33.426a.68.68 0 0 0 .93.93l33.427-19.163 19.8 72.968a.684.684 0 0 0 .243.362.685.685 0 0 0 .825 0 .686.686 0 0 0 .244-.362l19.8-72.968 33.427 19.163a.677.677 0 0 0 .84-.089.693.693 0 0 0 .113-.823l-19.187-33.444 72.969-19.801a.676.676 0 0 0 .501-.656.676.676 0 0 0-.501-.655l-72.969-19.801 19.163-33.426a.7.7 0 0 0-.113-.823.689.689 0 0 0-.816-.107l-33.427 19.163-19.8-72.944a.686.686 0 0 0-.656-.501.685.685 0 0 0-.413.139.684.684 0 0 0-.243.362ZM279.698 333.21l5.96-10.401 3.523 12.976-9.483-2.575Zm24.396 8.035-10.401 5.961-2.569-9.507 12.97 3.546Zm-12.63-4.84 7.23-7.26 13.226 7.576-6.157 3.529-14.299-3.845Zm16.158 4.381 4.96-2.873v4.214l-4.96-1.341Zm6.348-2.873 4.989 2.861-4.989 1.353v-4.214Zm21.494-.208-2.575 9.483-10.401-5.961 12.976-3.522Zm-14.645 2.563-6.157-3.547 13.226-7.588 7.23 7.236-14.299 3.899Zm8.029-12.076 7.575-13.233 3.529 6.158-3.88 14.305-7.224-7.23Zm-14.901 7.367V315.24l12.94 12.91-12.94 7.409Zm-1.359 0-12.923-7.403 12.917-12.922.006 20.325Zm-14.902-7.367-7.236 7.236-3.88-14.305 3.535-6.158 7.581 13.227Zm-18.733 6.222 9.834 2.671-26.631 26.637 16.797-29.308Zm-15.837 30.268 26.637-26.632 2.67 9.835-29.307 16.797Zm30.893-16.135 11.891-6.819 6.664 1.788v73.403l-18.555-68.372Zm19.961 68.372v-73.391l6.664-1.788 11.891 6.819-18.555 68.36Zm20.141-69.04 2.67-9.835 26.637 26.638-29.307-16.803Zm30.273 15.837-26.637-26.637 9.834-2.671 16.803 29.308Zm-26.983-27.955 3.523-12.976 5.96 10.402-9.483 2.574Zm79.221-21.493-68.379 18.555-6.819-11.891 1.788-6.664h73.41Zm-74.798 0-1.359 4.989-2.855-4.989h4.214Zm-6.557 0-7.415 12.916-12.916-12.922 20.331.006Zm-23.609 0-12.929 12.916-7.402-12.922 20.331.006Zm-22.65 0-2.855 4.989-1.359-4.989h4.214Zm-5.621 0 1.788 6.664-6.818 11.891-68.379-18.555h73.409Zm9.12-34.97-2.671 9.835-26.637-26.632 29.308 16.797Zm5.263 19.669-7.582 13.227-3.534-6.157 3.88-14.306 7.236 7.236Zm-6.271-8.195 14.306-3.88 6.157 3.528-13.227 7.588-7.236-7.236Zm21.083.852v20.319l-12.923-12.916 12.923-7.403Zm1.359 0 12.946 7.403-12.923 12.916-.023-20.319Zm14.901 7.367 7.236-7.23 3.88 14.305-3.535 6.152-7.581-13.227Zm-.96-.959-13.226-7.588 6.157-3.529 14.305 3.881-7.236 7.236Zm-5.4-12.07 10.401-5.961 2.575 9.483-12.976-3.522Zm-3.529.453-4.989 2.855v-4.214l4.989 1.359Zm-6.371 2.855-4.989-2.855 4.989-1.359v4.214Zm-21.494.208 2.575-9.483 10.401 5.961-12.976 3.522Zm-28.914-26.017 26.631 26.637-9.835 2.671-16.796-29.308Zm27.007 27.96-3.517 12.976-5.96-10.401 9.477-2.575Zm-79.221 21.458 68.379-18.525 6.818 11.921-1.782 6.604H209.96Zm74.798 0 1.359-4.989 2.855 4.989h-4.214Zm6.557 0 7.403-12.922 12.928 12.922h-20.331Zm23.609 0 12.916-12.922 7.391 12.922h-20.307Zm22.65 0 2.855-4.989 1.395 4.989h-4.25Zm79.012 0H343.23l-1.788-6.658 6.819-11.921 68.325 18.579Zm-69.738-18.918-5.96 10.401-3.487-12.941 9.447 2.54Zm.698-1.222-9.835-2.671 26.637-26.637-16.802 29.308Zm15.837-30.268-26.638 26.632-2.67-9.835 29.308-16.797Zm-30.893 16.135-11.856 6.855-6.664-1.788v-73.415l18.52 68.348Zm-19.908 5.067-6.664 1.788-11.891-6.819 18.555-68.384v73.415Z" fill="url(#aF)"/><defs><linearGradient id="a" x1="308748" y1="-94077.6" x2="296131" y2="-86559" gradientUnits="userSpaceOnUse"><stop stop-color="#A36D4F"/><stop offset="1" stop-color="#fff"/></linearGradient><linearGradient id="b" x1="347729" y1="-88949.9" x2="334924" y2="-79860.2" gradientUnits="userSpaceOnUse"><stop stop-color="#A36D4F"/><stop offset="1" stop-color="#fff"/></linearGradient><linearGradient id="c" x1="384048" y1="-83122.1" x2="371562" y2="-72649" gradientUnits="userSpaceOnUse"><stop stop-color="#A36D4F"/><stop offset="1" stop-color="#fff"/></linearGradient><linearGradient id="d" x1="417930" y1="-76789.4" x2="406213" y2="-65215.8" gradientUnits="userSpaceOnUse"><stop stop-color="#A36D4F"/><stop offset="1" stop-color="#fff"/></linearGradient><linearGradient id="e" x1="449108" y1="-69945" x2="438555" y2="-57650.1" gradientUnits="userSpaceOnUse"><stop stop-color="#A36D4F"/><stop offset="1" stop-color="#fff"/></linearGradient><linearGradient id="f" x1="477112" y1="-62598.3" x2="468032" y2="-50046.9" gradientUnits="userSpaceOnUse"><stop stop-color="#A36D4F"/><stop offset="1" stop-color="#fff"/></linearGradient><linearGradient id="g" x1="501763" y1="-54816.8" x2="494354" y2="-42527" gradientUnits="userSpaceOnUse"><stop stop-color="#A36D4F"/><stop offset="1" stop-color="#fff"/></linearGradient><linearGradient id="h" x1="523148" y1="-46686.2" x2="517483" y2="-35193.6" gradientUnits="userSpaceOnUse"><stop stop-color="#A36D4F"/><stop offset="1" stop-color="#fff"/></linearGradient><linearGradient id="i" x1="540764" y1="-38220.7" x2="536792" y2="-28061.7" gradientUnits="userSpaceOnUse"><stop stop-color="#A36D4F"/><stop offset="1" stop-color="#fff"/></linearGradient><linearGradient id="j" x1="555304" y1="-29538.7" x2="552843" y2="-21191.8" gradientUnits="userSpaceOnUse"><stop stop-color="#A36D4F"/><stop offset="1" stop-color="#fff"/></linearGradient><linearGradient id="k" x1="565573" y1="-20626" x2="564332" y2="-14514.1" gradientUnits="userSpaceOnUse"><stop stop-color="#A36D4F"/><stop offset="1" stop-color="#fff"/></linearGradient><linearGradient id="l" x1="572067" y1="-11586.6" x2="571659" y2="-8016.48" gradientUnits="userSpaceOnUse"><stop stop-color="#A36D4F"/><stop offset="1" stop-color="#fff"/></linearGradient><linearGradient id="m" x1="574716" y1="-2474.49" x2="574693" y2="-1627.97" gradientUnits="userSpaceOnUse"><stop stop-color="#A36D4F"/><stop offset="1" stop-color="#fff"/></linearGradient><linearGradient id="n" x1="573465" y1="-8296.02" x2="573252" y2="-5700.68" gradientUnits="userSpaceOnUse"><stop stop-color="#A36D4F"/><stop offset="1" stop-color="#fff"/></linearGradient><linearGradient id="o" x1="568369" y1="-17397.5" x2="567477" y2="-12174.9" gradientUnits="userSpaceOnUse"><stop stop-color="#A36D4F"/><stop offset="1" stop-color="#fff"/></linearGradient><linearGradient id="p" x1="559320" y1="-26361.4" x2="557341" y2="-18783.7" gradientUnits="userSpaceOnUse"><stop stop-color="#A36D4F"/><stop offset="1" stop-color="#fff"/></linearGradient><linearGradient id="q" x1="546541" y1="-35146.6" x2="543146" y2="-25592.5" gradientUnits="userSpaceOnUse"><stop stop-color="#A36D4F"/><stop offset="1" stop-color="#fff"/></linearGradient><linearGradient id="r" x1="530132" y1="-43729" x2="525093" y2="-32656.9" gradientUnits="userSpaceOnUse"><stop stop-color="#A36D4F"/><stop offset="1" stop-color="#fff"/></linearGradient><linearGradient id="s" x1="509741" y1="-51959.6" x2="502968" y2="-39901.8" gradientUnits="userSpaceOnUse"><stop stop-color="#A36D4F"/><stop offset="1" stop-color="#fff"/></linearGradient><linearGradient id="t" x1="486387" y1="-59898.5" x2="477899" y2="-47382.5" gradientUnits="userSpaceOnUse"><stop stop-color="#A36D4F"/><stop offset="1" stop-color="#fff"/></linearGradient><linearGradient id="u" x1="459426" y1="-67398.7" x2="449383" y2="-54959.8" gradientUnits="userSpaceOnUse"><stop stop-color="#A36D4F"/><stop offset="1" stop-color="#fff"/></linearGradient><linearGradient id="v" x1="429543" y1="-74462.8" x2="418210" y2="-62579.8" gradientUnits="userSpaceOnUse"><stop stop-color="#A36D4F"/><stop offset="1" stop-color="#fff"/></linearGradient><linearGradient id="w" x1="396621" y1="-80990.3" x2="384368" y2="-70080" gradientUnits="userSpaceOnUse"><stop stop-color="#A36D4F"/><stop offset="1" stop-color="#fff"/></linearGradient><linearGradient id="x" x1="361097" y1="-87007.3" x2="348356" y2="-77391.3" gradientUnits="userSpaceOnUse"><stop stop-color="#A36D4F"/><stop offset="1" stop-color="#fff"/></linearGradient><linearGradient id="y" x1="323122" y1="-92432.3" x2="310379" y2="-84330.7" gradientUnits="userSpaceOnUse"><stop stop-color="#A36D4F"/><stop offset="1" stop-color="#fff"/></linearGradient><linearGradient id="z" x1="282900" y1="-97166.2" x2="270666" y2="-90688.1" gradientUnits="userSpaceOnUse"><stop stop-color="#A36D4F"/><stop offset="1" stop-color="#fff"/></linearGradient><linearGradient id="A" x1="240824" y1="-101292" x2="229592" y2="-96435" gradientUnits="userSpaceOnUse"><stop stop-color="#A36D4F"/><stop offset="1" stop-color="#fff"/></linearGradient><linearGradient id="B" x1="197178" y1="-104726" x2="187410" y2="-101382" gradientUnits="userSpaceOnUse"><stop stop-color="#A36D4F"/><stop offset="1" stop-color="#fff"/></linearGradient><linearGradient id="C" x1="152178" y1="-107443" x2="144283" y2="-105410" gradientUnits="userSpaceOnUse"><stop stop-color="#A36D4F"/><stop offset="1" stop-color="#fff"/></linearGradient><linearGradient id="D" x1="106260" y1="-109498" x2="100564" y2="-108494" gradientUnits="userSpaceOnUse"><stop stop-color="#A36D4F"/><stop offset="1" stop-color="#fff"/></linearGradient><linearGradient id="E" x1="59493.9" y1="-110684" x2="56244.4" y2="-110367" gradientUnits="userSpaceOnUse"><stop stop-color="#A36D4F"/><stop offset="1" stop-color="#fff"/></linearGradient><linearGradient id="F" x1="12446.1" y1="-111135" x2="11773.9" y2="-111122" gradientUnits="userSpaceOnUse"><stop stop-color="#A36D4F"/><stop offset="1" stop-color="#fff"/></linearGradient><linearGradient id="G" x1="46997.9" y1="-110879" x2="44426" y2="-110681" gradientUnits="userSpaceOnUse"><stop stop-color="#A36D4F"/><stop offset="1" stop-color="#fff"/></linearGradient><linearGradient id="H" x1="93862" y1="-109878" x2="88799.6" y2="-109093" gradientUnits="userSpaceOnUse"><stop stop-color="#A36D4F"/><stop offset="1" stop-color="#fff"/></linearGradient><linearGradient id="I" x1="140034" y1="-108115" x2="132697" y2="-106388" gradientUnits="userSpaceOnUse"><stop stop-color="#A36D4F"/><stop offset="1" stop-color="#fff"/></linearGradient><linearGradient id="J" x1="185334" y1="-105533" x2="176029" y2="-102562" gradientUnits="userSpaceOnUse"><stop stop-color="#A36D4F"/><stop offset="1" stop-color="#fff"/></linearGradient><linearGradient id="K" x1="229394" y1="-102290" x2="218509" y2="-97852.5" gradientUnits="userSpaceOnUse"><stop stop-color="#A36D4F"/><stop offset="1" stop-color="#fff"/></linearGradient><linearGradient id="L" x1="272015" y1="-98370.9" x2="259997" y2="-92328.5" gradientUnits="userSpaceOnUse"><stop stop-color="#A36D4F"/><stop offset="1" stop-color="#fff"/></linearGradient><linearGradient id="M" x1="312664" y1="-93755.9" x2="300009" y2="-86082.2" gradientUnits="userSpaceOnUse"><stop stop-color="#A36D4F"/><stop offset="1" stop-color="#fff"/></linearGradient><linearGradient id="N" x1="351364" y1="-88531" x2="338572" y2="-79300.4" gradientUnits="userSpaceOnUse"><stop stop-color="#A36D4F"/><stop offset="1" stop-color="#fff"/></linearGradient><linearGradient id="O" x1="387429" y1="-82651.6" x2="375000" y2="-72061.7" gradientUnits="userSpaceOnUse"><stop stop-color="#A36D4F"/><stop offset="1" stop-color="#fff"/></linearGradient><linearGradient id="P" x1="421188" y1="-76262.8" x2="409569" y2="-64601.6" gradientUnits="userSpaceOnUse"><stop stop-color="#A36D4F"/><stop offset="1" stop-color="#fff"/></linearGradient><linearGradient id="Q" x1="452021" y1="-69356.5" x2="441599" y2="-57017.2" gradientUnits="userSpaceOnUse"><stop stop-color="#A36D4F"/><stop offset="1" stop-color="#fff"/></linearGradient><linearGradient id="R" x1="479653" y1="-61946" x2="470729" y2="-49400.1" gradientUnits="userSpaceOnUse"><stop stop-color="#A36D4F"/><stop offset="1" stop-color="#fff"/></linearGradient><linearGradient id="S" x1="504112" y1="-54128.6" x2="496871" y2="-41892.6" gradientUnits="userSpaceOnUse"><stop stop-color="#A36D4F"/><stop offset="1" stop-color="#fff"/></linearGradient><linearGradient id="T" x1="525174" y1="-45955.5" x2="519677" y2="-34568.4" gradientUnits="userSpaceOnUse"><stop stop-color="#A36D4F"/><stop offset="1" stop-color="#fff"/></linearGradient><linearGradient id="U" x1="542646" y1="-37467.7" x2="538828" y2="-27459.1" gradientUnits="userSpaceOnUse"><stop stop-color="#A36D4F"/><stop offset="1" stop-color="#fff"/></linearGradient><linearGradient id="V" x1="556636" y1="-28736.4" x2="554305" y2="-20587.1" gradientUnits="userSpaceOnUse"><stop stop-color="#A36D4F"/><stop offset="1" stop-color="#fff"/></linearGradient><linearGradient id="W" x1="566512" y1="-19792.8" x2="565369" y2="-13913.5" gradientUnits="userSpaceOnUse"><stop stop-color="#A36D4F"/><stop offset="1" stop-color="#fff"/></linearGradient><linearGradient id="X" x1="572655" y1="-10731" x2="572305" y2="-7416.24" gradientUnits="userSpaceOnUse"><stop stop-color="#A36D4F"/><stop offset="1" stop-color="#fff"/></linearGradient><linearGradient id="Y" x1="574929" y1="-1594.31" x2="574918" y2="-1015.27" gradientUnits="userSpaceOnUse"><stop stop-color="#A36D4F"/><stop offset="1" stop-color="#fff"/></linearGradient><linearGradient id="Z" x1="573314" y1="-9159.25" x2="573055" y2="-6303.86" gradientUnits="userSpaceOnUse"><stop stop-color="#A36D4F"/><stop offset="1" stop-color="#fff"/></linearGradient><linearGradient id="aa" x1="567797" y1="-18239.1" x2="566817" y2="-12776.2" gradientUnits="userSpaceOnUse"><stop stop-color="#A36D4F"/><stop offset="1" stop-color="#fff"/></linearGradient><linearGradient id="ab" x1="558528" y1="-27185.9" x2="556424" y2="-19396.8" gradientUnits="userSpaceOnUse"><stop stop-color="#A36D4F"/><stop offset="1" stop-color="#fff"/></linearGradient><linearGradient id="ac" x1="545242" y1="-35933.7" x2="541695" y2="-26211.2" gradientUnits="userSpaceOnUse"><stop stop-color="#A36D4F"/><stop offset="1" stop-color="#fff"/></linearGradient><linearGradient id="ad" x1="528424" y1="-44441.5" x2="523225" y2="-33255.7" gradientUnits="userSpaceOnUse"><stop stop-color="#A36D4F"/><stop offset="1" stop-color="#fff"/></linearGradient><linearGradient id="ae" x1="507844" y1="-52671.5" x2="500900" y2="-40543.9" gradientUnits="userSpaceOnUse"><stop stop-color="#A36D4F"/><stop offset="1" stop-color="#fff"/></linearGradient><linearGradient id="af" x1="484078" y1="-60533.4" x2="475434" y2="-48003.2" gradientUnits="userSpaceOnUse"><stop stop-color="#A36D4F"/><stop offset="1" stop-color="#fff"/></linearGradient><linearGradient id="ag" x1="456890" y1="-68002.5" x2="446708" y2="-55595.2" gradientUnits="userSpaceOnUse"><stop stop-color="#A36D4F"/><stop offset="1" stop-color="#fff"/></linearGradient><linearGradient id="ah" x1="426444" y1="-74978.6" x2="415007" y2="-63177.6" gradientUnits="userSpaceOnUse"><stop stop-color="#A36D4F"/><stop offset="1" stop-color="#fff"/></linearGradient><linearGradient id="ai" x1="393719" y1="-81532.5" x2="381389" y2="-70726.6" gradientUnits="userSpaceOnUse"><stop stop-color="#A36D4F"/><stop offset="1" stop-color="#fff"/></linearGradient><linearGradient id="aj" x1="357707" y1="-87430.8" x2="344942" y2="-77951.2" gradientUnits="userSpaceOnUse"><stop stop-color="#A36D4F"/><stop offset="1" stop-color="#fff"/></linearGradient><linearGradient id="ak" x1="319507" y1="-92783.1" x2="306789" y2="-84832.8" gradientUnits="userSpaceOnUse"><stop stop-color="#A36D4F"/><stop offset="1" stop-color="#fff"/></linearGradient><linearGradient id="al" x1="279008" y1="-97449.3" x2="266849" y2="-91129.6" gradientUnits="userSpaceOnUse"><stop stop-color="#A36D4F"/><stop offset="1" stop-color="#fff"/></linearGradient><linearGradient id="am" x1="236758" y1="-101493" x2="225648" y2="-96787.9" gradientUnits="userSpaceOnUse"><stop stop-color="#A36D4F"/><stop offset="1" stop-color="#fff"/></linearGradient><linearGradient id="an" x1="192958" y1="-104855" x2="183354" y2="-101648" gradientUnits="userSpaceOnUse"><stop stop-color="#A36D4F"/><stop offset="1" stop-color="#fff"/></linearGradient><linearGradient id="ao" x1="147842" y1="-107490" x2="140146" y2="-105569" gradientUnits="userSpaceOnUse"><stop stop-color="#A36D4F"/><stop offset="1" stop-color="#fff"/></linearGradient><linearGradient id="ap" x1="101746" y1="-109458" x2="96280.4" y2="-108538" gradientUnits="userSpaceOnUse"><stop stop-color="#A36D4F"/><stop offset="1" stop-color="#fff"/></linearGradient><linearGradient id="aq" x1="55014.4" y1="-110589" x2="52007.4" y2="-110318" gradientUnits="userSpaceOnUse"><stop stop-color="#A36D4F"/><stop offset="1" stop-color="#fff"/></linearGradient><linearGradient id="ar" x1="7916.62" y1="-110965" x2="7495.31" y2="-110959" gradientUnits="userSpaceOnUse"><stop stop-color="#A36D4F"/><stop offset="1" stop-color="#fff"/></linearGradient><linearGradient id="as" x1="51463.8" y1="-110643" x2="48648.4" y2="-110406" gradientUnits="userSpaceOnUse"><stop stop-color="#A36D4F"/><stop offset="1" stop-color="#fff"/></linearGradient><linearGradient id="at" x1="98368.9" y1="-109557" x2="93073.9" y2="-108696" gradientUnits="userSpaceOnUse"><stop stop-color="#A36D4F"/><stop offset="1" stop-color="#fff"/></linearGradient><linearGradient id="au" x1="144470" y1="-107735" x2="136926" y2="-105900" gradientUnits="userSpaceOnUse"><stop stop-color="#A36D4F"/><stop offset="1" stop-color="#fff"/></linearGradient><linearGradient id="av" x1="189575" y1="-105075" x2="180101" y2="-101972" gradientUnits="userSpaceOnUse"><stop stop-color="#A36D4F"/><stop offset="1" stop-color="#fff"/></linearGradient><linearGradient id="aw" x1="233495" y1="-101787" x2="222481" y2="-97199.3" gradientUnits="userSpaceOnUse"><stop stop-color="#A36D4F"/><stop offset="1" stop-color="#fff"/></linearGradient><linearGradient id="ax" x1="275923" y1="-97808.9" x2="263822" y2="-91609.6" gradientUnits="userSpaceOnUse"><stop stop-color="#A36D4F"/><stop offset="1" stop-color="#fff"/></linearGradient><linearGradient id="az" x1="313.291" y1="437.214" x2="313.291" y2="189.962" gradientUnits="userSpaceOnUse"><stop stop-color="#AB8D60"/><stop offset=".07" stop-color="#B29466"/><stop offset=".51" stop-color="#DBC087"/><stop offset="1" stop-color="#AB8D60"/></linearGradient><linearGradient id="aA" x1="126.233" y1="208.35" x2="495.603" y2="421.604" gradientUnits="userSpaceOnUse"><stop stop-color="#666"/><stop offset=".28" stop-color="#A0A0A0"/><stop offset=".51" stop-color="#CCC"/><stop offset="1" stop-color="#666"/></linearGradient><linearGradient id="aB" x1="102982" y1="-186955" x2="78452.9" y2="-186955" gradientUnits="userSpaceOnUse"><stop stop-color="#AB8D60"/><stop offset=".07" stop-color="#B29466"/><stop offset=".51" stop-color="#DBC087"/><stop offset="1" stop-color="#AB8D60"/></linearGradient><linearGradient id="aC" x1="82244.9" y1="-133971" x2="73748.1" y2="-133971" gradientUnits="userSpaceOnUse"><stop stop-color="#666"/><stop offset=".28" stop-color="#A0A0A0"/><stop offset=".51" stop-color="#CCC"/><stop offset="1" stop-color="#666"/></linearGradient><linearGradient id="aD" x1="54051.6" y1="-89751.6" x2="50250.8" y2="-89751.6" gradientUnits="userSpaceOnUse"><stop stop-color="#666"/><stop offset=".28" stop-color="#A0A0A0"/><stop offset=".51" stop-color="#CCC"/><stop offset="1" stop-color="#666"/></linearGradient><linearGradient id="aE" x1="33439.8" y1="-86174.1" x2="24875.3" y2="-86174.1" gradientUnits="userSpaceOnUse"><stop stop-color="#AB8D60"/><stop offset=".07" stop-color="#B29466"/><stop offset=".51" stop-color="#DBC087"/><stop offset="1" stop-color="#AB8D60"/></linearGradient><linearGradient id="aF" x1="422.415" y1="313.588" x2="204.167" y2="313.588" gradientUnits="userSpaceOnUse"><stop stop-color="#999"/><stop offset=".07" stop-color="#A0A0A0"/><stop offset=".51" stop-color="#CCC"/><stop offset="1" stop-color="#999"/></linearGradient><filter id="ay" x=".558" y=".856" width="625.464" height="625.464" filterUnits="userSpaceOnUse" color-interpolation-filters="sRGB"><feFlood flood-opacity="0" result="BackgroundImageFix"/><feColorMatrix in="SourceAlpha" values="0 0 0 0 0 0 0 0 0 0 0 0 0 0 0 0 0 0 127 0" result="hardAlpha"/><feOffset/><feGaussianBlur stdDeviation="95"/><feComposite in2="hardAlpha" operator="out"/><feColorMatrix values="0 0 0 0 1 0 0 0 0 0 0 0 0 0 0 0 0 0 0.6 0"/><feBlend in2="BackgroundImageFix" result="effect1_dropShadow_1131_7510"/><feBlend in="SourceGraphic" in2="effect1_dropShadow_1131_7510" result="shape"/><feColorMatrix in="SourceAlpha" values="0 0 0 0 0 0 0 0 0 0 0 0 0 0 0 0 0 0 127 0" result="hardAlpha"/><feOffset/><feGaussianBlur stdDeviation="15"/><feComposite in2="hardAlpha" operator="arithmetic" k2="-1" k3="1"/><feColorMatrix values="0 0 0 0 1 0 0 0 0 0 0 0 0 0 0 0 0 0 0.45 0"/><feBlend in2="shape" result="effect2_innerShadow_1131_7510"/></filter></defs></svg>