<svg width="20" height="20" viewBox="0 0 20 20" fill="none" xmlns="http://www.w3.org/2000/svg">
<circle cx="10" cy="10" r="10" fill="#FF6B82"/>
<path d="M14.5325 1.08398C17.7772 2.73687 19.9996 6.10892 19.9996 10C19.9996 15.5229 15.5225 20 9.99965 20C6.85813 20 4.05496 18.5514 2.22168 16.2857L14.5325 1.08398Z" fill="#DA3B50"/>
<ellipse cx="9.99981" cy="10" rx="7.2" ry="7.2" fill="#BE2748"/>
<path fill-rule="evenodd" clip-rule="evenodd" d="M10.7519 13.6131C10.9346 13.9041 10.9486 14.1649 10.8676 14.3969C11.771 14.1842 12.4199 13.6119 12.7965 12.8578C13.2773 11.8951 13.3883 10.6731 12.7965 9.45114C12.2047 8.22917 11.6869 7.56265 10.7252 7.04424C10.4124 6.87565 10.0769 6.74484 9.7535 6.61877C9.08246 6.35717 8.4638 6.11599 8.21 5.6001C8.00275 6.02135 8.30465 6.41684 8.58659 6.78617C8.81632 7.08712 9.03279 7.3707 8.94976 7.6367C8.84927 7.95863 8.56313 8.22589 8.23375 8.53354C7.95695 8.79208 7.64962 9.07914 7.39627 9.45114C6.58253 10.7472 6.68243 11.8797 7.21133 12.8578C7.62656 13.6257 8.32453 14.1921 9.24969 14.4001C9.16741 14.1556 9.15382 13.8129 9.27736 13.5984C9.41368 13.3618 9.50457 13.2281 9.80048 13.043C9.89252 12.9854 9.97024 12.9421 10.0422 12.9021C10.2017 12.8133 10.3331 12.7402 10.5297 12.5616C10.5873 12.6786 10.5329 12.823 10.4828 12.9559C10.4436 13.06 10.4071 13.157 10.4293 13.2281C10.4561 13.3142 10.5029 13.3547 10.5636 13.4073C10.6169 13.4535 10.681 13.5091 10.7519 13.6131ZM12.3896 6.11851C12.3896 5.92102 12.4266 5.7729 12.5006 5.67416C12.1307 5.79759 11.9334 5.95805 11.9088 6.15554C11.8718 6.45177 11.9457 6.63692 12.0937 6.89612C12.1923 7.06892 12.1923 7.22938 12.0937 7.3775C12.4636 7.05658 12.6239 6.80972 12.5745 6.63692C12.5441 6.53011 12.5073 6.4736 12.4746 6.42335C12.428 6.35165 12.3896 6.29268 12.3896 6.11851Z" fill="#FF92A3"/>
</svg>
