<svg width="20" height="20" viewBox="0 0 20 20" fill="none" xmlns="http://www.w3.org/2000/svg">
<circle cx="10" cy="10" r="10" fill="#FAFA76"/>
<path d="M14.5325 1.08398C17.7772 2.73687 19.9996 6.10892 19.9996 10C19.9996 15.5229 15.5225 20 9.99965 20C6.85813 20 4.05496 18.5514 2.22168 16.2857L14.5325 1.08398Z" fill="#FED34F"/>
<ellipse cx="9.99981" cy="10" rx="7.2" ry="7.2" fill="#DE964F"/>
<path fill-rule="evenodd" clip-rule="evenodd" d="M8.65191 6H11.7477C11.916 6 12.0628 6.11798 12.1036 6.28615L12.6539 8.55282C12.703 8.75523 12.5835 8.96034 12.3869 9.01094C12.3578 9.01843 12.328 9.02222 12.298 9.02222H8.10161C7.899 9.02222 7.73475 8.85308 7.73475 8.64444C7.73475 8.61356 7.73843 8.58278 7.7457 8.55282L8.296 6.28615C8.33683 6.11798 8.48356 6 8.65191 6ZM5.71697 9.77778H8.81273C8.98107 9.77778 9.12781 9.89576 9.16864 10.0639L9.71894 12.3306C9.76808 12.533 9.64857 12.7381 9.452 12.7887C9.4229 12.7962 9.39302 12.8 9.36303 12.8H5.16667C4.96406 12.8 4.7998 12.6309 4.7998 12.4222C4.7998 12.3913 4.80348 12.3606 4.81076 12.3306L5.36105 10.0639C5.40188 9.89576 5.54862 9.77778 5.71697 9.77778ZM14.6826 9.77778H11.5868C11.4185 9.77778 11.2717 9.89576 11.2309 10.0639L10.6806 12.3306C10.6733 12.3606 10.6696 12.3913 10.6696 12.4222C10.6696 12.6309 10.8339 12.8 11.0365 12.8H15.2329C15.2629 12.8 15.2927 12.7962 15.3218 12.7887C15.5184 12.7381 15.6379 12.533 15.5888 12.3306L15.0385 10.0639C14.9977 9.89576 14.8509 9.77778 14.6826 9.77778Z" fill="#FAFA76"/>
</svg>
