<svg width="20" height="20" viewBox="0 0 20 20" fill="none" xmlns="http://www.w3.org/2000/svg">
<circle cx="10" cy="10" r="10" fill="#FFCD7F"/>
<path d="M14.5325 1.08398C17.7772 2.73687 19.9996 6.10892 19.9996 10C19.9996 15.5229 15.5225 20 9.99965 20C6.85813 20 4.05496 18.5514 2.22168 16.2857L14.5325 1.08398Z" fill="#D3896C"/>
<ellipse cx="9.99981" cy="10" rx="7.2" ry="7.2" fill="#615044"/>
<path fill-rule="evenodd" clip-rule="evenodd" d="M14.3712 11.7738L10.5312 6.55645C10.5094 6.52678 10.4835 6.50043 10.4544 6.47819C10.2847 6.34852 10.044 6.38356 9.91679 6.55645L6.0768 11.7738C6.02695 11.8416 6 11.9239 6 12.0086C6 12.2247 6.17192 12.3999 6.384 12.3999H14.064C14.1471 12.3999 14.2279 12.3724 14.2944 12.3216C14.464 12.192 14.4984 11.9467 14.3712 11.7738ZM11.9423 7.70424L14.8127 11.6042H15.2159C15.299 11.6042 15.3799 11.5768 15.4463 11.526C15.616 11.3963 15.6504 11.151 15.5231 10.9781L12.8351 7.32598C12.8133 7.29632 12.7875 7.26997 12.7583 7.24772C12.5887 7.11806 12.348 7.1531 12.2207 7.32598L11.9423 7.70424Z" fill="#FFCD7F"/>
</svg>
