<svg width="20" height="20" viewBox="0 0 20 20" fill="none" xmlns="http://www.w3.org/2000/svg">
<circle cx="10" cy="10" r="10" fill="#49E9D8"/>
<path d="M14.5325 1.08398C17.7772 2.73687 19.9996 6.10892 19.9996 10C19.9996 15.5229 15.5225 20 9.99965 20C6.85813 20 4.05496 18.5514 2.22168 16.2857L14.5325 1.08398Z" fill="#42C3B0"/>
<ellipse cx="9.99981" cy="10" rx="7.2" ry="7.2" fill="#2C7E73"/>
<path d="M9.94398 5.19995C10.3436 6.01139 10.6188 6.53542 10.7693 6.77204C11.3196 7.63669 11.634 7.95111 12.2235 8.81575C13.0882 10.1913 13.0882 10.7841 13.0882 11.4883C13.0882 13.2248 11.6805 14.5146 9.94398 14.5146C8.2075 14.5146 6.7998 13.2248 6.7998 11.4883C6.7998 10.7841 6.7998 10.1913 7.66445 8.81575C8.25399 7.95111 8.5684 7.63669 9.11863 6.77204C9.26921 6.53542 9.54433 6.01139 9.94398 5.19995Z" fill="#49E9D8"/>
<path d="M9.19402 13.5436C9.48953 13.2775 9.37586 12.6695 8.94013 12.1856C8.50441 11.7017 7.91163 11.5251 7.61612 11.7912C7.32061 12.0573 7.43428 12.6652 7.87 13.1492C8.30573 13.6331 8.89851 13.8097 9.19402 13.5436Z" fill="white"/>
</svg>
