<svg width="20" height="20" viewBox="0 0 20 20" fill="none" xmlns="http://www.w3.org/2000/svg">
<circle cx="10" cy="10" r="10" fill="#44DA6E"/>
<path d="M14.5325 1.08398C17.7772 2.73687 19.9996 6.10892 19.9996 10C19.9996 15.5229 15.5225 20 9.99965 20C6.85813 20 4.05496 18.5514 2.22168 16.2857L14.5325 1.08398Z" fill="#27B481"/>
<ellipse cx="9.99981" cy="10" rx="7.2" ry="7.2" fill="#16635A"/>
<path d="M14 14C14 10.5636 11.2142 7.77778 7.77778 7.77778C7.62834 7.77778 7.48013 7.78305 7.33333 7.79341C10.5623 8.02129 13.1111 10.713 13.1111 14H10.4444C7.98985 14 6 12.0102 6 9.55556V6H9.55556C12.0102 6 14 7.98985 14 10.4444V14Z" fill="#44DA6E"/>
</svg>
